%TF.GenerationSoftware,KiCad,Pcbnew,9.0.0*%
%TF.CreationDate,2025-06-09T15:05:36+02:00*%
%TF.ProjectId,stm32-fpga-bootloader,73746d33-322d-4667-9067-612d626f6f74,rev?*%
%TF.SameCoordinates,Original*%
%TF.FileFunction,Paste,Top*%
%TF.FilePolarity,Positive*%
%FSLAX46Y46*%
G04 Gerber Fmt 4.6, Leading zero omitted, Abs format (unit mm)*
G04 Created by KiCad (PCBNEW 9.0.0) date 2025-06-09 15:05:36*
%MOMM*%
%LPD*%
G01*
G04 APERTURE LIST*
G04 Aperture macros list*
%AMRoundRect*
0 Rectangle with rounded corners*
0 $1 Rounding radius*
0 $2 $3 $4 $5 $6 $7 $8 $9 X,Y pos of 4 corners*
0 Add a 4 corners polygon primitive as box body*
4,1,4,$2,$3,$4,$5,$6,$7,$8,$9,$2,$3,0*
0 Add four circle primitives for the rounded corners*
1,1,$1+$1,$2,$3*
1,1,$1+$1,$4,$5*
1,1,$1+$1,$6,$7*
1,1,$1+$1,$8,$9*
0 Add four rect primitives between the rounded corners*
20,1,$1+$1,$2,$3,$4,$5,0*
20,1,$1+$1,$4,$5,$6,$7,0*
20,1,$1+$1,$6,$7,$8,$9,0*
20,1,$1+$1,$8,$9,$2,$3,0*%
G04 Aperture macros list end*
%ADD10RoundRect,0.200000X0.275000X-0.200000X0.275000X0.200000X-0.275000X0.200000X-0.275000X-0.200000X0*%
%ADD11RoundRect,0.200000X-0.200000X-0.275000X0.200000X-0.275000X0.200000X0.275000X-0.200000X0.275000X0*%
%ADD12RoundRect,0.200000X0.200000X0.275000X-0.200000X0.275000X-0.200000X-0.275000X0.200000X-0.275000X0*%
%ADD13RoundRect,0.200000X-0.275000X0.200000X-0.275000X-0.200000X0.275000X-0.200000X0.275000X0.200000X0*%
%ADD14RoundRect,0.135000X-0.185000X0.135000X-0.185000X-0.135000X0.185000X-0.135000X0.185000X0.135000X0*%
%ADD15RoundRect,0.075000X-0.662500X-0.075000X0.662500X-0.075000X0.662500X0.075000X-0.662500X0.075000X0*%
%ADD16RoundRect,0.075000X-0.075000X-0.662500X0.075000X-0.662500X0.075000X0.662500X-0.075000X0.662500X0*%
%ADD17RoundRect,0.140000X0.170000X-0.140000X0.170000X0.140000X-0.170000X0.140000X-0.170000X-0.140000X0*%
%ADD18R,1.360000X1.230000*%
%ADD19RoundRect,0.135000X-0.135000X-0.185000X0.135000X-0.185000X0.135000X0.185000X-0.135000X0.185000X0*%
%ADD20RoundRect,0.250000X0.300000X-0.300000X0.300000X0.300000X-0.300000X0.300000X-0.300000X-0.300000X0*%
%ADD21R,1.230000X1.360000*%
%ADD22RoundRect,0.140000X-0.140000X-0.170000X0.140000X-0.170000X0.140000X0.170000X-0.140000X0.170000X0*%
%ADD23RoundRect,0.135000X0.135000X0.185000X-0.135000X0.185000X-0.135000X-0.185000X0.135000X-0.185000X0*%
%ADD24RoundRect,0.135000X0.185000X-0.135000X0.185000X0.135000X-0.185000X0.135000X-0.185000X-0.135000X0*%
%ADD25RoundRect,0.218750X-0.256250X0.218750X-0.256250X-0.218750X0.256250X-0.218750X0.256250X0.218750X0*%
%ADD26RoundRect,0.225000X-0.250000X0.225000X-0.250000X-0.225000X0.250000X-0.225000X0.250000X0.225000X0*%
%ADD27RoundRect,0.218750X0.218750X0.256250X-0.218750X0.256250X-0.218750X-0.256250X0.218750X-0.256250X0*%
%ADD28RoundRect,0.150000X-0.587500X-0.150000X0.587500X-0.150000X0.587500X0.150000X-0.587500X0.150000X0*%
%ADD29R,3.200000X2.500000*%
%ADD30R,4.000000X3.750000*%
%ADD31R,2.400000X1.300000*%
%ADD32RoundRect,0.140000X0.140000X0.170000X-0.140000X0.170000X-0.140000X-0.170000X0.140000X-0.170000X0*%
%ADD33RoundRect,0.225000X0.225000X0.250000X-0.225000X0.250000X-0.225000X-0.250000X0.225000X-0.250000X0*%
%ADD34RoundRect,0.140000X-0.170000X0.140000X-0.170000X-0.140000X0.170000X-0.140000X0.170000X0.140000X0*%
%ADD35RoundRect,0.150000X0.150000X-0.512500X0.150000X0.512500X-0.150000X0.512500X-0.150000X-0.512500X0*%
%ADD36RoundRect,0.218750X-0.218750X-0.256250X0.218750X-0.256250X0.218750X0.256250X-0.218750X0.256250X0*%
%ADD37RoundRect,0.225000X0.225000X0.375000X-0.225000X0.375000X-0.225000X-0.375000X0.225000X-0.375000X0*%
%ADD38RoundRect,0.250000X-0.300000X-0.300000X0.300000X-0.300000X0.300000X0.300000X-0.300000X0.300000X0*%
%ADD39RoundRect,0.225000X0.250000X-0.225000X0.250000X0.225000X-0.250000X0.225000X-0.250000X-0.225000X0*%
%ADD40RoundRect,0.249999X0.395001X-0.395001X0.395001X0.395001X-0.395001X0.395001X-0.395001X-0.395001X0*%
%ADD41RoundRect,0.050000X0.050000X-0.387500X0.050000X0.387500X-0.050000X0.387500X-0.050000X-0.387500X0*%
%ADD42RoundRect,0.050000X0.387500X-0.050000X0.387500X0.050000X-0.387500X0.050000X-0.387500X-0.050000X0*%
%ADD43R,1.240000X0.600000*%
%ADD44R,1.240000X0.300000*%
%ADD45RoundRect,0.225000X-0.225000X-0.250000X0.225000X-0.250000X0.225000X0.250000X-0.225000X0.250000X0*%
%ADD46R,1.200000X1.400000*%
%ADD47RoundRect,0.250000X-0.315000X-0.315000X0.315000X-0.315000X0.315000X0.315000X-0.315000X0.315000X0*%
%ADD48RoundRect,0.062500X-0.375000X-0.062500X0.375000X-0.062500X0.375000X0.062500X-0.375000X0.062500X0*%
%ADD49RoundRect,0.062500X-0.062500X-0.375000X0.062500X-0.375000X0.062500X0.375000X-0.062500X0.375000X0*%
%ADD50R,1.800000X0.350000*%
%ADD51R,2.000000X2.500000*%
%ADD52RoundRect,0.162500X0.162500X-0.650000X0.162500X0.650000X-0.162500X0.650000X-0.162500X-0.650000X0*%
%ADD53RoundRect,0.150000X-0.150000X0.587500X-0.150000X-0.587500X0.150000X-0.587500X0.150000X0.587500X0*%
%ADD54RoundRect,0.218750X0.256250X-0.218750X0.256250X0.218750X-0.256250X0.218750X-0.256250X-0.218750X0*%
%ADD55RoundRect,0.150000X0.150000X-0.587500X0.150000X0.587500X-0.150000X0.587500X-0.150000X-0.587500X0*%
%ADD56RoundRect,0.375000X-0.375000X0.625000X-0.375000X-0.625000X0.375000X-0.625000X0.375000X0.625000X0*%
%ADD57RoundRect,0.500000X-1.400000X0.500000X-1.400000X-0.500000X1.400000X-0.500000X1.400000X0.500000X0*%
%ADD58O,0.600000X1.970000*%
G04 APERTURE END LIST*
D10*
%TO.C,R86*%
X189105000Y-91800000D03*
X189105000Y-90150000D03*
%TD*%
D11*
%TO.C,R45*%
X144680000Y-50385000D03*
X146330000Y-50385000D03*
%TD*%
D10*
%TO.C,R41*%
X127605000Y-37410000D03*
X127605000Y-35760000D03*
%TD*%
%TO.C,R40*%
X130705000Y-37360000D03*
X130705000Y-35710000D03*
%TD*%
D12*
%TO.C,R39*%
X121330000Y-38985000D03*
X119680000Y-38985000D03*
%TD*%
D11*
%TO.C,R22*%
X129330000Y-54785000D03*
X130980000Y-54785000D03*
%TD*%
%TO.C,R21*%
X129330000Y-53185000D03*
X130980000Y-53185000D03*
%TD*%
D10*
%TO.C,R15*%
X185305000Y-91810000D03*
X185305000Y-90160000D03*
%TD*%
%TO.C,R14*%
X187205000Y-91810000D03*
X187205000Y-90160000D03*
%TD*%
D13*
%TO.C,R13*%
X134405000Y-111370000D03*
X134405000Y-113020000D03*
%TD*%
D11*
%TO.C,R11*%
X207680000Y-59705000D03*
X209330000Y-59705000D03*
%TD*%
%TO.C,R8*%
X207632500Y-57705000D03*
X209282500Y-57705000D03*
%TD*%
%TO.C,R7*%
X207692500Y-55585000D03*
X209342500Y-55585000D03*
%TD*%
D12*
%TO.C,R6*%
X120817500Y-93585000D03*
X119167500Y-93585000D03*
%TD*%
%TO.C,R5*%
X120427500Y-119885000D03*
X118777500Y-119885000D03*
%TD*%
D11*
%TO.C,R2*%
X129980000Y-105285000D03*
X131630000Y-105285000D03*
%TD*%
%TO.C,R1*%
X129980000Y-104085000D03*
X131630000Y-104085000D03*
%TD*%
D14*
%TO.C,R48*%
X185205000Y-54210000D03*
X185205000Y-55230000D03*
%TD*%
D15*
%TO.C,U9*%
X181642500Y-102185000D03*
X181642500Y-102685000D03*
X181642500Y-103185000D03*
X181642500Y-103685000D03*
X181642500Y-104185000D03*
X181642500Y-104685000D03*
X181642500Y-105185000D03*
X181642500Y-105685000D03*
X181642500Y-106185000D03*
X181642500Y-106685000D03*
X181642500Y-107185000D03*
X181642500Y-107685000D03*
X181642500Y-108185000D03*
X181642500Y-108685000D03*
X181642500Y-109185000D03*
X181642500Y-109685000D03*
X181642500Y-110185000D03*
X181642500Y-110685000D03*
X181642500Y-111185000D03*
X181642500Y-111685000D03*
X181642500Y-112185000D03*
X181642500Y-112685000D03*
X181642500Y-113185000D03*
X181642500Y-113685000D03*
X181642500Y-114185000D03*
D16*
X183305000Y-115847500D03*
X183805000Y-115847500D03*
X184305000Y-115847500D03*
X184805000Y-115847500D03*
X185305000Y-115847500D03*
X185805000Y-115847500D03*
X186305000Y-115847500D03*
X186805000Y-115847500D03*
X187305000Y-115847500D03*
X187805000Y-115847500D03*
X188305000Y-115847500D03*
X188805000Y-115847500D03*
X189305000Y-115847500D03*
X189805000Y-115847500D03*
X190305000Y-115847500D03*
X190805000Y-115847500D03*
X191305000Y-115847500D03*
X191805000Y-115847500D03*
X192305000Y-115847500D03*
X192805000Y-115847500D03*
X193305000Y-115847500D03*
X193805000Y-115847500D03*
X194305000Y-115847500D03*
X194805000Y-115847500D03*
X195305000Y-115847500D03*
D15*
X196967500Y-114185000D03*
X196967500Y-113685000D03*
X196967500Y-113185000D03*
X196967500Y-112685000D03*
X196967500Y-112185000D03*
X196967500Y-111685000D03*
X196967500Y-111185000D03*
X196967500Y-110685000D03*
X196967500Y-110185000D03*
X196967500Y-109685000D03*
X196967500Y-109185000D03*
X196967500Y-108685000D03*
X196967500Y-108185000D03*
X196967500Y-107685000D03*
X196967500Y-107185000D03*
X196967500Y-106685000D03*
X196967500Y-106185000D03*
X196967500Y-105685000D03*
X196967500Y-105185000D03*
X196967500Y-104685000D03*
X196967500Y-104185000D03*
X196967500Y-103685000D03*
X196967500Y-103185000D03*
X196967500Y-102685000D03*
X196967500Y-102185000D03*
D16*
X195305000Y-100522500D03*
X194805000Y-100522500D03*
X194305000Y-100522500D03*
X193805000Y-100522500D03*
X193305000Y-100522500D03*
X192805000Y-100522500D03*
X192305000Y-100522500D03*
X191805000Y-100522500D03*
X191305000Y-100522500D03*
X190805000Y-100522500D03*
X190305000Y-100522500D03*
X189805000Y-100522500D03*
X189305000Y-100522500D03*
X188805000Y-100522500D03*
X188305000Y-100522500D03*
X187805000Y-100522500D03*
X187305000Y-100522500D03*
X186805000Y-100522500D03*
X186305000Y-100522500D03*
X185805000Y-100522500D03*
X185305000Y-100522500D03*
X184805000Y-100522500D03*
X184305000Y-100522500D03*
X183805000Y-100522500D03*
X183305000Y-100522500D03*
%TD*%
D17*
%TO.C,C46*%
X135055000Y-101065000D03*
X135055000Y-100105000D03*
%TD*%
D18*
%TO.C,SW1*%
X130005000Y-124100000D03*
X130005000Y-128470000D03*
%TD*%
D19*
%TO.C,R20*%
X129345000Y-56085000D03*
X130365000Y-56085000D03*
%TD*%
D20*
%TO.C,D10*%
X183005000Y-96685000D03*
X183005000Y-93885000D03*
%TD*%
D21*
%TO.C,SW6*%
X211890000Y-90785000D03*
X207520000Y-90785000D03*
%TD*%
D22*
%TO.C,C23*%
X144725000Y-48785000D03*
X145685000Y-48785000D03*
%TD*%
D23*
%TO.C,R53*%
X197915000Y-99985000D03*
X196895000Y-99985000D03*
%TD*%
D10*
%TO.C,R25*%
X196405000Y-75410000D03*
X196405000Y-73760000D03*
%TD*%
D24*
%TO.C,R49*%
X190105000Y-45695000D03*
X190105000Y-44675000D03*
%TD*%
D14*
%TO.C,R55*%
X193005000Y-93275000D03*
X193005000Y-94295000D03*
%TD*%
D25*
%TO.C,D14*%
X185305000Y-87497500D03*
X185305000Y-89072500D03*
%TD*%
D26*
%TO.C,C31*%
X144005000Y-57410000D03*
X144005000Y-58960000D03*
%TD*%
D11*
%TO.C,R27*%
X205980000Y-80765000D03*
X207630000Y-80765000D03*
%TD*%
D27*
%TO.C,D1*%
X212005000Y-55585000D03*
X210430000Y-55585000D03*
%TD*%
D12*
%TO.C,R24*%
X199930000Y-73785000D03*
X198280000Y-73785000D03*
%TD*%
D14*
%TO.C,R42*%
X121930000Y-47320000D03*
X121930000Y-48340000D03*
%TD*%
D24*
%TO.C,R52*%
X192635000Y-50695000D03*
X192635000Y-49675000D03*
%TD*%
D28*
%TO.C,Q2*%
X186835000Y-49065000D03*
X186835000Y-50965000D03*
X188710000Y-50015000D03*
%TD*%
D17*
%TO.C,C17*%
X171805000Y-74265000D03*
X171805000Y-73305000D03*
%TD*%
D14*
%TO.C,R28*%
X193305000Y-72265000D03*
X193305000Y-73285000D03*
%TD*%
D17*
%TO.C,C43*%
X195305000Y-118545000D03*
X195305000Y-117585000D03*
%TD*%
D12*
%TO.C,R83*%
X129130000Y-72385000D03*
X127480000Y-72385000D03*
%TD*%
D27*
%TO.C,D3*%
X211992500Y-59785000D03*
X210417500Y-59785000D03*
%TD*%
D11*
%TO.C,R26*%
X205980000Y-78665000D03*
X207630000Y-78665000D03*
%TD*%
D25*
%TO.C,D13*%
X187205000Y-87510000D03*
X187205000Y-89085000D03*
%TD*%
D29*
%TO.C,R32*%
X190405000Y-81985000D03*
X190405000Y-71985000D03*
D30*
X182505000Y-70610000D03*
D29*
X174605000Y-71985000D03*
X174605000Y-81985000D03*
D30*
X182505000Y-83360000D03*
D31*
X189805000Y-79485000D03*
X189805000Y-74485000D03*
X189805000Y-76985000D03*
X175505000Y-79485000D03*
X175505000Y-74485000D03*
%TD*%
D32*
%TO.C,C39*%
X179685000Y-113185000D03*
X178725000Y-113185000D03*
%TD*%
D26*
%TO.C,C18*%
X140105000Y-57660000D03*
X140105000Y-59210000D03*
%TD*%
D24*
%TO.C,R51*%
X190205000Y-55295000D03*
X190205000Y-54275000D03*
%TD*%
D23*
%TO.C,R4*%
X142715000Y-104585000D03*
X141695000Y-104585000D03*
%TD*%
D21*
%TO.C,SW4*%
X212390000Y-50985000D03*
X208020000Y-50985000D03*
%TD*%
D11*
%TO.C,R62*%
X170070000Y-96515000D03*
X171720000Y-96515000D03*
%TD*%
D33*
%TO.C,C3*%
X150205000Y-102385000D03*
X148655000Y-102385000D03*
%TD*%
D34*
%TO.C,C38*%
X183305000Y-117705000D03*
X183305000Y-118665000D03*
%TD*%
D27*
%TO.C,FB1*%
X200792500Y-113385000D03*
X199217500Y-113385000D03*
%TD*%
D10*
%TO.C,R75*%
X119805000Y-69560000D03*
X119805000Y-67910000D03*
%TD*%
%TO.C,R30*%
X202905000Y-82790000D03*
X202905000Y-81140000D03*
%TD*%
D35*
%TO.C,U1001*%
X148355000Y-108022500D03*
X150255000Y-108022500D03*
X149305000Y-105747500D03*
%TD*%
D34*
%TO.C,C13*%
X193305000Y-74205000D03*
X193305000Y-75165000D03*
%TD*%
D19*
%TO.C,R3*%
X123095000Y-111685000D03*
X124115000Y-111685000D03*
%TD*%
D34*
%TO.C,C20*%
X141455000Y-57605000D03*
X141455000Y-58565000D03*
%TD*%
D23*
%TO.C,R65*%
X122845000Y-86285000D03*
X121825000Y-86285000D03*
%TD*%
D25*
%TO.C,D7*%
X127605000Y-31797500D03*
X127605000Y-33372500D03*
%TD*%
%TO.C,FB2*%
X194605000Y-96610000D03*
X194605000Y-98185000D03*
%TD*%
D34*
%TO.C,C15*%
X208805000Y-85685000D03*
X208805000Y-86645000D03*
%TD*%
D10*
%TO.C,R79*%
X125805000Y-72385000D03*
X125805000Y-70735000D03*
%TD*%
D34*
%TO.C,C8*%
X138005000Y-111305000D03*
X138005000Y-112265000D03*
%TD*%
D17*
%TO.C,C44*%
X137692500Y-101285000D03*
X137692500Y-100325000D03*
%TD*%
D36*
%TO.C,FB4*%
X177830000Y-102985000D03*
X179405000Y-102985000D03*
%TD*%
D37*
%TO.C,D1004*%
X138955000Y-69685000D03*
X135655000Y-69685000D03*
%TD*%
D38*
%TO.C,D8*%
X144105000Y-55485000D03*
X146905000Y-55485000D03*
%TD*%
D39*
%TO.C,C32*%
X206005000Y-61285000D03*
X206005000Y-59735000D03*
%TD*%
D23*
%TO.C,R71*%
X148145000Y-86685000D03*
X147125000Y-86685000D03*
%TD*%
D33*
%TO.C,C49*%
X128880000Y-76285000D03*
X127330000Y-76285000D03*
%TD*%
D32*
%TO.C,C5*%
X144765000Y-108385000D03*
X143805000Y-108385000D03*
%TD*%
D23*
%TO.C,R63*%
X137305000Y-91985000D03*
X136285000Y-91985000D03*
%TD*%
D14*
%TO.C,R46*%
X185105000Y-44665000D03*
X185105000Y-45685000D03*
%TD*%
D34*
%TO.C,C40*%
X193305000Y-117825000D03*
X193305000Y-118785000D03*
%TD*%
D11*
%TO.C,R60*%
X170180000Y-91485000D03*
X171830000Y-91485000D03*
%TD*%
D40*
%TO.C,U10*%
X135892500Y-106785000D03*
X137492500Y-106785000D03*
X135892500Y-105185000D03*
X137492500Y-105185000D03*
D41*
X134092500Y-109422500D03*
X134492500Y-109422500D03*
X134892500Y-109422500D03*
X135292500Y-109422500D03*
X135692500Y-109422500D03*
X136092500Y-109422500D03*
X136492500Y-109422500D03*
X136892500Y-109422500D03*
X137292500Y-109422500D03*
X137692500Y-109422500D03*
X138092500Y-109422500D03*
X138492500Y-109422500D03*
X138892500Y-109422500D03*
X139292500Y-109422500D03*
D42*
X140130000Y-108585000D03*
X140130000Y-108185000D03*
X140130000Y-107785000D03*
X140130000Y-107385000D03*
X140130000Y-106985000D03*
X140130000Y-106585000D03*
X140130000Y-106185000D03*
X140130000Y-105785000D03*
X140130000Y-105385000D03*
X140130000Y-104985000D03*
X140130000Y-104585000D03*
X140130000Y-104185000D03*
X140130000Y-103785000D03*
X140130000Y-103385000D03*
D41*
X139292500Y-102547500D03*
X138892500Y-102547500D03*
X138492500Y-102547500D03*
X138092500Y-102547500D03*
X137692500Y-102547500D03*
X137292500Y-102547500D03*
X136892500Y-102547500D03*
X136492500Y-102547500D03*
X136092500Y-102547500D03*
X135692500Y-102547500D03*
X135292500Y-102547500D03*
X134892500Y-102547500D03*
X134492500Y-102547500D03*
X134092500Y-102547500D03*
D42*
X133255000Y-103385000D03*
X133255000Y-103785000D03*
X133255000Y-104185000D03*
X133255000Y-104585000D03*
X133255000Y-104985000D03*
X133255000Y-105385000D03*
X133255000Y-105785000D03*
X133255000Y-106185000D03*
X133255000Y-106585000D03*
X133255000Y-106985000D03*
X133255000Y-107385000D03*
X133255000Y-107785000D03*
X133255000Y-108185000D03*
X133255000Y-108585000D03*
%TD*%
D43*
%TO.C,J1*%
X119982500Y-102685000D03*
X119982500Y-103485000D03*
D44*
X119982500Y-104635000D03*
X119982500Y-105635000D03*
X119982500Y-106135000D03*
X119982500Y-107135000D03*
D43*
X119982500Y-108285000D03*
X119982500Y-109085000D03*
X119982500Y-109085000D03*
X119982500Y-108285000D03*
D44*
X119982500Y-107635000D03*
X119982500Y-106635000D03*
X119982500Y-105135000D03*
X119982500Y-104135000D03*
D43*
X119982500Y-103485000D03*
X119982500Y-102685000D03*
%TD*%
%TO.C,J8*%
X119795000Y-49485000D03*
X119795000Y-50285000D03*
D44*
X119795000Y-51435000D03*
X119795000Y-52435000D03*
X119795000Y-52935000D03*
X119795000Y-53935000D03*
D43*
X119795000Y-55085000D03*
X119795000Y-55885000D03*
X119795000Y-55885000D03*
X119795000Y-55085000D03*
D44*
X119795000Y-54435000D03*
X119795000Y-53435000D03*
X119795000Y-51935000D03*
X119795000Y-50935000D03*
D43*
X119795000Y-50285000D03*
X119795000Y-49485000D03*
%TD*%
D11*
%TO.C,R76*%
X121480000Y-67935000D03*
X123130000Y-67935000D03*
%TD*%
D33*
%TO.C,C1*%
X150180000Y-103985000D03*
X148630000Y-103985000D03*
%TD*%
D26*
%TO.C,C7*%
X139305000Y-111585000D03*
X139305000Y-113135000D03*
%TD*%
D19*
%TO.C,R57*%
X190595000Y-96385000D03*
X191615000Y-96385000D03*
%TD*%
D45*
%TO.C,C22*%
X145030000Y-47485000D03*
X146580000Y-47485000D03*
%TD*%
D28*
%TO.C,Q1*%
X186705000Y-43460000D03*
X186705000Y-45360000D03*
X188580000Y-44410000D03*
%TD*%
D46*
%TO.C,Y1*%
X145905000Y-106785000D03*
X145905000Y-104585000D03*
X144205000Y-104585000D03*
X144205000Y-106785000D03*
%TD*%
D12*
%TO.C,R23*%
X203530000Y-73785000D03*
X201880000Y-73785000D03*
%TD*%
D11*
%TO.C,R36*%
X199505000Y-86440000D03*
X201155000Y-86440000D03*
%TD*%
D19*
%TO.C,R18*%
X204495000Y-98185000D03*
X205515000Y-98185000D03*
%TD*%
D22*
%TO.C,C6*%
X143725000Y-102985000D03*
X144685000Y-102985000D03*
%TD*%
D21*
%TO.C,SW7*%
X211690000Y-94385000D03*
X207320000Y-94385000D03*
%TD*%
D23*
%TO.C,R64*%
X122845000Y-81285000D03*
X121825000Y-81285000D03*
%TD*%
D24*
%TO.C,R29*%
X193205000Y-80895000D03*
X193205000Y-79875000D03*
%TD*%
D33*
%TO.C,C4*%
X150280000Y-109885000D03*
X148730000Y-109885000D03*
%TD*%
D37*
%TO.C,D1005*%
X138955000Y-72285000D03*
X135655000Y-72285000D03*
%TD*%
D26*
%TO.C,C25*%
X148505000Y-55010000D03*
X148505000Y-56560000D03*
%TD*%
D24*
%TO.C,R9*%
X124005000Y-38585000D03*
X124005000Y-37565000D03*
%TD*%
D45*
%TO.C,C26*%
X152305000Y-53985000D03*
X153855000Y-53985000D03*
%TD*%
D36*
%TO.C,D4*%
X115705000Y-119785000D03*
X117280000Y-119785000D03*
%TD*%
D47*
%TO.C,U5*%
X135790000Y-50407500D03*
X135790000Y-51807500D03*
X135790000Y-53207500D03*
X135790000Y-54607500D03*
X137190000Y-50407500D03*
X137190000Y-51807500D03*
X137190000Y-53207500D03*
X137190000Y-54607500D03*
X138590000Y-50407500D03*
X138590000Y-51807500D03*
X138590000Y-53207500D03*
X138590000Y-54607500D03*
X139990000Y-50407500D03*
X139990000Y-51807500D03*
X139990000Y-53207500D03*
X139990000Y-54607500D03*
D48*
X134452500Y-49757500D03*
X134452500Y-50257500D03*
X134452500Y-50757500D03*
X134452500Y-51257500D03*
X134452500Y-51757500D03*
X134452500Y-52257500D03*
X134452500Y-52757500D03*
X134452500Y-53257500D03*
X134452500Y-53757500D03*
X134452500Y-54257500D03*
X134452500Y-54757500D03*
X134452500Y-55257500D03*
D49*
X135140000Y-55945000D03*
X135640000Y-55945000D03*
X136140000Y-55945000D03*
X136640000Y-55945000D03*
X137140000Y-55945000D03*
X137640000Y-55945000D03*
X138140000Y-55945000D03*
X138640000Y-55945000D03*
X139140000Y-55945000D03*
X139640000Y-55945000D03*
X140140000Y-55945000D03*
X140640000Y-55945000D03*
D48*
X141327500Y-55257500D03*
X141327500Y-54757500D03*
X141327500Y-54257500D03*
X141327500Y-53757500D03*
X141327500Y-53257500D03*
X141327500Y-52757500D03*
X141327500Y-52257500D03*
X141327500Y-51757500D03*
X141327500Y-51257500D03*
X141327500Y-50757500D03*
X141327500Y-50257500D03*
X141327500Y-49757500D03*
D49*
X140640000Y-49070000D03*
X140140000Y-49070000D03*
X139640000Y-49070000D03*
X139140000Y-49070000D03*
X138640000Y-49070000D03*
X138140000Y-49070000D03*
X137640000Y-49070000D03*
X137140000Y-49070000D03*
X136640000Y-49070000D03*
X136140000Y-49070000D03*
X135640000Y-49070000D03*
X135140000Y-49070000D03*
%TD*%
D19*
%TO.C,R43*%
X122950000Y-57632500D03*
X123970000Y-57632500D03*
%TD*%
D50*
%TO.C,J7*%
X210705001Y-105627500D03*
X206505002Y-105627500D03*
X210705001Y-106262500D03*
X206505002Y-106262500D03*
X210705001Y-106897500D03*
X206505002Y-106897500D03*
X210705001Y-107532500D03*
X206505002Y-107532500D03*
X210705001Y-108167500D03*
X206505002Y-108167500D03*
X210705001Y-108802500D03*
X206505002Y-108802500D03*
X210705001Y-109437500D03*
X206505002Y-109437500D03*
X210705001Y-110072500D03*
X206505002Y-110072500D03*
X210705001Y-110707500D03*
X206505002Y-110707500D03*
X210705001Y-111342500D03*
X206505002Y-111342500D03*
D51*
X208605000Y-102575008D03*
X208605000Y-114394992D03*
%TD*%
D13*
%TO.C,R77*%
X119705000Y-71135000D03*
X119705000Y-72785000D03*
%TD*%
D32*
%TO.C,C21*%
X132885000Y-48885000D03*
X131925000Y-48885000D03*
%TD*%
D45*
%TO.C,C30*%
X152300000Y-48257500D03*
X153850000Y-48257500D03*
%TD*%
D11*
%TO.C,R33*%
X199505000Y-81140000D03*
X201155000Y-81140000D03*
%TD*%
D25*
%TO.C,D6*%
X130705000Y-31797500D03*
X130705000Y-33372500D03*
%TD*%
D36*
%TO.C,D5*%
X116217500Y-38985000D03*
X117792500Y-38985000D03*
%TD*%
D10*
%TO.C,R31*%
X202905000Y-86290000D03*
X202905000Y-84640000D03*
%TD*%
D28*
%TO.C,Q3*%
X186730000Y-53035000D03*
X186730000Y-54935000D03*
X188605000Y-53985000D03*
%TD*%
D12*
%TO.C,R80*%
X129130000Y-68985000D03*
X127480000Y-68985000D03*
%TD*%
D21*
%TO.C,SW3*%
X212390000Y-45785000D03*
X208020000Y-45785000D03*
%TD*%
D12*
%TO.C,R82*%
X129130000Y-70785000D03*
X127480000Y-70785000D03*
%TD*%
D52*
%TO.C,U2*%
X123687500Y-109872500D03*
X124957500Y-109872500D03*
X126227500Y-109872500D03*
X127497500Y-109872500D03*
X127497500Y-102697500D03*
X126227500Y-102697500D03*
X124957500Y-102697500D03*
X123687500Y-102697500D03*
%TD*%
D23*
%TO.C,R69*%
X125605000Y-81547500D03*
X124585000Y-81547500D03*
%TD*%
D27*
%TO.C,D2*%
X211892500Y-57685000D03*
X210317500Y-57685000D03*
%TD*%
D23*
%TO.C,R67*%
X144095000Y-81585000D03*
X143075000Y-81585000D03*
%TD*%
D33*
%TO.C,C47*%
X140280000Y-91985000D03*
X138730000Y-91985000D03*
%TD*%
D21*
%TO.C,SW8*%
X211490000Y-98085000D03*
X207120000Y-98085000D03*
%TD*%
D32*
%TO.C,C48*%
X129005000Y-74835000D03*
X128045000Y-74835000D03*
%TD*%
D22*
%TO.C,C35*%
X198845000Y-103185000D03*
X199805000Y-103185000D03*
%TD*%
D25*
%TO.C,D15*%
X189105000Y-87510000D03*
X189105000Y-89085000D03*
%TD*%
D19*
%TO.C,R17*%
X204505000Y-94485000D03*
X205525000Y-94485000D03*
%TD*%
%TO.C,R68*%
X124575000Y-86347500D03*
X125595000Y-86347500D03*
%TD*%
D53*
%TO.C,Q7*%
X147845000Y-83185000D03*
X145945000Y-83185000D03*
X146895000Y-85060000D03*
%TD*%
%TO.C,Q5*%
X143785000Y-83210000D03*
X141885000Y-83210000D03*
X142835000Y-85085000D03*
%TD*%
D36*
%TO.C,D11*%
X115717500Y-93585000D03*
X117292500Y-93585000D03*
%TD*%
D32*
%TO.C,C24*%
X125085000Y-46985000D03*
X124125000Y-46985000D03*
%TD*%
D13*
%TO.C,R78*%
X125805000Y-67285000D03*
X125805000Y-68935000D03*
%TD*%
D45*
%TO.C,C51*%
X140755000Y-66735000D03*
X142305000Y-66735000D03*
%TD*%
D53*
%TO.C,Q4*%
X122485000Y-82847500D03*
X120585000Y-82847500D03*
X121535000Y-84722500D03*
%TD*%
D11*
%TO.C,R35*%
X199505000Y-84640000D03*
X201155000Y-84640000D03*
%TD*%
D19*
%TO.C,R16*%
X204695000Y-90885000D03*
X205715000Y-90885000D03*
%TD*%
D14*
%TO.C,R47*%
X185305000Y-50255000D03*
X185305000Y-51275000D03*
%TD*%
D54*
%TO.C,FB3*%
X192005000Y-119672500D03*
X192005000Y-118097500D03*
%TD*%
D55*
%TO.C,Q6*%
X124935000Y-84885000D03*
X126835000Y-84885000D03*
X125885000Y-83010000D03*
%TD*%
D35*
%TO.C,U7*%
X152335000Y-52262500D03*
X153285000Y-52262500D03*
X154235000Y-52262500D03*
X154235000Y-49987500D03*
X152335000Y-49987500D03*
%TD*%
D17*
%TO.C,C14*%
X193205000Y-78865000D03*
X193205000Y-77905000D03*
%TD*%
%TO.C,C34*%
X193305000Y-98465000D03*
X193305000Y-97505000D03*
%TD*%
D32*
%TO.C,C2*%
X124105000Y-100985000D03*
X123145000Y-100985000D03*
%TD*%
D56*
%TO.C,U1*%
X145905000Y-68935000D03*
X143605000Y-68935000D03*
D57*
X143605000Y-75235000D03*
D56*
X141305000Y-68935000D03*
%TD*%
D34*
%TO.C,C27*%
X146905000Y-57305000D03*
X146905000Y-58265000D03*
%TD*%
D22*
%TO.C,C28*%
X144425000Y-51685000D03*
X145385000Y-51685000D03*
%TD*%
D52*
%TO.C,U6*%
X123550000Y-55922500D03*
X124820000Y-55922500D03*
X126090000Y-55922500D03*
X127360000Y-55922500D03*
X127360000Y-48747500D03*
X126090000Y-48747500D03*
X124820000Y-48747500D03*
X123550000Y-48747500D03*
%TD*%
D32*
%TO.C,C9*%
X131285000Y-106825000D03*
X130325000Y-106825000D03*
%TD*%
%TO.C,C42*%
X179585000Y-107285000D03*
X178625000Y-107285000D03*
%TD*%
D24*
%TO.C,R37*%
X171805000Y-76295000D03*
X171805000Y-75275000D03*
%TD*%
D23*
%TO.C,R70*%
X148115000Y-81585000D03*
X147095000Y-81585000D03*
%TD*%
D33*
%TO.C,C19*%
X132580000Y-47685000D03*
X131030000Y-47685000D03*
%TD*%
D23*
%TO.C,R72*%
X141815000Y-81585000D03*
X140795000Y-81585000D03*
%TD*%
D19*
%TO.C,R56*%
X190595000Y-97385000D03*
X191615000Y-97385000D03*
%TD*%
D22*
%TO.C,C33*%
X198925000Y-112185000D03*
X199885000Y-112185000D03*
%TD*%
D12*
%TO.C,R81*%
X129130000Y-67385000D03*
X127480000Y-67385000D03*
%TD*%
D11*
%TO.C,R74*%
X118780000Y-65935000D03*
X120430000Y-65935000D03*
%TD*%
D14*
%TO.C,R54*%
X192005000Y-93275000D03*
X192005000Y-94295000D03*
%TD*%
D19*
%TO.C,R19*%
X205595000Y-45685000D03*
X206615000Y-45685000D03*
%TD*%
D11*
%TO.C,R73*%
X115605000Y-65985000D03*
X117255000Y-65985000D03*
%TD*%
D54*
%TO.C,D12*%
X132505000Y-121272500D03*
X132505000Y-119697500D03*
%TD*%
D24*
%TO.C,R10*%
X149905000Y-59105000D03*
X149905000Y-58085000D03*
%TD*%
%TO.C,R50*%
X190205000Y-51285000D03*
X190205000Y-50265000D03*
%TD*%
D11*
%TO.C,R59*%
X170180000Y-88915000D03*
X171830000Y-88915000D03*
%TD*%
D58*
%TO.C,U11*%
X130355000Y-86777500D03*
X131635000Y-86777500D03*
X132895000Y-86777500D03*
X134165000Y-86777500D03*
X135445000Y-86777500D03*
X136715000Y-86777500D03*
X137975000Y-86777500D03*
X139255000Y-86777500D03*
X139255000Y-81297500D03*
X137975000Y-81297500D03*
X136715000Y-81297500D03*
X135445000Y-81297500D03*
X134165000Y-81297500D03*
X132895000Y-81297500D03*
X131635000Y-81297500D03*
X130355000Y-81297500D03*
%TD*%
D17*
%TO.C,C36*%
X186805000Y-98565000D03*
X186805000Y-97605000D03*
%TD*%
D18*
%TO.C,SW2*%
X124005000Y-31500000D03*
X124005000Y-35870000D03*
%TD*%
D23*
%TO.C,R58*%
X197925000Y-98885000D03*
X196905000Y-98885000D03*
%TD*%
D25*
%TO.C,D9*%
X197205000Y-95597500D03*
X197205000Y-97172500D03*
%TD*%
D22*
%TO.C,C37*%
X182425000Y-98185000D03*
X183385000Y-98185000D03*
%TD*%
D24*
%TO.C,R44*%
X121960000Y-57642500D03*
X121960000Y-56622500D03*
%TD*%
D23*
%TO.C,R66*%
X144115000Y-86685000D03*
X143095000Y-86685000D03*
%TD*%
D26*
%TO.C,C16*%
X210105000Y-85890000D03*
X210105000Y-87440000D03*
%TD*%
D11*
%TO.C,R61*%
X170070000Y-93915000D03*
X171720000Y-93915000D03*
%TD*%
D37*
%TO.C,D1003*%
X138955000Y-67185000D03*
X135655000Y-67185000D03*
%TD*%
D18*
%TO.C,SW5*%
X124305000Y-128570000D03*
X124305000Y-124200000D03*
%TD*%
D11*
%TO.C,R34*%
X199505000Y-82940000D03*
X201155000Y-82940000D03*
%TD*%
D17*
%TO.C,C45*%
X134055000Y-101065000D03*
X134055000Y-100105000D03*
%TD*%
D45*
%TO.C,C50*%
X144955000Y-66835000D03*
X146505000Y-66835000D03*
%TD*%
D32*
%TO.C,C41*%
X179685000Y-104185000D03*
X178725000Y-104185000D03*
%TD*%
D39*
%TO.C,C10*%
X142005000Y-102285000D03*
X142005000Y-100735000D03*
%TD*%
D24*
%TO.C,R12*%
X124305000Y-122695000D03*
X124305000Y-121675000D03*
%TD*%
D19*
%TO.C,R38*%
X131145000Y-49935000D03*
X132165000Y-49935000D03*
%TD*%
D45*
%TO.C,C29*%
X144705000Y-52985000D03*
X146255000Y-52985000D03*
%TD*%
D23*
%TO.C,R87*%
X146705000Y-111885000D03*
X145685000Y-111885000D03*
%TD*%
M02*
