%TF.GenerationSoftware,KiCad,Pcbnew,9.0.0*%
%TF.CreationDate,2025-06-09T15:05:36+02:00*%
%TF.ProjectId,stm32-fpga-bootloader,73746d33-322d-4667-9067-612d626f6f74,rev?*%
%TF.SameCoordinates,Original*%
%TF.FileFunction,Copper,L1,Top*%
%TF.FilePolarity,Positive*%
%FSLAX46Y46*%
G04 Gerber Fmt 4.6, Leading zero omitted, Abs format (unit mm)*
G04 Created by KiCad (PCBNEW 9.0.0) date 2025-06-09 15:05:36*
%MOMM*%
%LPD*%
G01*
G04 APERTURE LIST*
G04 Aperture macros list*
%AMRoundRect*
0 Rectangle with rounded corners*
0 $1 Rounding radius*
0 $2 $3 $4 $5 $6 $7 $8 $9 X,Y pos of 4 corners*
0 Add a 4 corners polygon primitive as box body*
4,1,4,$2,$3,$4,$5,$6,$7,$8,$9,$2,$3,0*
0 Add four circle primitives for the rounded corners*
1,1,$1+$1,$2,$3*
1,1,$1+$1,$4,$5*
1,1,$1+$1,$6,$7*
1,1,$1+$1,$8,$9*
0 Add four rect primitives between the rounded corners*
20,1,$1+$1,$2,$3,$4,$5,0*
20,1,$1+$1,$4,$5,$6,$7,0*
20,1,$1+$1,$6,$7,$8,$9,0*
20,1,$1+$1,$8,$9,$2,$3,0*%
%AMFreePoly0*
4,1,37,0.603843,0.796157,0.639018,0.796157,0.711114,0.766294,0.766294,0.711114,0.796157,0.639018,0.796157,0.603843,0.800000,0.600000,0.800000,-0.600000,0.796157,-0.603843,0.796157,-0.639018,0.766294,-0.711114,0.711114,-0.766294,0.639018,-0.796157,0.603843,-0.796157,0.600000,-0.800000,0.000000,-0.800000,0.000000,-0.796148,-0.078414,-0.796148,-0.232228,-0.765552,-0.377117,-0.705537,
-0.507515,-0.618408,-0.618408,-0.507515,-0.705537,-0.377117,-0.765552,-0.232228,-0.796148,-0.078414,-0.796148,0.078414,-0.765552,0.232228,-0.705537,0.377117,-0.618408,0.507515,-0.507515,0.618408,-0.377117,0.705537,-0.232228,0.765552,-0.078414,0.796148,0.000000,0.796148,0.000000,0.800000,0.600000,0.800000,0.603843,0.796157,0.603843,0.796157,$1*%
%AMFreePoly1*
4,1,37,0.000000,0.796148,0.078414,0.796148,0.232228,0.765552,0.377117,0.705537,0.507515,0.618408,0.618408,0.507515,0.705537,0.377117,0.765552,0.232228,0.796148,0.078414,0.796148,-0.078414,0.765552,-0.232228,0.705537,-0.377117,0.618408,-0.507515,0.507515,-0.618408,0.377117,-0.705537,0.232228,-0.765552,0.078414,-0.796148,0.000000,-0.796148,0.000000,-0.800000,-0.600000,-0.800000,
-0.603843,-0.796157,-0.639018,-0.796157,-0.711114,-0.766294,-0.766294,-0.711114,-0.796157,-0.639018,-0.796157,-0.603843,-0.800000,-0.600000,-0.800000,0.600000,-0.796157,0.603843,-0.796157,0.639018,-0.766294,0.711114,-0.711114,0.766294,-0.639018,0.796157,-0.603843,0.796157,-0.600000,0.800000,0.000000,0.800000,0.000000,0.796148,0.000000,0.796148,$1*%
G04 Aperture macros list end*
%TA.AperFunction,SMDPad,CuDef*%
%ADD10RoundRect,0.200000X0.275000X-0.200000X0.275000X0.200000X-0.275000X0.200000X-0.275000X-0.200000X0*%
%TD*%
%TA.AperFunction,SMDPad,CuDef*%
%ADD11RoundRect,0.200000X-0.200000X-0.275000X0.200000X-0.275000X0.200000X0.275000X-0.200000X0.275000X0*%
%TD*%
%TA.AperFunction,SMDPad,CuDef*%
%ADD12RoundRect,0.200000X0.200000X0.275000X-0.200000X0.275000X-0.200000X-0.275000X0.200000X-0.275000X0*%
%TD*%
%TA.AperFunction,SMDPad,CuDef*%
%ADD13RoundRect,0.200000X-0.275000X0.200000X-0.275000X-0.200000X0.275000X-0.200000X0.275000X0.200000X0*%
%TD*%
%TA.AperFunction,SMDPad,CuDef*%
%ADD14RoundRect,0.135000X-0.185000X0.135000X-0.185000X-0.135000X0.185000X-0.135000X0.185000X0.135000X0*%
%TD*%
%TA.AperFunction,SMDPad,CuDef*%
%ADD15RoundRect,0.075000X-0.662500X-0.075000X0.662500X-0.075000X0.662500X0.075000X-0.662500X0.075000X0*%
%TD*%
%TA.AperFunction,SMDPad,CuDef*%
%ADD16RoundRect,0.075000X-0.075000X-0.662500X0.075000X-0.662500X0.075000X0.662500X-0.075000X0.662500X0*%
%TD*%
%TA.AperFunction,SMDPad,CuDef*%
%ADD17RoundRect,0.140000X0.170000X-0.140000X0.170000X0.140000X-0.170000X0.140000X-0.170000X-0.140000X0*%
%TD*%
%TA.AperFunction,SMDPad,CuDef*%
%ADD18R,1.360000X1.230000*%
%TD*%
%TA.AperFunction,SMDPad,CuDef*%
%ADD19RoundRect,0.135000X-0.135000X-0.185000X0.135000X-0.185000X0.135000X0.185000X-0.135000X0.185000X0*%
%TD*%
%TA.AperFunction,SMDPad,CuDef*%
%ADD20RoundRect,0.250000X0.300000X-0.300000X0.300000X0.300000X-0.300000X0.300000X-0.300000X-0.300000X0*%
%TD*%
%TA.AperFunction,SMDPad,CuDef*%
%ADD21R,1.230000X1.360000*%
%TD*%
%TA.AperFunction,SMDPad,CuDef*%
%ADD22RoundRect,0.140000X-0.140000X-0.170000X0.140000X-0.170000X0.140000X0.170000X-0.140000X0.170000X0*%
%TD*%
%TA.AperFunction,ComponentPad*%
%ADD23RoundRect,0.250001X0.949999X-0.949999X0.949999X0.949999X-0.949999X0.949999X-0.949999X-0.949999X0*%
%TD*%
%TA.AperFunction,ComponentPad*%
%ADD24C,2.400000*%
%TD*%
%TA.AperFunction,SMDPad,CuDef*%
%ADD25RoundRect,0.135000X0.135000X0.185000X-0.135000X0.185000X-0.135000X-0.185000X0.135000X-0.185000X0*%
%TD*%
%TA.AperFunction,SMDPad,CuDef*%
%ADD26RoundRect,0.135000X0.185000X-0.135000X0.185000X0.135000X-0.185000X0.135000X-0.185000X-0.135000X0*%
%TD*%
%TA.AperFunction,SMDPad,CuDef*%
%ADD27RoundRect,0.218750X-0.256250X0.218750X-0.256250X-0.218750X0.256250X-0.218750X0.256250X0.218750X0*%
%TD*%
%TA.AperFunction,ComponentPad*%
%ADD28RoundRect,0.375000X0.375000X-0.375000X0.375000X0.375000X-0.375000X0.375000X-0.375000X-0.375000X0*%
%TD*%
%TA.AperFunction,ComponentPad*%
%ADD29C,1.500000*%
%TD*%
%TA.AperFunction,SMDPad,CuDef*%
%ADD30RoundRect,0.225000X-0.250000X0.225000X-0.250000X-0.225000X0.250000X-0.225000X0.250000X0.225000X0*%
%TD*%
%TA.AperFunction,SMDPad,CuDef*%
%ADD31RoundRect,0.218750X0.218750X0.256250X-0.218750X0.256250X-0.218750X-0.256250X0.218750X-0.256250X0*%
%TD*%
%TA.AperFunction,SMDPad,CuDef*%
%ADD32RoundRect,0.150000X-0.587500X-0.150000X0.587500X-0.150000X0.587500X0.150000X-0.587500X0.150000X0*%
%TD*%
%TA.AperFunction,SMDPad,CuDef*%
%ADD33R,3.200000X2.500000*%
%TD*%
%TA.AperFunction,SMDPad,CuDef*%
%ADD34R,4.000000X3.750000*%
%TD*%
%TA.AperFunction,SMDPad,CuDef*%
%ADD35R,2.400000X1.300000*%
%TD*%
%TA.AperFunction,SMDPad,CuDef*%
%ADD36RoundRect,0.140000X0.140000X0.170000X-0.140000X0.170000X-0.140000X-0.170000X0.140000X-0.170000X0*%
%TD*%
%TA.AperFunction,SMDPad,CuDef*%
%ADD37RoundRect,0.225000X0.225000X0.250000X-0.225000X0.250000X-0.225000X-0.250000X0.225000X-0.250000X0*%
%TD*%
%TA.AperFunction,SMDPad,CuDef*%
%ADD38RoundRect,0.140000X-0.170000X0.140000X-0.170000X-0.140000X0.170000X-0.140000X0.170000X0.140000X0*%
%TD*%
%TA.AperFunction,ComponentPad*%
%ADD39RoundRect,0.200000X0.600000X-0.600000X0.600000X0.600000X-0.600000X0.600000X-0.600000X-0.600000X0*%
%TD*%
%TA.AperFunction,ComponentPad*%
%ADD40C,1.600000*%
%TD*%
%TA.AperFunction,ComponentPad*%
%ADD41FreePoly0,90.000000*%
%TD*%
%TA.AperFunction,ComponentPad*%
%ADD42FreePoly1,90.000000*%
%TD*%
%TA.AperFunction,SMDPad,CuDef*%
%ADD43RoundRect,0.150000X0.150000X-0.512500X0.150000X0.512500X-0.150000X0.512500X-0.150000X-0.512500X0*%
%TD*%
%TA.AperFunction,SMDPad,CuDef*%
%ADD44RoundRect,0.218750X-0.218750X-0.256250X0.218750X-0.256250X0.218750X0.256250X-0.218750X0.256250X0*%
%TD*%
%TA.AperFunction,SMDPad,CuDef*%
%ADD45RoundRect,0.225000X0.225000X0.375000X-0.225000X0.375000X-0.225000X-0.375000X0.225000X-0.375000X0*%
%TD*%
%TA.AperFunction,SMDPad,CuDef*%
%ADD46RoundRect,0.250000X-0.300000X-0.300000X0.300000X-0.300000X0.300000X0.300000X-0.300000X0.300000X0*%
%TD*%
%TA.AperFunction,SMDPad,CuDef*%
%ADD47RoundRect,0.225000X0.250000X-0.225000X0.250000X0.225000X-0.250000X0.225000X-0.250000X-0.225000X0*%
%TD*%
%TA.AperFunction,ComponentPad*%
%ADD48R,1.700000X1.700000*%
%TD*%
%TA.AperFunction,ComponentPad*%
%ADD49O,1.700000X1.700000*%
%TD*%
%TA.AperFunction,SMDPad,CuDef*%
%ADD50RoundRect,0.050000X0.050000X-0.387500X0.050000X0.387500X-0.050000X0.387500X-0.050000X-0.387500X0*%
%TD*%
%TA.AperFunction,SMDPad,CuDef*%
%ADD51RoundRect,0.050000X0.387500X-0.050000X0.387500X0.050000X-0.387500X0.050000X-0.387500X-0.050000X0*%
%TD*%
%TA.AperFunction,HeatsinkPad*%
%ADD52R,3.200000X3.200000*%
%TD*%
%TA.AperFunction,SMDPad,CuDef*%
%ADD53R,1.240000X0.600000*%
%TD*%
%TA.AperFunction,SMDPad,CuDef*%
%ADD54R,1.240000X0.300000*%
%TD*%
%TA.AperFunction,HeatsinkPad*%
%ADD55O,2.100000X1.000000*%
%TD*%
%TA.AperFunction,HeatsinkPad*%
%ADD56O,1.800000X1.000000*%
%TD*%
%TA.AperFunction,SMDPad,CuDef*%
%ADD57RoundRect,0.225000X-0.225000X-0.250000X0.225000X-0.250000X0.225000X0.250000X-0.225000X0.250000X0*%
%TD*%
%TA.AperFunction,SMDPad,CuDef*%
%ADD58R,1.200000X1.400000*%
%TD*%
%TA.AperFunction,SMDPad,CuDef*%
%ADD59R,1.000000X1.000000*%
%TD*%
%TA.AperFunction,SMDPad,CuDef*%
%ADD60RoundRect,0.062500X-0.375000X-0.062500X0.375000X-0.062500X0.375000X0.062500X-0.375000X0.062500X0*%
%TD*%
%TA.AperFunction,SMDPad,CuDef*%
%ADD61RoundRect,0.062500X-0.062500X-0.375000X0.062500X-0.375000X0.062500X0.375000X-0.062500X0.375000X0*%
%TD*%
%TA.AperFunction,HeatsinkPad*%
%ADD62R,5.600000X5.600000*%
%TD*%
%TA.AperFunction,SMDPad,CuDef*%
%ADD63R,1.800000X0.350000*%
%TD*%
%TA.AperFunction,SMDPad,CuDef*%
%ADD64R,2.000000X2.500000*%
%TD*%
%TA.AperFunction,SMDPad,CuDef*%
%ADD65RoundRect,0.162500X0.162500X-0.650000X0.162500X0.650000X-0.162500X0.650000X-0.162500X-0.650000X0*%
%TD*%
%TA.AperFunction,SMDPad,CuDef*%
%ADD66RoundRect,0.150000X-0.150000X0.587500X-0.150000X-0.587500X0.150000X-0.587500X0.150000X0.587500X0*%
%TD*%
%TA.AperFunction,SMDPad,CuDef*%
%ADD67RoundRect,0.218750X0.256250X-0.218750X0.256250X0.218750X-0.256250X0.218750X-0.256250X-0.218750X0*%
%TD*%
%TA.AperFunction,SMDPad,CuDef*%
%ADD68RoundRect,0.150000X0.150000X-0.587500X0.150000X0.587500X-0.150000X0.587500X-0.150000X-0.587500X0*%
%TD*%
%TA.AperFunction,ComponentPad*%
%ADD69RoundRect,0.250000X0.550000X0.550000X-0.550000X0.550000X-0.550000X-0.550000X0.550000X-0.550000X0*%
%TD*%
%TA.AperFunction,SMDPad,CuDef*%
%ADD70RoundRect,0.375000X-0.375000X0.625000X-0.375000X-0.625000X0.375000X-0.625000X0.375000X0.625000X0*%
%TD*%
%TA.AperFunction,SMDPad,CuDef*%
%ADD71RoundRect,0.500000X-1.400000X0.500000X-1.400000X-0.500000X1.400000X-0.500000X1.400000X0.500000X0*%
%TD*%
%TA.AperFunction,SMDPad,CuDef*%
%ADD72O,0.600000X1.970000*%
%TD*%
%TA.AperFunction,ViaPad*%
%ADD73C,0.450000*%
%TD*%
%TA.AperFunction,Conductor*%
%ADD74C,0.200000*%
%TD*%
%TA.AperFunction,Conductor*%
%ADD75C,0.300000*%
%TD*%
G04 APERTURE END LIST*
D10*
%TO.P,R86,1*%
%TO.N,/jtag-prog/CLK*%
X189105000Y-91800000D03*
%TO.P,R86,2*%
%TO.N,Net-(D15-A)*%
X189105000Y-90150000D03*
%TD*%
D11*
%TO.P,R45,1*%
%TO.N,Net-(U5D-VCCPLL)*%
X144680000Y-50385000D03*
%TO.P,R45,2*%
%TO.N,+1V2*%
X146330000Y-50385000D03*
%TD*%
D10*
%TO.P,R41,1*%
%TO.N,/ice40-for-gpio/ICE_LED2*%
X127605000Y-37410000D03*
%TO.P,R41,2*%
%TO.N,Net-(D7-A)*%
X127605000Y-35760000D03*
%TD*%
%TO.P,R40,1*%
%TO.N,/ice40-for-gpio/ICE_LED1*%
X130705000Y-37360000D03*
%TO.P,R40,2*%
%TO.N,Net-(D6-A)*%
X130705000Y-35710000D03*
%TD*%
D12*
%TO.P,R39,1*%
%TO.N,+3.3V*%
X121330000Y-38985000D03*
%TO.P,R39,2*%
%TO.N,/ICE_CDONE*%
X119680000Y-38985000D03*
%TD*%
D11*
%TO.P,R22,1*%
%TO.N,/D+*%
X129330000Y-54785000D03*
%TO.P,R22,2*%
%TO.N,/ICE_USB_P*%
X130980000Y-54785000D03*
%TD*%
%TO.P,R21,1*%
%TO.N,/D-*%
X129330000Y-53185000D03*
%TO.P,R21,2*%
%TO.N,/ICE_USB_N*%
X130980000Y-53185000D03*
%TD*%
D10*
%TO.P,R15,1*%
%TO.N,/lcmxo2-cpld-block/PL3D*%
X185305000Y-91810000D03*
%TO.P,R15,2*%
%TO.N,Net-(D14-A)*%
X185305000Y-90160000D03*
%TD*%
%TO.P,R14,1*%
%TO.N,/lcmxo2-cpld-block/PL3C*%
X187205000Y-91810000D03*
%TO.P,R14,2*%
%TO.N,Net-(D13-A)*%
X187205000Y-90160000D03*
%TD*%
D13*
%TO.P,R13,1*%
%TO.N,/jtag-prog/LED2*%
X134405000Y-111370000D03*
%TO.P,R13,2*%
%TO.N,Net-(D12-A)*%
X134405000Y-113020000D03*
%TD*%
D11*
%TO.P,R11,1*%
%TO.N,/IOT_50b*%
X207680000Y-59705000D03*
%TO.P,R11,2*%
%TO.N,Net-(D3-A)*%
X209330000Y-59705000D03*
%TD*%
%TO.P,R8,1*%
%TO.N,/LED1*%
X207632500Y-57705000D03*
%TO.P,R8,2*%
%TO.N,Net-(D2-A)*%
X209282500Y-57705000D03*
%TD*%
%TO.P,R7,1*%
%TO.N,+3.3V*%
X207692500Y-55585000D03*
%TO.P,R7,2*%
%TO.N,Net-(D1-A)*%
X209342500Y-55585000D03*
%TD*%
D12*
%TO.P,R6,1*%
%TO.N,+3.3V_JTAG*%
X120817500Y-93585000D03*
%TO.P,R6,2*%
%TO.N,Net-(D11-A)*%
X119167500Y-93585000D03*
%TD*%
%TO.P,R5,1*%
%TO.N,/jtag-prog/LED1*%
X120427500Y-119885000D03*
%TO.P,R5,2*%
%TO.N,Net-(D4-A)*%
X118777500Y-119885000D03*
%TD*%
D11*
%TO.P,R2,1*%
%TO.N,/jtag-prog/D+*%
X129980000Y-105285000D03*
%TO.P,R2,2*%
%TO.N,/jtag-prog/USB_P*%
X131630000Y-105285000D03*
%TD*%
%TO.P,R1,1*%
%TO.N,/jtag-prog/D-*%
X129980000Y-104085000D03*
%TO.P,R1,2*%
%TO.N,/jtag-prog/USB_N*%
X131630000Y-104085000D03*
%TD*%
D14*
%TO.P,R48,1*%
%TO.N,+3.3V*%
X185205000Y-54210000D03*
%TO.P,R48,2*%
%TO.N,/MATRIX_SPI_MOSI*%
X185205000Y-55230000D03*
%TD*%
D15*
%TO.P,U9,1,PL2C/L_GPLLT_IN*%
%TO.N,/lcmxo2-cpld-block/PL2C{slash}L_GPLLT_IN*%
X181642500Y-102185000D03*
%TO.P,U9,2,PL2D/L_GPLLC_IN*%
%TO.N,/lcmxo2-cpld-block/PL2D{slash}L_GPLLC_IN*%
X181642500Y-102685000D03*
%TO.P,U9,3,PL3A/PCLKT3_2*%
%TO.N,/lcmxo2-cpld-block/PL3A{slash}PCLKT3_2*%
X181642500Y-103185000D03*
%TO.P,U9,4,PL3B/PCLKC3_2*%
%TO.N,/lcmxo2-cpld-block/PL3B{slash}PCLKC3_2*%
X181642500Y-103685000D03*
%TO.P,U9,5,VCCIO3*%
%TO.N,/lcmxo2-cpld-block/VCCIO3*%
X181642500Y-104185000D03*
%TO.P,U9,6,GND*%
%TO.N,GND*%
X181642500Y-104685000D03*
%TO.P,U9,7,PL3C*%
%TO.N,/lcmxo2-cpld-block/PL3C*%
X181642500Y-105185000D03*
%TO.P,U9,8,PL3D*%
%TO.N,/lcmxo2-cpld-block/PL3D*%
X181642500Y-105685000D03*
%TO.P,U9,9,PL4A*%
%TO.N,/PL4A*%
X181642500Y-106185000D03*
%TO.P,U9,10,PL4B*%
%TO.N,/PL4B*%
X181642500Y-106685000D03*
%TO.P,U9,11,VCCIO3*%
%TO.N,/lcmxo2-cpld-block/VCCIO3*%
X181642500Y-107185000D03*
%TO.P,U9,12,PL5A/PCLKT3_1*%
%TO.N,/CPLD_CLOCK*%
X181642500Y-107685000D03*
%TO.P,U9,13,PL5B/PCLKC3_1*%
%TO.N,/jtag-prog/CLK*%
X181642500Y-108185000D03*
%TO.P,U9,14,PL5C*%
%TO.N,/lcmxo2-cpld-block/PL5C*%
X181642500Y-108685000D03*
%TO.P,U9,15,PL5D*%
%TO.N,/lcmxo2-cpld-block/PL5D*%
X181642500Y-109185000D03*
%TO.P,U9,16,PL8A*%
%TO.N,/lcmxo2-cpld-block/PL8A*%
X181642500Y-109685000D03*
%TO.P,U9,17,PL8B*%
%TO.N,/lcmxo2-cpld-block/PL8B*%
X181642500Y-110185000D03*
%TO.P,U9,18,PL8C*%
%TO.N,/lcmxo2-cpld-block/PL8C*%
X181642500Y-110685000D03*
%TO.P,U9,19,PL8D*%
%TO.N,/lcmxo2-cpld-block/PL8D*%
X181642500Y-111185000D03*
%TO.P,U9,20,PL9A/PCLKT3_0*%
%TO.N,/lcmxo2-cpld-block/PL9A{slash}PCLKT3_0*%
X181642500Y-111685000D03*
%TO.P,U9,21,PL9B/PCLKC3_0*%
%TO.N,/lcmxo2-cpld-block/PL9B{slash}PCLKC3_0*%
X181642500Y-112185000D03*
%TO.P,U9,22,GND*%
%TO.N,GND*%
X181642500Y-112685000D03*
%TO.P,U9,23,VCCIO3*%
%TO.N,/lcmxo2-cpld-block/VCCIO3*%
X181642500Y-113185000D03*
%TO.P,U9,24,PL10C*%
%TO.N,/PL10D*%
X181642500Y-113685000D03*
%TO.P,U9,25,PL10D*%
%TO.N,/PL10C*%
X181642500Y-114185000D03*
D16*
%TO.P,U9,26,VCCIO2*%
%TO.N,/lcmxo2-cpld-block/VCCIO2*%
X183305000Y-115847500D03*
%TO.P,U9,27,PB4C/CSSPIN*%
%TO.N,/CPLD_SPI_MCS*%
X183805000Y-115847500D03*
%TO.P,U9,28,PB4D*%
%TO.N,/lcmxo2-cpld-block/PB4D*%
X184305000Y-115847500D03*
%TO.P,U9,29,PB6A*%
%TO.N,/lcmxo2-cpld-block/PB6A*%
X184805000Y-115847500D03*
%TO.P,U9,30,PB6B*%
%TO.N,/lcmxo2-cpld-block/PB6B*%
X185305000Y-115847500D03*
%TO.P,U9,31,PB6C/MCLK/CCLK*%
%TO.N,/CPLDK_SCK*%
X185805000Y-115847500D03*
%TO.P,U9,32,PB6D/SO/SPISO*%
%TO.N,/CPLD_MISO*%
X186305000Y-115847500D03*
%TO.P,U9,33,GND*%
%TO.N,GND*%
X186805000Y-115847500D03*
%TO.P,U9,34,PB9A/PCLKT2_0*%
%TO.N,/PB9A{slash}PCLKT2_0*%
X187305000Y-115847500D03*
%TO.P,U9,35,PB9B/PCLKC2_0*%
%TO.N,/PB9B{slash}PCLKC2_0*%
X187805000Y-115847500D03*
%TO.P,U9,36,PB11C*%
%TO.N,/PB11C*%
X188305000Y-115847500D03*
%TO.P,U9,37,PB11D*%
%TO.N,/PB11D*%
X188805000Y-115847500D03*
%TO.P,U9,38,PB11A/PCLKT2_1*%
%TO.N,/PB11A{slash}PCLKT2_1*%
X189305000Y-115847500D03*
%TO.P,U9,39,PB11B/PCLKC2_1*%
%TO.N,/PB11B{slash}PCLKC2_1*%
X189805000Y-115847500D03*
%TO.P,U9,40,PB15A*%
%TO.N,/PB15A*%
X190305000Y-115847500D03*
%TO.P,U9,41,PB15B*%
%TO.N,/PB15B*%
X190805000Y-115847500D03*
%TO.P,U9,42,PB18A*%
%TO.N,/PB18A*%
X191305000Y-115847500D03*
%TO.P,U9,43,PB18B*%
%TO.N,/PB18B*%
X191805000Y-115847500D03*
%TO.P,U9,44,GND*%
%TO.N,GND*%
X192305000Y-115847500D03*
%TO.P,U9,45,PB18C*%
%TO.N,/PB18C*%
X192805000Y-115847500D03*
%TO.P,U9,46,VCCIO2*%
%TO.N,/lcmxo2-cpld-block/VCCIO2*%
X193305000Y-115847500D03*
%TO.P,U9,47,PB18D*%
%TO.N,/PB18D*%
X193805000Y-115847500D03*
%TO.P,U9,48,PB20C/SN*%
%TO.N,/CPLD_SPI_CS*%
X194305000Y-115847500D03*
%TO.P,U9,49,PB20D/SI/SISPI*%
%TO.N,/CPLD_MOSI*%
X194805000Y-115847500D03*
%TO.P,U9,50,VCC*%
%TO.N,/lcmxo2-cpld-block/VCC*%
X195305000Y-115847500D03*
D15*
%TO.P,U9,51,PR10D*%
%TO.N,/PR10D*%
X196967500Y-114185000D03*
%TO.P,U9,52,PR10C*%
%TO.N,/PR10C*%
X196967500Y-113685000D03*
%TO.P,U9,53,PR9D*%
%TO.N,/CPLD_B7_PR9D*%
X196967500Y-113185000D03*
%TO.P,U9,54,PR9C*%
%TO.N,/CPLD_B6_PR9C*%
X196967500Y-112685000D03*
%TO.P,U9,55,VCCIO1*%
%TO.N,/lcmxo2-cpld-block/VCCIO1*%
X196967500Y-112185000D03*
%TO.P,U9,56,GND*%
%TO.N,GND*%
X196967500Y-111685000D03*
%TO.P,U9,57,PR9B*%
%TO.N,/CPLD_B5_PR9B*%
X196967500Y-111185000D03*
%TO.P,U9,58,PR9A*%
%TO.N,/CPLD_B4_PR9A*%
X196967500Y-110685000D03*
%TO.P,U9,59,PR8D*%
%TO.N,/PR8D*%
X196967500Y-110185000D03*
%TO.P,U9,60,PR8C*%
%TO.N,/PR8C*%
X196967500Y-109685000D03*
%TO.P,U9,61,PR8A*%
%TO.N,/PR8A*%
X196967500Y-109185000D03*
%TO.P,U9,62,PR5D/PCLKC1_0*%
%TO.N,/lcmxo2-cpld-block/PR5D{slash}PCLKC1_0*%
X196967500Y-108685000D03*
%TO.P,U9,63,PR5C/PCLKT1_0*%
%TO.N,/lcmxo2-cpld-block/PR5C{slash}PCLKT1_0*%
X196967500Y-108185000D03*
%TO.P,U9,64,PR5B*%
%TO.N,/lcmxo2-cpld-block/PR5B*%
X196967500Y-107685000D03*
%TO.P,U9,65,PR5A*%
%TO.N,/lcmxo2-cpld-block/PR5A*%
X196967500Y-107185000D03*
%TO.P,U9,66,PR4D*%
%TO.N,/lcmxo2-cpld-block/PR4D*%
X196967500Y-106685000D03*
%TO.P,U9,67,PR4C*%
%TO.N,/lcmxo2-cpld-block/PR4C*%
X196967500Y-106185000D03*
%TO.P,U9,68,PR4B*%
%TO.N,/lcmxo2-cpld-block/PR4B*%
X196967500Y-105685000D03*
%TO.P,U9,69,PR4A*%
%TO.N,/lcmxo2-cpld-block/PR4A*%
X196967500Y-105185000D03*
%TO.P,U9,70,PR3B*%
%TO.N,/lcmxo2-cpld-block/PR3B*%
X196967500Y-104685000D03*
%TO.P,U9,71,PR3A*%
%TO.N,/lcmxo2-cpld-block/PR3A*%
X196967500Y-104185000D03*
%TO.P,U9,72,GND*%
%TO.N,GND*%
X196967500Y-103685000D03*
%TO.P,U9,73,VCCIO1*%
%TO.N,/lcmxo2-cpld-block/VCCIO1*%
X196967500Y-103185000D03*
%TO.P,U9,74,PR2B*%
%TO.N,/lcmxo2-cpld-block/PR2B*%
X196967500Y-102685000D03*
%TO.P,U9,75,PR2A*%
%TO.N,/lcmxo2-cpld-block/PR2A*%
X196967500Y-102185000D03*
D16*
%TO.P,U9,76,PT17D/DONE*%
%TO.N,/lcmxo2-cpld-block/PT17D{slash}DONE*%
X195305000Y-100522500D03*
%TO.P,U9,77,PT17C/INITN*%
%TO.N,/lcmxo2-cpld-block/PT17C{slash}INITN*%
X194805000Y-100522500D03*
%TO.P,U9,78,PT16C*%
%TO.N,/lcmxo2-cpld-block/PT16C*%
X194305000Y-100522500D03*
%TO.P,U9,79,GND*%
%TO.N,GND*%
X193805000Y-100522500D03*
%TO.P,U9,80,VCCIO0*%
%TO.N,/lcmxo2-cpld-block/VCCIO0*%
X193305000Y-100522500D03*
%TO.P,U9,81,PT15D/PROGRAMN*%
%TO.N,/lcmxo2-cpld-block/PT15D{slash}PROGRAMN*%
X192805000Y-100522500D03*
%TO.P,U9,82,PT15C/JTAGENB*%
%TO.N,/lcmxo2-cpld-block/PT15C{slash}JTAGENB*%
X192305000Y-100522500D03*
%TO.P,U9,83,PT15B*%
%TO.N,/lcmxo2-cpld-block/PT15B*%
X191805000Y-100522500D03*
%TO.P,U9,84,PT15A*%
%TO.N,/lcmxo2-cpld-block/PT15A*%
X191305000Y-100522500D03*
%TO.P,U9,85,PT12D/SDA/PCLKC0_0*%
%TO.N,/CPLD_SDA*%
X190805000Y-100522500D03*
%TO.P,U9,86,PT12C/SCL/PCLKT0_0*%
%TO.N,/CPLD_SCL*%
X190305000Y-100522500D03*
%TO.P,U9,87,PT12B/PCLKC0_1*%
%TO.N,/lcmxo2-cpld-block/PT12B{slash}PCLKC0_1*%
X189805000Y-100522500D03*
%TO.P,U9,88,PT12A/PCLKT0_1*%
%TO.N,/lcmxo2-cpld-block/PT12A{slash}PCLKT0_1*%
X189305000Y-100522500D03*
%TO.P,U9,89,NC*%
%TO.N,unconnected-(U9-NC-Pad89)*%
X188805000Y-100522500D03*
%TO.P,U9,90,PT11D/TMS*%
%TO.N,/PT11D{slash}TMS*%
X188305000Y-100522500D03*
%TO.P,U9,91,PT11C/TCK*%
%TO.N,/PT11C{slash}TCK*%
X187805000Y-100522500D03*
%TO.P,U9,92,GND*%
%TO.N,GND*%
X187305000Y-100522500D03*
%TO.P,U9,93,VCCIO0*%
%TO.N,/lcmxo2-cpld-block/VCCIO0*%
X186805000Y-100522500D03*
%TO.P,U9,94,PT10D/TDI*%
%TO.N,/PT10D{slash}TDI*%
X186305000Y-100522500D03*
%TO.P,U9,95,PT10C/TDO*%
%TO.N,/PT10C{slash}TDO*%
X185805000Y-100522500D03*
%TO.P,U9,96,PT10B*%
%TO.N,/CPLD_B1_PT10B*%
X185305000Y-100522500D03*
%TO.P,U9,97,PT10A*%
%TO.N,/CPLD_B0_PT10A*%
X184805000Y-100522500D03*
%TO.P,U9,98,PT9B*%
%TO.N,/CPLD_B3_PT9B*%
X184305000Y-100522500D03*
%TO.P,U9,99,PT9A*%
%TO.N,/CPLD_B2_PT9A*%
X183805000Y-100522500D03*
%TO.P,U9,100,VCC*%
%TO.N,/lcmxo2-cpld-block/VCC*%
X183305000Y-100522500D03*
%TD*%
D17*
%TO.P,C46,1*%
%TO.N,+3.3V_JTAG*%
X135055000Y-101065000D03*
%TO.P,C46,2*%
%TO.N,GND*%
X135055000Y-100105000D03*
%TD*%
D18*
%TO.P,SW1,1,1*%
%TO.N,/jtag-prog/QSPI_SS*%
X130005000Y-124100000D03*
%TO.P,SW1,2,2*%
%TO.N,GND*%
X130005000Y-128470000D03*
%TD*%
D19*
%TO.P,R20,1*%
%TO.N,/D+*%
X129345000Y-56085000D03*
%TO.P,R20,2*%
%TO.N,/IOB_20a*%
X130365000Y-56085000D03*
%TD*%
D20*
%TO.P,D10,1,K*%
%TO.N,/lcmxo2-cpld-block/VCC*%
X183005000Y-96685000D03*
%TO.P,D10,2,A*%
%TO.N,/lcmxo2-cpld-block/VCCIO0*%
X183005000Y-93885000D03*
%TD*%
D21*
%TO.P,SW6,1,1*%
%TO.N,GND*%
X211890000Y-90785000D03*
%TO.P,SW6,2,2*%
%TO.N,/lcmxo2-cpld-block/PL2D{slash}L_GPLLC_IN*%
X207520000Y-90785000D03*
%TD*%
D22*
%TO.P,C23,1*%
%TO.N,+3.3V*%
X144725000Y-48785000D03*
%TO.P,C23,2*%
%TO.N,GND*%
X145685000Y-48785000D03*
%TD*%
D23*
%TO.P,J6,1,Pin_1*%
%TO.N,Net-(J6-Pin_1)*%
X208472500Y-73735000D03*
D24*
%TO.P,J6,2,Pin_2*%
%TO.N,GND*%
X208472500Y-70235000D03*
%TD*%
D25*
%TO.P,R53,1*%
%TO.N,+3.3V*%
X197915000Y-99985000D03*
%TO.P,R53,2*%
%TO.N,/lcmxo2-cpld-block/PT17D{slash}DONE*%
X196895000Y-99985000D03*
%TD*%
D10*
%TO.P,R25,1*%
%TO.N,GND*%
X196405000Y-75410000D03*
%TO.P,R25,2*%
%TO.N,Net-(R24-Pad2)*%
X196405000Y-73760000D03*
%TD*%
D26*
%TO.P,R49,1*%
%TO.N,+5V*%
X190105000Y-45695000D03*
%TO.P,R49,2*%
%TO.N,Net-(Q1-D)*%
X190105000Y-44675000D03*
%TD*%
D14*
%TO.P,R55,1*%
%TO.N,+3.3V*%
X193005000Y-93275000D03*
%TO.P,R55,2*%
%TO.N,/lcmxo2-cpld-block/PT15C{slash}JTAGENB*%
X193005000Y-94295000D03*
%TD*%
D27*
%TO.P,D14,1,K*%
%TO.N,GND*%
X185305000Y-87497500D03*
%TO.P,D14,2,A*%
%TO.N,Net-(D14-A)*%
X185305000Y-89072500D03*
%TD*%
D28*
%TO.P,U12,1,L3*%
%TO.N,unconnected-(U12-L3-Pad1)*%
X120835000Y-89085000D03*
D29*
%TO.P,U12,2,D1*%
%TO.N,Net-(U12-D1)*%
X123375000Y-89085000D03*
%TO.P,U12,3,D*%
%TO.N,/displays/7SEG_D*%
X125915000Y-89085000D03*
%TO.P,U12,4,L2*%
%TO.N,unconnected-(U12-L2-Pad4)*%
X128455000Y-89085000D03*
%TO.P,U12,5,D2*%
%TO.N,Net-(U12-D2)*%
X130995000Y-89085000D03*
%TO.P,U12,6,LC_CA*%
%TO.N,unconnected-(U12-LC_CA-Pad6)*%
X133535000Y-89085000D03*
%TO.P,U12,7,LC_AN*%
%TO.N,unconnected-(U12-LC_AN-Pad7)*%
X136075000Y-89085000D03*
%TO.P,U12,8,D3*%
%TO.N,Net-(U12-D3)*%
X138615000Y-89085000D03*
%TO.P,U12,9,DP1_AN*%
%TO.N,unconnected-(U12-DP1_AN-Pad9)*%
X141155000Y-89085000D03*
%TO.P,U12,10,D4*%
%TO.N,Net-(U12-D4)*%
X143695000Y-89085000D03*
%TO.P,U12,11,E*%
%TO.N,/displays/7SEG_E*%
X146235000Y-89085000D03*
%TO.P,U12,12,DP2_AN*%
%TO.N,unconnected-(U12-DP2_AN-Pad12)*%
X148775000Y-89085000D03*
%TO.P,U12,13,UP_CA*%
%TO.N,unconnected-(U12-UP_CA-Pad13)*%
X148775000Y-78925000D03*
%TO.P,U12,14,DP2_CA*%
%TO.N,unconnected-(U12-DP2_CA-Pad14)*%
X146235000Y-78925000D03*
%TO.P,U12,15,UP_AN*%
%TO.N,unconnected-(U12-UP_AN-Pad15)*%
X143695000Y-78925000D03*
%TO.P,U12,16,DP1_CA*%
%TO.N,unconnected-(U12-DP1_CA-Pad16)*%
X141155000Y-78925000D03*
%TO.P,U12,17,A*%
%TO.N,/displays/7SEG_A*%
X138615000Y-78925000D03*
%TO.P,U12,18,F*%
%TO.N,/displays/7SEG_F*%
X136075000Y-78925000D03*
%TO.P,U12,19,B*%
%TO.N,/displays/7SEG_B*%
X133535000Y-78925000D03*
%TO.P,U12,20,C*%
%TO.N,/displays/7SEG_C*%
X130995000Y-78925000D03*
%TO.P,U12,21,D1_E_AN*%
%TO.N,/displays/7SEG_E*%
X128455000Y-78925000D03*
%TO.P,U12,22,G*%
%TO.N,/displays/7SEG_G*%
X125915000Y-78925000D03*
%TO.P,U12,23,L1*%
%TO.N,unconnected-(U12-L1-Pad23)*%
X123375000Y-78925000D03*
%TO.P,U12,24,L1_L2_L3_CA*%
%TO.N,unconnected-(U12-L1_L2_L3_CA-Pad24)*%
X120835000Y-78925000D03*
%TD*%
D30*
%TO.P,C31,1*%
%TO.N,Net-(D8-K)*%
X144005000Y-57410000D03*
%TO.P,C31,2*%
%TO.N,GND*%
X144005000Y-58960000D03*
%TD*%
D11*
%TO.P,R27,1*%
%TO.N,GND*%
X205980000Y-80765000D03*
%TO.P,R27,2*%
%TO.N,Net-(U4-VIN-)*%
X207630000Y-80765000D03*
%TD*%
D31*
%TO.P,D1,1,K*%
%TO.N,GND*%
X212005000Y-55585000D03*
%TO.P,D1,2,A*%
%TO.N,Net-(D1-A)*%
X210430000Y-55585000D03*
%TD*%
D12*
%TO.P,R24,1*%
%TO.N,Net-(R23-Pad2)*%
X199930000Y-73785000D03*
%TO.P,R24,2*%
%TO.N,Net-(R24-Pad2)*%
X198280000Y-73785000D03*
%TD*%
D14*
%TO.P,R42,1*%
%TO.N,+3.3V*%
X121930000Y-47320000D03*
%TO.P,R42,2*%
%TO.N,/ice40-for-gpio/ICE_SPI_IO3*%
X121930000Y-48340000D03*
%TD*%
D26*
%TO.P,R52,1*%
%TO.N,+5V*%
X192635000Y-50695000D03*
%TO.P,R52,2*%
%TO.N,Net-(U8-ISET)*%
X192635000Y-49675000D03*
%TD*%
D32*
%TO.P,Q2,1,G*%
%TO.N,+3.3V*%
X186835000Y-49065000D03*
%TO.P,Q2,2,S*%
%TO.N,/MATRIX_SPI_SCK*%
X186835000Y-50965000D03*
%TO.P,Q2,3,D*%
%TO.N,Net-(Q2-D)*%
X188710000Y-50015000D03*
%TD*%
D17*
%TO.P,C17,1*%
%TO.N,/ENCODER_BTN*%
X171805000Y-74265000D03*
%TO.P,C17,2*%
%TO.N,GND*%
X171805000Y-73305000D03*
%TD*%
D14*
%TO.P,R28,1*%
%TO.N,+3.3V*%
X193305000Y-72265000D03*
%TO.P,R28,2*%
%TO.N,/ENCODER_A*%
X193305000Y-73285000D03*
%TD*%
D17*
%TO.P,C43,1*%
%TO.N,GND*%
X195305000Y-118545000D03*
%TO.P,C43,2*%
%TO.N,/lcmxo2-cpld-block/VCC*%
X195305000Y-117585000D03*
%TD*%
D12*
%TO.P,R83,1*%
%TO.N,Net-(J1001-Pin_4)*%
X129130000Y-72385000D03*
%TO.P,R83,2*%
%TO.N,Net-(U13-MDAT-)*%
X127480000Y-72385000D03*
%TD*%
D31*
%TO.P,D3,1,K*%
%TO.N,GND*%
X211992500Y-59785000D03*
%TO.P,D3,2,A*%
%TO.N,Net-(D3-A)*%
X210417500Y-59785000D03*
%TD*%
D11*
%TO.P,R26,1*%
%TO.N,Net-(R24-Pad2)*%
X205980000Y-78665000D03*
%TO.P,R26,2*%
%TO.N,Net-(U4-VIN+)*%
X207630000Y-78665000D03*
%TD*%
D27*
%TO.P,D13,1,K*%
%TO.N,GND*%
X187205000Y-87510000D03*
%TO.P,D13,2,A*%
%TO.N,Net-(D13-A)*%
X187205000Y-89085000D03*
%TD*%
D33*
%TO.P,R32,1,1*%
%TO.N,unconnected-(R32-Pad1)*%
X190405000Y-81985000D03*
%TO.P,R32,2,2*%
%TO.N,unconnected-(R32-Pad2)*%
X190405000Y-71985000D03*
D34*
%TO.P,R32,3,3*%
%TO.N,unconnected-(R32-Pad3)*%
X182505000Y-70610000D03*
D33*
%TO.P,R32,4,4*%
%TO.N,unconnected-(R32-Pad4)*%
X174605000Y-71985000D03*
%TO.P,R32,5,5*%
%TO.N,unconnected-(R32-Pad5)*%
X174605000Y-81985000D03*
D34*
%TO.P,R32,6,6*%
%TO.N,unconnected-(R32-Pad6)*%
X182505000Y-83360000D03*
D35*
%TO.P,R32,A,A*%
%TO.N,/ENCODER_A*%
X189805000Y-79485000D03*
%TO.P,R32,B,B*%
%TO.N,/ENCODER_B*%
X189805000Y-74485000D03*
%TO.P,R32,C,C*%
%TO.N,GND*%
X189805000Y-76985000D03*
%TO.P,R32,D,D*%
%TO.N,/ENCODER_BTN*%
X175505000Y-79485000D03*
%TO.P,R32,E,E*%
%TO.N,GND*%
X175505000Y-74485000D03*
%TD*%
D36*
%TO.P,C39,1*%
%TO.N,/lcmxo2-cpld-block/VCCIO3*%
X179685000Y-113185000D03*
%TO.P,C39,2*%
%TO.N,GND*%
X178725000Y-113185000D03*
%TD*%
D30*
%TO.P,C18,1*%
%TO.N,+3.3V*%
X140105000Y-57660000D03*
%TO.P,C18,2*%
%TO.N,GND*%
X140105000Y-59210000D03*
%TD*%
D26*
%TO.P,R51,1*%
%TO.N,+5V*%
X190205000Y-55295000D03*
%TO.P,R51,2*%
%TO.N,Net-(Q3-D)*%
X190205000Y-54275000D03*
%TD*%
D25*
%TO.P,R4,1*%
%TO.N,Net-(C6-Pad1)*%
X142715000Y-104585000D03*
%TO.P,R4,2*%
%TO.N,/jtag-prog/XOUT*%
X141695000Y-104585000D03*
%TD*%
D21*
%TO.P,SW4,1,1*%
%TO.N,GND*%
X212390000Y-50985000D03*
%TO.P,SW4,2,2*%
%TO.N,/ICE_nRST*%
X208020000Y-50985000D03*
%TD*%
D11*
%TO.P,R62,1*%
%TO.N,/jtag-prog/TMS*%
X170070000Y-96515000D03*
%TO.P,R62,2*%
%TO.N,/TMS*%
X171720000Y-96515000D03*
%TD*%
D37*
%TO.P,C3,1*%
%TO.N,+3.3V_JTAG*%
X150205000Y-102385000D03*
%TO.P,C3,2*%
%TO.N,GND*%
X148655000Y-102385000D03*
%TD*%
D38*
%TO.P,C38,1*%
%TO.N,/lcmxo2-cpld-block/VCCIO2*%
X183305000Y-117705000D03*
%TO.P,C38,2*%
%TO.N,GND*%
X183305000Y-118665000D03*
%TD*%
D31*
%TO.P,FB1,1*%
%TO.N,+3.3V*%
X200792500Y-113385000D03*
%TO.P,FB1,2*%
%TO.N,/lcmxo2-cpld-block/VCCIO1*%
X199217500Y-113385000D03*
%TD*%
D10*
%TO.P,R75,1*%
%TO.N,GND*%
X119805000Y-69560000D03*
%TO.P,R75,2*%
%TO.N,Net-(R74-Pad2)*%
X119805000Y-67910000D03*
%TD*%
D39*
%TO.P,A2,1,GPIO0*%
%TO.N,/CPLD_B0_PT10A*%
X116495000Y-115715000D03*
D40*
%TO.P,A2,2,GPIO1*%
%TO.N,/CPLD_B1_PT10B*%
X119035000Y-115715000D03*
D41*
%TO.P,A2,3,GND*%
%TO.N,GND*%
X121575000Y-115715000D03*
D40*
%TO.P,A2,4,GPIO2*%
%TO.N,/CPLD_B2_PT9A*%
X124115000Y-115715000D03*
%TO.P,A2,5,GPIO3*%
%TO.N,/CPLD_B3_PT9B*%
X126655000Y-115715000D03*
%TO.P,A2,6,GPIO4*%
%TO.N,/CPLD_B4_PR9A*%
X129195000Y-115715000D03*
%TO.P,A2,7,GPIO5*%
%TO.N,/CPLD_B5_PR9B*%
X131735000Y-115715000D03*
D41*
%TO.P,A2,8,GND*%
%TO.N,GND*%
X134275000Y-115715000D03*
D40*
%TO.P,A2,9,GPIO6*%
%TO.N,/CPLD_B6_PR9C*%
X136815000Y-115715000D03*
%TO.P,A2,10,GPIO7*%
%TO.N,/CPLD_B7_PR9D*%
X139355000Y-115715000D03*
%TO.P,A2,11,GPIO8*%
%TO.N,unconnected-(A2-GPIO8-Pad11)*%
X141895000Y-115715000D03*
%TO.P,A2,12,GPIO9*%
%TO.N,unconnected-(A2-GPIO9-Pad12)*%
X144435000Y-115715000D03*
D41*
%TO.P,A2,13,GND*%
%TO.N,GND*%
X146975000Y-115715000D03*
D40*
%TO.P,A2,14,GPIO10*%
%TO.N,/CPLD_CLOCK*%
X149515000Y-115715000D03*
%TO.P,A2,15,GPIO11*%
%TO.N,unconnected-(A2-GPIO11-Pad15)*%
X152055000Y-115715000D03*
%TO.P,A2,16,GPIO12*%
%TO.N,unconnected-(A2-GPIO12-Pad16)*%
X154595000Y-115715000D03*
%TO.P,A2,17,GPIO13*%
%TO.N,unconnected-(A2-GPIO13-Pad17)*%
X157135000Y-115715000D03*
D41*
%TO.P,A2,18,GND*%
%TO.N,GND*%
X159675000Y-115715000D03*
D40*
%TO.P,A2,19,GPIO14*%
%TO.N,unconnected-(A2-GPIO14-Pad19)*%
X162215000Y-115715000D03*
%TO.P,A2,20,GPIO15*%
%TO.N,unconnected-(A2-GPIO15-Pad20)*%
X164755000Y-115715000D03*
%TO.P,A2,21,GPIO16*%
%TO.N,/CPLD_MISO*%
X164755000Y-97935000D03*
%TO.P,A2,22,GPIO17*%
%TO.N,/CPLD_SPI_CS*%
X162215000Y-97935000D03*
D42*
%TO.P,A2,23,GND*%
%TO.N,GND*%
X159675000Y-97935000D03*
D40*
%TO.P,A2,24,GPIO18*%
%TO.N,/CPLDK_SCK*%
X157135000Y-97935000D03*
%TO.P,A2,25,GPIO19*%
%TO.N,/CPLD_MOSI*%
X154595000Y-97935000D03*
%TO.P,A2,26,GPIO20*%
%TO.N,/CPLD_SDA*%
X152055000Y-97935000D03*
%TO.P,A2,27,GPIO21*%
%TO.N,/CPLD_SCL*%
X149515000Y-97935000D03*
D42*
%TO.P,A2,28,GND*%
%TO.N,GND*%
X146975000Y-97935000D03*
D40*
%TO.P,A2,29,GPIO22*%
%TO.N,/CPLD_SPI_MCS*%
X144435000Y-97935000D03*
%TO.P,A2,30,RUN*%
%TO.N,unconnected-(A2-RUN-Pad30)*%
X141895000Y-97935000D03*
%TO.P,A2,31,GPIO26_ADC0*%
%TO.N,unconnected-(A2-GPIO26_ADC0-Pad31)*%
X139355000Y-97935000D03*
%TO.P,A2,32,GPIO27_ADC1*%
%TO.N,unconnected-(A2-GPIO27_ADC1-Pad32)*%
X136815000Y-97935000D03*
D42*
%TO.P,A2,33,AGND*%
%TO.N,unconnected-(A2-AGND-Pad33)*%
X134275000Y-97935000D03*
D40*
%TO.P,A2,34,GPIO28_ADC2*%
%TO.N,unconnected-(A2-GPIO28_ADC2-Pad34)*%
X131735000Y-97935000D03*
%TO.P,A2,35,ADC_VREF*%
%TO.N,unconnected-(A2-ADC_VREF-Pad35)*%
X129195000Y-97935000D03*
%TO.P,A2,36,3V3*%
%TO.N,unconnected-(A2-3V3-Pad36)*%
X126655000Y-97935000D03*
%TO.P,A2,37,3V3_EN*%
%TO.N,unconnected-(A2-3V3_EN-Pad37)*%
X124115000Y-97935000D03*
D42*
%TO.P,A2,38,GND*%
%TO.N,GND*%
X121575000Y-97935000D03*
D40*
%TO.P,A2,39,VSYS*%
%TO.N,unconnected-(A2-VSYS-Pad39)*%
X119035000Y-97935000D03*
%TO.P,A2,40,VBUS*%
%TO.N,VBUS2*%
X116495000Y-97935000D03*
%TD*%
D10*
%TO.P,R30,1*%
%TO.N,Net-(U4-MCLKIN\u2212)*%
X202905000Y-82790000D03*
%TO.P,R30,2*%
%TO.N,Net-(U4-MCLKIN+)*%
X202905000Y-81140000D03*
%TD*%
D43*
%TO.P,U1001,1,GND*%
%TO.N,GND*%
X148355000Y-108022500D03*
%TO.P,U1001,2,VO*%
%TO.N,+3.3V_JTAG*%
X150255000Y-108022500D03*
%TO.P,U1001,3,VI*%
%TO.N,VBUS3*%
X149305000Y-105747500D03*
%TD*%
D38*
%TO.P,C13,1*%
%TO.N,/ENCODER_A*%
X193305000Y-74205000D03*
%TO.P,C13,2*%
%TO.N,GND*%
X193305000Y-75165000D03*
%TD*%
D19*
%TO.P,R3,1*%
%TO.N,+3.3V_JTAG*%
X123095000Y-111685000D03*
%TO.P,R3,2*%
%TO.N,/jtag-prog/QSPI_SS*%
X124115000Y-111685000D03*
%TD*%
D38*
%TO.P,C20,1*%
%TO.N,+3.3V*%
X141455000Y-57605000D03*
%TO.P,C20,2*%
%TO.N,GND*%
X141455000Y-58565000D03*
%TD*%
D25*
%TO.P,R65,1*%
%TO.N,Net-(U12-D1)*%
X122845000Y-86285000D03*
%TO.P,R65,2*%
%TO.N,Net-(Q4-D)*%
X121825000Y-86285000D03*
%TD*%
D27*
%TO.P,D7,1,K*%
%TO.N,GND*%
X127605000Y-31797500D03*
%TO.P,D7,2,A*%
%TO.N,Net-(D7-A)*%
X127605000Y-33372500D03*
%TD*%
%TO.P,FB2,1*%
%TO.N,+3.3V*%
X194605000Y-96610000D03*
%TO.P,FB2,2*%
%TO.N,/lcmxo2-cpld-block/VCCIO0*%
X194605000Y-98185000D03*
%TD*%
D38*
%TO.P,C15,1*%
%TO.N,+3.3V*%
X208805000Y-85685000D03*
%TO.P,C15,2*%
%TO.N,GND*%
X208805000Y-86645000D03*
%TD*%
D10*
%TO.P,R79,1*%
%TO.N,Net-(U13-MDAT-)*%
X125805000Y-72385000D03*
%TO.P,R79,2*%
%TO.N,Net-(U13-MDAT+)*%
X125805000Y-70735000D03*
%TD*%
D38*
%TO.P,C8,1*%
%TO.N,+3.3V_JTAG*%
X138005000Y-111305000D03*
%TO.P,C8,2*%
%TO.N,GND*%
X138005000Y-112265000D03*
%TD*%
D17*
%TO.P,C44,1*%
%TO.N,+3.3V_JTAG*%
X137692500Y-101285000D03*
%TO.P,C44,2*%
%TO.N,GND*%
X137692500Y-100325000D03*
%TD*%
D44*
%TO.P,FB4,1*%
%TO.N,+3.3V*%
X177830000Y-102985000D03*
%TO.P,FB4,2*%
%TO.N,/lcmxo2-cpld-block/VCCIO3*%
X179405000Y-102985000D03*
%TD*%
D45*
%TO.P,D1004,1*%
%TO.N,+5V*%
X138955000Y-69685000D03*
%TO.P,D1004,2*%
%TO.N,VBUS2*%
X135655000Y-69685000D03*
%TD*%
D46*
%TO.P,D8,1,K*%
%TO.N,Net-(D8-K)*%
X144105000Y-55485000D03*
%TO.P,D8,2,A*%
%TO.N,+3.3V*%
X146905000Y-55485000D03*
%TD*%
D47*
%TO.P,C32,1*%
%TO.N,+5V*%
X206005000Y-61285000D03*
%TO.P,C32,2*%
%TO.N,GND*%
X206005000Y-59735000D03*
%TD*%
D39*
%TO.P,A1,1,GPIO0*%
%TO.N,/RPI_ICE0*%
X116925000Y-61165000D03*
D40*
%TO.P,A1,2,GPIO1*%
%TO.N,/RPI_ICE1*%
X119465000Y-61165000D03*
D41*
%TO.P,A1,3,GND*%
%TO.N,GND*%
X122005000Y-61165000D03*
D40*
%TO.P,A1,4,GPIO2*%
%TO.N,/RPI_ICE2*%
X124545000Y-61165000D03*
%TO.P,A1,5,GPIO3*%
%TO.N,/RPI_ICE3*%
X127085000Y-61165000D03*
%TO.P,A1,6,GPIO4*%
%TO.N,/RPI_ICE4*%
X129625000Y-61165000D03*
%TO.P,A1,7,GPIO5*%
%TO.N,/RPI_ICE5*%
X132165000Y-61165000D03*
D41*
%TO.P,A1,8,GND*%
%TO.N,GND*%
X134705000Y-61165000D03*
D40*
%TO.P,A1,9,GPIO6*%
%TO.N,/RPI_ICE6*%
X137245000Y-61165000D03*
%TO.P,A1,10,GPIO7*%
%TO.N,/RPI_ICE7*%
X139785000Y-61165000D03*
%TO.P,A1,11,GPIO8*%
%TO.N,/IOB_23b*%
X142325000Y-61165000D03*
%TO.P,A1,12,GPIO9*%
%TO.N,/IOT_43a*%
X144865000Y-61165000D03*
D41*
%TO.P,A1,13,GND*%
%TO.N,GND*%
X147405000Y-61165000D03*
D40*
%TO.P,A1,14,GPIO10*%
%TO.N,Net-(A1-GPIO10)*%
X149945000Y-61165000D03*
%TO.P,A1,15,GPIO11*%
%TO.N,/ICE_SPI_MOSI*%
X152485000Y-61165000D03*
%TO.P,A1,16,GPIO12*%
%TO.N,/ICE_SPI_MISO*%
X155025000Y-61165000D03*
%TO.P,A1,17,GPIO13*%
%TO.N,/ICE_SPI_SS*%
X157565000Y-61165000D03*
D41*
%TO.P,A1,18,GND*%
%TO.N,GND*%
X160105000Y-61165000D03*
D40*
%TO.P,A1,19,GPIO14*%
%TO.N,/ICE_SPI_SCK*%
X162645000Y-61165000D03*
%TO.P,A1,20,GPIO15*%
%TO.N,/ICE_nRST*%
X165185000Y-61165000D03*
%TO.P,A1,21,GPIO16*%
%TO.N,/GPIO16_SPI0_RX*%
X165185000Y-43385000D03*
%TO.P,A1,22,GPIO17*%
%TO.N,/GPIO17_SPI0_CSn*%
X162645000Y-43385000D03*
D42*
%TO.P,A1,23,GND*%
%TO.N,GND*%
X160105000Y-43385000D03*
D40*
%TO.P,A1,24,GPIO18*%
%TO.N,/GPIO18_SPI0_SCK*%
X157565000Y-43385000D03*
%TO.P,A1,25,GPIO19*%
%TO.N,/GPIO19_SPI0_TX*%
X155025000Y-43385000D03*
%TO.P,A1,26,GPIO20*%
%TO.N,/GPIO20_I2C0_SDA*%
X152485000Y-43385000D03*
%TO.P,A1,27,GPIO21*%
%TO.N,/GPIO21_I2C0_SCL*%
X149945000Y-43385000D03*
D42*
%TO.P,A1,28,GND*%
%TO.N,GND*%
X147405000Y-43385000D03*
D40*
%TO.P,A1,29,GPIO22*%
%TO.N,/ICE_CDONE*%
X144865000Y-43385000D03*
%TO.P,A1,30,RUN*%
%TO.N,Net-(A1-RUN)*%
X142325000Y-43385000D03*
%TO.P,A1,31,GPIO26_ADC0*%
%TO.N,/GPIO26_ADC0*%
X139785000Y-43385000D03*
%TO.P,A1,32,GPIO27_ADC1*%
%TO.N,/GPIO27_ADC1*%
X137245000Y-43385000D03*
D42*
%TO.P,A1,33,AGND*%
%TO.N,unconnected-(A1-AGND-Pad33)*%
X134705000Y-43385000D03*
D40*
%TO.P,A1,34,GPIO28_ADC2*%
%TO.N,/LED1*%
X132165000Y-43385000D03*
%TO.P,A1,35,ADC_VREF*%
%TO.N,unconnected-(A1-ADC_VREF-Pad35)*%
X129625000Y-43385000D03*
%TO.P,A1,36,3V3*%
%TO.N,unconnected-(A1-3V3-Pad36)*%
X127085000Y-43385000D03*
%TO.P,A1,37,3V3_EN*%
%TO.N,unconnected-(A1-3V3_EN-Pad37)*%
X124545000Y-43385000D03*
D42*
%TO.P,A1,38,GND*%
%TO.N,GND*%
X122005000Y-43385000D03*
D40*
%TO.P,A1,39,VSYS*%
%TO.N,unconnected-(A1-VSYS-Pad39)*%
X119465000Y-43385000D03*
%TO.P,A1,40,VBUS*%
%TO.N,VBUS1*%
X116925000Y-43385000D03*
%TD*%
D25*
%TO.P,R71,1*%
%TO.N,Net-(U12-D4)*%
X148145000Y-86685000D03*
%TO.P,R71,2*%
%TO.N,Net-(Q7-D)*%
X147125000Y-86685000D03*
%TD*%
D48*
%TO.P,J12,1,Pin_1*%
%TO.N,/lcmxo2-cpld-block/PL8A*%
X136345000Y-125145000D03*
D49*
%TO.P,J12,2,Pin_2*%
%TO.N,/lcmxo2-cpld-block/PL8B*%
X136345000Y-127685000D03*
%TO.P,J12,3,Pin_3*%
%TO.N,/lcmxo2-cpld-block/PL5D*%
X138885000Y-125145000D03*
%TO.P,J12,4,Pin_4*%
%TO.N,/lcmxo2-cpld-block/PL8D*%
X138885000Y-127685000D03*
%TO.P,J12,5,Pin_5*%
%TO.N,/lcmxo2-cpld-block/PL5C*%
X141425000Y-125145000D03*
%TO.P,J12,6,Pin_6*%
%TO.N,/lcmxo2-cpld-block/PL8C*%
X141425000Y-127685000D03*
%TO.P,J12,7,Pin_7*%
%TO.N,/lcmxo2-cpld-block/PL9B{slash}PCLKC3_0*%
X143965000Y-125145000D03*
%TO.P,J12,8,Pin_8*%
%TO.N,/lcmxo2-cpld-block/PL9A{slash}PCLKT3_0*%
X143965000Y-127685000D03*
%TO.P,J12,9,Pin_9*%
%TO.N,GND*%
X146505000Y-125145000D03*
%TO.P,J12,10,Pin_10*%
X146505000Y-127685000D03*
%TO.P,J12,11,Pin_11*%
%TO.N,+3.3V*%
X149045000Y-125145000D03*
%TO.P,J12,12,Pin_12*%
X149045000Y-127685000D03*
%TD*%
D37*
%TO.P,C49,1*%
%TO.N,+3.3V*%
X128880000Y-76285000D03*
%TO.P,C49,2*%
%TO.N,GND*%
X127330000Y-76285000D03*
%TD*%
D36*
%TO.P,C5,1*%
%TO.N,/jtag-prog/XIN*%
X144765000Y-108385000D03*
%TO.P,C5,2*%
%TO.N,GND*%
X143805000Y-108385000D03*
%TD*%
D25*
%TO.P,R63,1*%
%TO.N,/displays/SHIFT_REG_OE*%
X137305000Y-91985000D03*
%TO.P,R63,2*%
%TO.N,GND*%
X136285000Y-91985000D03*
%TD*%
D14*
%TO.P,R46,1*%
%TO.N,+3.3V*%
X185105000Y-44665000D03*
%TO.P,R46,2*%
%TO.N,/MATRIX_SPI_nCS*%
X185105000Y-45685000D03*
%TD*%
D38*
%TO.P,C40,1*%
%TO.N,/lcmxo2-cpld-block/VCCIO2*%
X193305000Y-117825000D03*
%TO.P,C40,2*%
%TO.N,GND*%
X193305000Y-118785000D03*
%TD*%
D11*
%TO.P,R60,1*%
%TO.N,/jtag-prog/TDO*%
X170180000Y-91485000D03*
%TO.P,R60,2*%
%TO.N,/TDO*%
X171830000Y-91485000D03*
%TD*%
D50*
%TO.P,U10,1,IOVDD*%
%TO.N,+3.3V_JTAG*%
X134092500Y-109422500D03*
%TO.P,U10,2,GPIO0*%
%TO.N,/jtag-prog/LED2*%
X134492500Y-109422500D03*
%TO.P,U10,3,GPIO1*%
%TO.N,unconnected-(U10-GPIO1-Pad3)*%
X134892500Y-109422500D03*
%TO.P,U10,4,GPIO2*%
%TO.N,unconnected-(U10-GPIO2-Pad4)*%
X135292500Y-109422500D03*
%TO.P,U10,5,GPIO3*%
%TO.N,unconnected-(U10-GPIO3-Pad5)*%
X135692500Y-109422500D03*
%TO.P,U10,6,GPIO4*%
%TO.N,unconnected-(U10-GPIO4-Pad6)*%
X136092500Y-109422500D03*
%TO.P,U10,7,GPIO5*%
%TO.N,unconnected-(U10-GPIO5-Pad7)*%
X136492500Y-109422500D03*
%TO.P,U10,8,GPIO6*%
%TO.N,unconnected-(U10-GPIO6-Pad8)*%
X136892500Y-109422500D03*
%TO.P,U10,9,GPIO7*%
%TO.N,unconnected-(U10-GPIO7-Pad9)*%
X137292500Y-109422500D03*
%TO.P,U10,10,IOVDD*%
%TO.N,+3.3V_JTAG*%
X137692500Y-109422500D03*
%TO.P,U10,11,GPIO8*%
%TO.N,unconnected-(U10-GPIO8-Pad11)*%
X138092500Y-109422500D03*
%TO.P,U10,12,GPIO9*%
%TO.N,unconnected-(U10-GPIO9-Pad12)*%
X138492500Y-109422500D03*
%TO.P,U10,13,GPIO10*%
%TO.N,Net-(U10-GPIO10)*%
X138892500Y-109422500D03*
%TO.P,U10,14,GPIO11*%
%TO.N,unconnected-(U10-GPIO11-Pad14)*%
X139292500Y-109422500D03*
D51*
%TO.P,U10,15,GPIO12*%
%TO.N,/jtag-prog/DBG_TX*%
X140130000Y-108585000D03*
%TO.P,U10,16,GPIO13*%
%TO.N,/jtag-prog/DBG_RX*%
X140130000Y-108185000D03*
%TO.P,U10,17,GPIO14*%
%TO.N,unconnected-(U10-GPIO14-Pad17)*%
X140130000Y-107785000D03*
%TO.P,U10,18,GPIO15*%
%TO.N,unconnected-(U10-GPIO15-Pad18)*%
X140130000Y-107385000D03*
%TO.P,U10,19,TESTEN*%
%TO.N,unconnected-(U10-TESTEN-Pad19)*%
X140130000Y-106985000D03*
%TO.P,U10,20,XIN*%
%TO.N,/jtag-prog/XIN*%
X140130000Y-106585000D03*
%TO.P,U10,21,XOUT*%
%TO.N,/jtag-prog/XOUT*%
X140130000Y-106185000D03*
%TO.P,U10,22,IOVDD*%
%TO.N,+3.3V_JTAG*%
X140130000Y-105785000D03*
%TO.P,U10,23,DVDD*%
%TO.N,+1V*%
X140130000Y-105385000D03*
%TO.P,U10,24,SWCLK*%
%TO.N,/jtag-prog/SWCLK*%
X140130000Y-104985000D03*
%TO.P,U10,25,SWD*%
%TO.N,/jtag-prog/SWD*%
X140130000Y-104585000D03*
%TO.P,U10,26,RUN*%
%TO.N,Net-(U10-RUN)*%
X140130000Y-104185000D03*
%TO.P,U10,27,GPIO16*%
%TO.N,/jtag-prog/TDI*%
X140130000Y-103785000D03*
%TO.P,U10,28,GPIO17*%
%TO.N,/jtag-prog/TDO*%
X140130000Y-103385000D03*
D50*
%TO.P,U10,29,GPIO18*%
%TO.N,/jtag-prog/TCK*%
X139292500Y-102547500D03*
%TO.P,U10,30,GPIO19*%
%TO.N,/jtag-prog/TMS*%
X138892500Y-102547500D03*
%TO.P,U10,31,GPIO20*%
%TO.N,/jtag-prog/RST*%
X138492500Y-102547500D03*
%TO.P,U10,32,GPIO21*%
%TO.N,/jtag-prog/TRST*%
X138092500Y-102547500D03*
%TO.P,U10,33,IOVDD*%
%TO.N,+3.3V_JTAG*%
X137692500Y-102547500D03*
%TO.P,U10,34,GPIO22*%
%TO.N,unconnected-(U10-GPIO22-Pad34)*%
X137292500Y-102547500D03*
%TO.P,U10,35,GPIO23*%
%TO.N,unconnected-(U10-GPIO23-Pad35)*%
X136892500Y-102547500D03*
%TO.P,U10,36,GPIO24*%
%TO.N,unconnected-(U10-GPIO24-Pad36)*%
X136492500Y-102547500D03*
%TO.P,U10,37,GPIO25*%
%TO.N,/jtag-prog/LED1*%
X136092500Y-102547500D03*
%TO.P,U10,38,GPIO26_ADC0*%
%TO.N,unconnected-(U10-GPIO26_ADC0-Pad38)*%
X135692500Y-102547500D03*
%TO.P,U10,39,GPIO27_ADC1*%
%TO.N,unconnected-(U10-GPIO27_ADC1-Pad39)*%
X135292500Y-102547500D03*
%TO.P,U10,40,GPIO28_ADC2*%
%TO.N,unconnected-(U10-GPIO28_ADC2-Pad40)*%
X134892500Y-102547500D03*
%TO.P,U10,41,GPIO29_ADC3*%
%TO.N,unconnected-(U10-GPIO29_ADC3-Pad41)*%
X134492500Y-102547500D03*
%TO.P,U10,42,IOVDD*%
%TO.N,+3.3V_JTAG*%
X134092500Y-102547500D03*
D51*
%TO.P,U10,43,ADC_AVDD*%
X133255000Y-103385000D03*
%TO.P,U10,44,VREG_IN*%
X133255000Y-103785000D03*
%TO.P,U10,45,VREG_VOUT*%
%TO.N,+1V*%
X133255000Y-104185000D03*
%TO.P,U10,46,USB_DM*%
%TO.N,/jtag-prog/USB_N*%
X133255000Y-104585000D03*
%TO.P,U10,47,USB_DP*%
%TO.N,/jtag-prog/USB_P*%
X133255000Y-104985000D03*
%TO.P,U10,48,USB_VDD*%
%TO.N,+3.3V_JTAG*%
X133255000Y-105385000D03*
%TO.P,U10,49,IOVDD*%
X133255000Y-105785000D03*
%TO.P,U10,50,DVDD*%
%TO.N,+1V*%
X133255000Y-106185000D03*
%TO.P,U10,51,QSPI_SD3*%
%TO.N,/jtag-prog/QSPI_SD3*%
X133255000Y-106585000D03*
%TO.P,U10,52,QSPI_SCLK*%
%TO.N,/jtag-prog/QSPI_SCLK*%
X133255000Y-106985000D03*
%TO.P,U10,53,QSPI_SD0*%
%TO.N,/jtag-prog/QSPI_SD0*%
X133255000Y-107385000D03*
%TO.P,U10,54,QSPI_SD2*%
%TO.N,/jtag-prog/QSPI_SD2*%
X133255000Y-107785000D03*
%TO.P,U10,55,QSPI_SD1*%
%TO.N,/jtag-prog/QSPI_SD1*%
X133255000Y-108185000D03*
%TO.P,U10,56,QSPI_SS*%
%TO.N,/jtag-prog/QSPI_SS*%
X133255000Y-108585000D03*
D52*
%TO.P,U10,57,GND*%
%TO.N,GND*%
X136692500Y-105985000D03*
%TD*%
D53*
%TO.P,J1,A1,GND*%
%TO.N,GND*%
X119982500Y-102685000D03*
%TO.P,J1,A4,VBUS*%
%TO.N,VBUS3*%
X119982500Y-103485000D03*
D54*
%TO.P,J1,A5,CC1*%
%TO.N,unconnected-(J1-CC1-PadA5)*%
X119982500Y-104635000D03*
%TO.P,J1,A6,D+*%
%TO.N,/jtag-prog/D+*%
X119982500Y-105635000D03*
%TO.P,J1,A7,D-*%
%TO.N,/jtag-prog/D-*%
X119982500Y-106135000D03*
%TO.P,J1,A8*%
%TO.N,N/C*%
X119982500Y-107135000D03*
D53*
%TO.P,J1,A9,VBUS*%
%TO.N,VBUS3*%
X119982500Y-108285000D03*
%TO.P,J1,A12,GND*%
%TO.N,GND*%
X119982500Y-109085000D03*
%TO.P,J1,B1,GND*%
X119982500Y-109085000D03*
%TO.P,J1,B4,VBUS*%
%TO.N,VBUS3*%
X119982500Y-108285000D03*
D54*
%TO.P,J1,B5,CC2*%
%TO.N,unconnected-(J1-CC2-PadB5)*%
X119982500Y-107635000D03*
%TO.P,J1,B6,D+*%
%TO.N,/jtag-prog/D+*%
X119982500Y-106635000D03*
%TO.P,J1,B7,D-*%
%TO.N,/jtag-prog/D-*%
X119982500Y-105135000D03*
%TO.P,J1,B8*%
%TO.N,N/C*%
X119982500Y-104135000D03*
D53*
%TO.P,J1,B9,VBUS*%
%TO.N,VBUS3*%
X119982500Y-103485000D03*
%TO.P,J1,B12,GND*%
%TO.N,GND*%
X119982500Y-102685000D03*
D55*
%TO.P,J1,S1,SHIELD*%
X119382500Y-101565000D03*
D56*
X115182500Y-101565000D03*
D55*
X119382500Y-110205000D03*
D56*
X115182500Y-110205000D03*
%TD*%
D53*
%TO.P,J8,A1,GND*%
%TO.N,GND*%
X119795000Y-49485000D03*
%TO.P,J8,A4,VBUS*%
%TO.N,unconnected-(J8-VBUS-PadA4)*%
X119795000Y-50285000D03*
D54*
%TO.P,J8,A5,CC1*%
%TO.N,unconnected-(J8-CC1-PadA5)*%
X119795000Y-51435000D03*
%TO.P,J8,A6,D+*%
%TO.N,/D+*%
X119795000Y-52435000D03*
%TO.P,J8,A7,D-*%
%TO.N,/D-*%
X119795000Y-52935000D03*
%TO.P,J8,A8*%
%TO.N,N/C*%
X119795000Y-53935000D03*
D53*
%TO.P,J8,A9,VBUS*%
%TO.N,unconnected-(J8-VBUS-PadA4)_1*%
X119795000Y-55085000D03*
%TO.P,J8,A12,GND*%
%TO.N,GND*%
X119795000Y-55885000D03*
%TO.P,J8,B1,GND*%
X119795000Y-55885000D03*
%TO.P,J8,B4,VBUS*%
%TO.N,unconnected-(J8-VBUS-PadA4)_3*%
X119795000Y-55085000D03*
D54*
%TO.P,J8,B5,CC2*%
%TO.N,unconnected-(J8-CC2-PadB5)*%
X119795000Y-54435000D03*
%TO.P,J8,B6,D+*%
%TO.N,/D+*%
X119795000Y-53435000D03*
%TO.P,J8,B7,D-*%
%TO.N,/D-*%
X119795000Y-51935000D03*
%TO.P,J8,B8*%
%TO.N,N/C*%
X119795000Y-50935000D03*
D53*
%TO.P,J8,B9,VBUS*%
%TO.N,unconnected-(J8-VBUS-PadA4)_2*%
X119795000Y-50285000D03*
%TO.P,J8,B12,GND*%
%TO.N,GND*%
X119795000Y-49485000D03*
D55*
%TO.P,J8,S1,SHIELD*%
X119195000Y-48365000D03*
D56*
X114995000Y-48365000D03*
D55*
X119195000Y-57005000D03*
D56*
X114995000Y-57005000D03*
%TD*%
D11*
%TO.P,R76,1*%
%TO.N,Net-(R74-Pad2)*%
X121480000Y-67935000D03*
%TO.P,R76,2*%
%TO.N,Net-(U13-VIN+)*%
X123130000Y-67935000D03*
%TD*%
D37*
%TO.P,C1,1*%
%TO.N,VBUS3*%
X150180000Y-103985000D03*
%TO.P,C1,2*%
%TO.N,GND*%
X148630000Y-103985000D03*
%TD*%
D48*
%TO.P,JP3,1,A*%
%TO.N,/IOT_39a*%
X157105000Y-68105000D03*
D49*
%TO.P,JP3,2,C*%
%TO.N,/MATRIX_SPI_MOSI*%
X157105000Y-70645000D03*
%TO.P,JP3,3,B*%
%TO.N,/PR8D*%
X157105000Y-73185000D03*
%TD*%
D30*
%TO.P,C7,1*%
%TO.N,+3.3V_JTAG*%
X139305000Y-111585000D03*
%TO.P,C7,2*%
%TO.N,GND*%
X139305000Y-113135000D03*
%TD*%
D19*
%TO.P,R57,1*%
%TO.N,/CPLD_SCL*%
X190595000Y-96385000D03*
%TO.P,R57,2*%
%TO.N,+3.3V*%
X191615000Y-96385000D03*
%TD*%
D57*
%TO.P,C22,1*%
%TO.N,+3.3V*%
X145030000Y-47485000D03*
%TO.P,C22,2*%
%TO.N,GND*%
X146580000Y-47485000D03*
%TD*%
D32*
%TO.P,Q1,1,G*%
%TO.N,+3.3V*%
X186705000Y-43460000D03*
%TO.P,Q1,2,S*%
%TO.N,/MATRIX_SPI_nCS*%
X186705000Y-45360000D03*
%TO.P,Q1,3,D*%
%TO.N,Net-(Q1-D)*%
X188580000Y-44410000D03*
%TD*%
D58*
%TO.P,Y1,1,1*%
%TO.N,/jtag-prog/XIN*%
X145905000Y-106785000D03*
%TO.P,Y1,2,2*%
%TO.N,GND*%
X145905000Y-104585000D03*
%TO.P,Y1,3,3*%
%TO.N,Net-(C6-Pad1)*%
X144205000Y-104585000D03*
%TO.P,Y1,4,4*%
%TO.N,GND*%
X144205000Y-106785000D03*
%TD*%
D12*
%TO.P,R23,1*%
%TO.N,Net-(J6-Pin_1)*%
X203530000Y-73785000D03*
%TO.P,R23,2*%
%TO.N,Net-(R23-Pad2)*%
X201880000Y-73785000D03*
%TD*%
D11*
%TO.P,R36,1*%
%TO.N,/PB18D*%
X199505000Y-86440000D03*
%TO.P,R36,2*%
%TO.N,Net-(U4-MDAT-)*%
X201155000Y-86440000D03*
%TD*%
D19*
%TO.P,R18,1*%
%TO.N,+3.3V*%
X204495000Y-98185000D03*
%TO.P,R18,2*%
%TO.N,/lcmxo2-cpld-block/PL3A{slash}PCLKT3_2*%
X205515000Y-98185000D03*
%TD*%
D22*
%TO.P,C6,1*%
%TO.N,Net-(C6-Pad1)*%
X143725000Y-102985000D03*
%TO.P,C6,2*%
%TO.N,GND*%
X144685000Y-102985000D03*
%TD*%
D21*
%TO.P,SW7,1,1*%
%TO.N,GND*%
X211690000Y-94385000D03*
%TO.P,SW7,2,2*%
%TO.N,/lcmxo2-cpld-block/PL2C{slash}L_GPLLT_IN*%
X207320000Y-94385000D03*
%TD*%
D25*
%TO.P,R64,1*%
%TO.N,/displays/7SEG_D1*%
X122845000Y-81285000D03*
%TO.P,R64,2*%
%TO.N,GND*%
X121825000Y-81285000D03*
%TD*%
D26*
%TO.P,R29,1*%
%TO.N,+3.3V*%
X193205000Y-80895000D03*
%TO.P,R29,2*%
%TO.N,/ENCODER_B*%
X193205000Y-79875000D03*
%TD*%
D37*
%TO.P,C4,1*%
%TO.N,+3.3V_JTAG*%
X150280000Y-109885000D03*
%TO.P,C4,2*%
%TO.N,GND*%
X148730000Y-109885000D03*
%TD*%
D45*
%TO.P,D1005,1*%
%TO.N,+5V*%
X138955000Y-72285000D03*
%TO.P,D1005,2*%
%TO.N,VBUS3*%
X135655000Y-72285000D03*
%TD*%
D59*
%TO.P,TP1,1,1*%
%TO.N,Net-(U11-Q7S)*%
X143005000Y-92085000D03*
%TD*%
D48*
%TO.P,J1003,1,Pin_1*%
%TO.N,GND*%
X136165000Y-120685000D03*
D49*
%TO.P,J1003,2,Pin_2*%
%TO.N,/jtag-prog/DBG_RX*%
X138705000Y-120685000D03*
%TO.P,J1003,3,Pin_3*%
%TO.N,/jtag-prog/DBG_TX*%
X141245000Y-120685000D03*
%TD*%
D30*
%TO.P,C25,1*%
%TO.N,+3.3V*%
X148505000Y-55010000D03*
%TO.P,C25,2*%
%TO.N,GND*%
X148505000Y-56560000D03*
%TD*%
D48*
%TO.P,JP2,1,A*%
%TO.N,/IOT_38b*%
X153405000Y-68105000D03*
D49*
%TO.P,JP2,2,C*%
%TO.N,/ENCODER_A*%
X153405000Y-70645000D03*
%TO.P,JP2,3,B*%
%TO.N,/PB15A*%
X153405000Y-73185000D03*
%TD*%
D26*
%TO.P,R9,1*%
%TO.N,+3.3V*%
X124005000Y-38585000D03*
%TO.P,R9,2*%
%TO.N,Net-(A1-RUN)*%
X124005000Y-37565000D03*
%TD*%
D57*
%TO.P,C26,1*%
%TO.N,+5V*%
X152305000Y-53985000D03*
%TO.P,C26,2*%
%TO.N,GND*%
X153855000Y-53985000D03*
%TD*%
D44*
%TO.P,D4,1,K*%
%TO.N,GND*%
X115705000Y-119785000D03*
%TO.P,D4,2,A*%
%TO.N,Net-(D4-A)*%
X117280000Y-119785000D03*
%TD*%
D60*
%TO.P,U5,1,VCCIO_2*%
%TO.N,+3.3V*%
X134452500Y-49757500D03*
%TO.P,U5,2,IOB_6a*%
%TO.N,/IOB_6a*%
X134452500Y-50257500D03*
%TO.P,U5,3,IOB_9b*%
%TO.N,/RPI_ICE0*%
X134452500Y-50757500D03*
%TO.P,U5,4,IOB_8a*%
%TO.N,/IOB_8a*%
X134452500Y-51257500D03*
%TO.P,U5,5,VCC*%
%TO.N,+3.3V*%
X134452500Y-51757500D03*
%TO.P,U5,6,IOB_13b*%
%TO.N,/IOB_13b*%
X134452500Y-52257500D03*
%TO.P,U5,7,CDONE*%
%TO.N,/ICE_CDONE*%
X134452500Y-52757500D03*
%TO.P,U5,8,~{CRESET}*%
%TO.N,/ICE_nRST*%
X134452500Y-53257500D03*
%TO.P,U5,9,IOB_16a*%
%TO.N,/ICE_USB_N*%
X134452500Y-53757500D03*
%TO.P,U5,10,IOB_18a*%
%TO.N,/ICE_USB_P*%
X134452500Y-54257500D03*
%TO.P,U5,11,IOB_20a*%
%TO.N,/IOB_20a*%
X134452500Y-54757500D03*
%TO.P,U5,12,IOB_22a*%
%TO.N,/IOB_22a*%
X134452500Y-55257500D03*
D61*
%TO.P,U5,13,IOB_24a*%
%TO.N,/RPI_ICE3*%
X135140000Y-55945000D03*
%TO.P,U5,14,IOB_32a_SPI_SO*%
%TO.N,/ICE_SPI_MOSI*%
X135640000Y-55945000D03*
%TO.P,U5,15,IOB_34a_SPI_SCK*%
%TO.N,/ICE_SPI_SCK*%
X136140000Y-55945000D03*
%TO.P,U5,16,IOB_35b_SPI_SS*%
%TO.N,/ICE_SPI_SS*%
X136640000Y-55945000D03*
%TO.P,U5,17,IOB_33b_SPI_SI*%
%TO.N,/ICE_SPI_MISO*%
X137140000Y-55945000D03*
%TO.P,U5,18,IOB_31b*%
%TO.N,/RPI_ICE5*%
X137640000Y-55945000D03*
%TO.P,U5,19,IOB_29b*%
%TO.N,/RPI_ICE2*%
X138140000Y-55945000D03*
%TO.P,U5,20,IOB_25b_G3*%
%TO.N,/RPI_ICE4*%
X138640000Y-55945000D03*
%TO.P,U5,21,IOB_23b*%
%TO.N,/IOB_23b*%
X139140000Y-55945000D03*
%TO.P,U5,22,SPI_VCCIO1*%
%TO.N,+3.3V*%
X139640000Y-55945000D03*
%TO.P,U5,23,IOT_37a*%
%TO.N,/IOT_37a*%
X140140000Y-55945000D03*
%TO.P,U5,24,VPP_2V5*%
%TO.N,Net-(D8-K)*%
X140640000Y-55945000D03*
D60*
%TO.P,U5,25,IOT_36b*%
%TO.N,/IOT_36b*%
X141327500Y-55257500D03*
%TO.P,U5,26,IOT_39a*%
%TO.N,/IOT_39a*%
X141327500Y-54757500D03*
%TO.P,U5,27,IOT_38b*%
%TO.N,/IOT_38b*%
X141327500Y-54257500D03*
%TO.P,U5,28,IOT_41a*%
%TO.N,/RPI_ICE7*%
X141327500Y-53757500D03*
%TO.P,U5,29,VCCPLL*%
%TO.N,Net-(U5D-VCCPLL)*%
X141327500Y-53257500D03*
%TO.P,U5,30,VCC*%
%TO.N,+3.3V*%
X141327500Y-52757500D03*
%TO.P,U5,31,IOT_42b*%
%TO.N,/RPI_ICE1*%
X141327500Y-52257500D03*
%TO.P,U5,32,IOT_43a*%
%TO.N,/IOT_43a*%
X141327500Y-51757500D03*
%TO.P,U5,33,VCCIO_0*%
%TO.N,+3.3V*%
X141327500Y-51257500D03*
%TO.P,U5,34,IOT_44b*%
%TO.N,/IOT_44b*%
X141327500Y-50757500D03*
%TO.P,U5,35,IOT_46b_G0*%
%TO.N,/ICE_CLOCK*%
X141327500Y-50257500D03*
%TO.P,U5,36,IOT_48b*%
%TO.N,/IOT_48b*%
X141327500Y-49757500D03*
D61*
%TO.P,U5,37,IOT_45a_G1*%
%TO.N,/IOT_45a_G1*%
X140640000Y-49070000D03*
%TO.P,U5,38,IOT_50b*%
%TO.N,/IOT_50b*%
X140140000Y-49070000D03*
%TO.P,U5,39,RGB0*%
%TO.N,unconnected-(U5A-RGB0-Pad39)*%
X139640000Y-49070000D03*
%TO.P,U5,40,RGB1*%
%TO.N,/ice40-for-gpio/ICE_LED1*%
X139140000Y-49070000D03*
%TO.P,U5,41,RGB2*%
%TO.N,/ice40-for-gpio/ICE_LED2*%
X138640000Y-49070000D03*
%TO.P,U5,42,IOT_51a*%
%TO.N,/IOT_51a*%
X138140000Y-49070000D03*
%TO.P,U5,43,IOT_49a*%
%TO.N,/RPI_ICE6*%
X137640000Y-49070000D03*
%TO.P,U5,44,IOB_3b_G6*%
%TO.N,/IOB_3b_G6*%
X137140000Y-49070000D03*
%TO.P,U5,45,IOB_5b*%
%TO.N,/IOB_5b*%
X136640000Y-49070000D03*
%TO.P,U5,46,IOB_0a*%
%TO.N,/IOB_0a*%
X136140000Y-49070000D03*
%TO.P,U5,47,IOB_2a*%
%TO.N,/IOB_2a*%
X135640000Y-49070000D03*
%TO.P,U5,48,IOB_4a*%
%TO.N,/IOB_4a*%
X135140000Y-49070000D03*
D62*
%TO.P,U5,49,GND*%
%TO.N,GND*%
X137890000Y-52507500D03*
%TD*%
D48*
%TO.P,J13,1,3V3*%
%TO.N,Net-(J13-3V3-Pad1)*%
X153805000Y-127602500D03*
D49*
%TO.P,J13,2,5V*%
%TO.N,Net-(J13-5V-Pad2)*%
X153805000Y-125062500D03*
%TO.P,J13,3,SDA/GPIO2*%
%TO.N,/CPLD_SDA*%
X156345000Y-127602500D03*
%TO.P,J13,4,5V*%
%TO.N,Net-(J13-5V-Pad2)*%
X156345000Y-125062500D03*
%TO.P,J13,5,SCL/GPIO3*%
%TO.N,/CPLD_SCL*%
X158885000Y-127602500D03*
%TO.P,J13,6,GND*%
%TO.N,GND*%
X158885000Y-125062500D03*
%TO.P,J13,7,GCLK0/GPIO4*%
%TO.N,/lcmxo2-cpld-block/PT15B*%
X161425000Y-127602500D03*
%TO.P,J13,8,GPIO14/TXD*%
%TO.N,/lcmxo2-cpld-block/PB6A*%
X161425000Y-125062500D03*
%TO.P,J13,9,GND*%
%TO.N,GND*%
X163965000Y-127602500D03*
%TO.P,J13,10,GPIO15/RXD*%
%TO.N,/lcmxo2-cpld-block/PB6B*%
X163965000Y-125062500D03*
%TO.P,J13,11,GPIO17*%
%TO.N,/lcmxo2-cpld-block/PR5D{slash}PCLKC1_0*%
X166505000Y-127602500D03*
%TO.P,J13,12,GPIO18/PWM0*%
%TO.N,/lcmxo2-cpld-block/PR5C{slash}PCLKT1_0*%
X166505000Y-125062500D03*
%TO.P,J13,13,GPIO27*%
%TO.N,/lcmxo2-cpld-block/PR2A*%
X169045000Y-127602500D03*
%TO.P,J13,14,GND*%
%TO.N,GND*%
X169045000Y-125062500D03*
%TO.P,J13,15,GPIO22*%
%TO.N,/lcmxo2-cpld-block/PR4B*%
X171585000Y-127602500D03*
%TO.P,J13,16,GPIO23*%
%TO.N,/lcmxo2-cpld-block/PR4A*%
X171585000Y-125062500D03*
%TO.P,J13,17,3V3*%
%TO.N,Net-(J13-3V3-Pad1)*%
X174125000Y-127602500D03*
%TO.P,J13,18,GPIO24*%
%TO.N,/lcmxo2-cpld-block/PR3B*%
X174125000Y-125062500D03*
%TO.P,J13,19,MOSI0/GPIO10*%
%TO.N,/CPLD_MOSI*%
X176665000Y-127602500D03*
%TO.P,J13,20,GND*%
%TO.N,GND*%
X176665000Y-125062500D03*
%TO.P,J13,21,MISO0/GPIO9*%
%TO.N,/CPLD_MISO*%
X179205000Y-127602500D03*
%TO.P,J13,22,GPIO25*%
%TO.N,/lcmxo2-cpld-block/PR3A*%
X179205000Y-125062500D03*
%TO.P,J13,23,SCLK0/GPIO11*%
%TO.N,/CPLDK_SCK*%
X181745000Y-127602500D03*
%TO.P,J13,24,~{CE0}/GPIO8*%
%TO.N,/CPLD_SPI_CS*%
X181745000Y-125062500D03*
%TO.P,J13,25,GND*%
%TO.N,GND*%
X184285000Y-127602500D03*
%TO.P,J13,26,~{CE1}/GPIO7*%
%TO.N,/CPLD_SPI_MCS*%
X184285000Y-125062500D03*
%TO.P,J13,27,ID_SD/GPIO0*%
%TO.N,/lcmxo2-cpld-block/PB4D*%
X186825000Y-127602500D03*
%TO.P,J13,28,ID_SC/GPIO1*%
%TO.N,/lcmxo2-cpld-block/PT16C*%
X186825000Y-125062500D03*
%TO.P,J13,29,GCLK1/GPIO5*%
%TO.N,/lcmxo2-cpld-block/PT12A{slash}PCLKT0_1*%
X189365000Y-127602500D03*
%TO.P,J13,30,GND*%
%TO.N,GND*%
X189365000Y-125062500D03*
%TO.P,J13,31,GCLK2/GPIO6*%
%TO.N,/lcmxo2-cpld-block/PT12B{slash}PCLKC0_1*%
X191905000Y-127602500D03*
%TO.P,J13,32,PWM0/GPIO12*%
%TO.N,/lcmxo2-cpld-block/PT15A*%
X191905000Y-125062500D03*
%TO.P,J13,33,PWM1/GPIO13*%
%TO.N,/lcmxo2-cpld-block/PL3B{slash}PCLKC3_2*%
X194445000Y-127602500D03*
%TO.P,J13,34,GND*%
%TO.N,GND*%
X194445000Y-125062500D03*
%TO.P,J13,35,GPIO19/MISO1*%
%TO.N,/lcmxo2-cpld-block/PR5A*%
X196985000Y-127602500D03*
%TO.P,J13,36,GPIO16*%
%TO.N,/lcmxo2-cpld-block/PR5B*%
X196985000Y-125062500D03*
%TO.P,J13,37,GPIO26*%
%TO.N,/lcmxo2-cpld-block/PR2B*%
X199525000Y-127602500D03*
%TO.P,J13,38,GPIO20/MOSI1*%
%TO.N,/lcmxo2-cpld-block/PR4D*%
X199525000Y-125062500D03*
%TO.P,J13,39,GND*%
%TO.N,GND*%
X202065000Y-127602500D03*
%TO.P,J13,40,GPIO21/SCLK1*%
%TO.N,/lcmxo2-cpld-block/PR4C*%
X202065000Y-125062500D03*
%TD*%
D19*
%TO.P,R43,1*%
%TO.N,+3.3V*%
X122950000Y-57632500D03*
%TO.P,R43,2*%
%TO.N,/ice40-for-gpio/ICE_SPI_IO2*%
X123970000Y-57632500D03*
%TD*%
D63*
%TO.P,J7,1,Pin_1*%
%TO.N,/PL4B*%
X210705001Y-105627500D03*
%TO.P,J7,2,Pin_2*%
%TO.N,/PR8A*%
X206505002Y-105627500D03*
%TO.P,J7,3,Pin_3*%
%TO.N,/PL10D*%
X210705001Y-106262500D03*
%TO.P,J7,4,Pin_4*%
%TO.N,/PR8C*%
X206505002Y-106262500D03*
%TO.P,J7,5,Pin_5*%
%TO.N,unconnected-(J7-Pin_5-Pad5)*%
X210705001Y-106897500D03*
%TO.P,J7,6,Pin_6*%
%TO.N,/PL10C*%
X206505002Y-106897500D03*
%TO.P,J7,7,Pin_7*%
%TO.N,+5V*%
X210705001Y-107532500D03*
%TO.P,J7,8,Pin_8*%
X206505002Y-107532500D03*
%TO.P,J7,9,Pin_9*%
%TO.N,unconnected-(J7-Pin_9-Pad9)*%
X210705001Y-108167500D03*
%TO.P,J7,10,Pin_10*%
%TO.N,unconnected-(J7-Pin_10-Pad10)*%
X206505002Y-108167500D03*
%TO.P,J7,11,Pin_11*%
%TO.N,GND*%
X210705001Y-108802500D03*
%TO.P,J7,12,Pin_12*%
X206505002Y-108802500D03*
%TO.P,J7,13,Pin_13*%
%TO.N,unconnected-(J7-Pin_13-Pad13)*%
X210705001Y-109437500D03*
%TO.P,J7,14,Pin_14*%
%TO.N,unconnected-(J7-Pin_14-Pad14)*%
X206505002Y-109437500D03*
%TO.P,J7,15,Pin_15*%
%TO.N,/PB11C*%
X210705001Y-110072500D03*
%TO.P,J7,16,Pin_16*%
%TO.N,/PB9B{slash}PCLKC2_0*%
X206505002Y-110072500D03*
%TO.P,J7,17,Pin_17*%
%TO.N,/PB9A{slash}PCLKT2_0*%
X210705001Y-110707500D03*
%TO.P,J7,18,Pin_18*%
%TO.N,/PB11A{slash}PCLKT2_1*%
X206505002Y-110707500D03*
%TO.P,J7,19,Pin_19*%
%TO.N,/PB11D*%
X210705001Y-111342500D03*
%TO.P,J7,20,Pin_20*%
%TO.N,/PL4A*%
X206505002Y-111342500D03*
D64*
%TO.P,J7,21,Pin_21*%
%TO.N,unconnected-(J7-Pin_21-Pad21)*%
X208605000Y-102575008D03*
%TO.P,J7,22,Pin_22*%
%TO.N,unconnected-(J7-Pin_22-Pad22)*%
X208605000Y-114394992D03*
%TD*%
D13*
%TO.P,R77,1*%
%TO.N,GND*%
X119705000Y-71135000D03*
%TO.P,R77,2*%
%TO.N,Net-(U13-VIN-)*%
X119705000Y-72785000D03*
%TD*%
D36*
%TO.P,C21,1*%
%TO.N,+3.3V*%
X132885000Y-48885000D03*
%TO.P,C21,2*%
%TO.N,GND*%
X131925000Y-48885000D03*
%TD*%
D48*
%TO.P,JP6,1,A*%
%TO.N,/IOT_45a_G1*%
X164505000Y-68085000D03*
D49*
%TO.P,JP6,2,C*%
%TO.N,/ENCODER_BTN*%
X164505000Y-70625000D03*
%TO.P,JP6,3,B*%
%TO.N,/PB11B{slash}PCLKC2_1*%
X164505000Y-73165000D03*
%TD*%
D57*
%TO.P,C30,1*%
%TO.N,+1V2*%
X152300000Y-48257500D03*
%TO.P,C30,2*%
%TO.N,GND*%
X153850000Y-48257500D03*
%TD*%
D11*
%TO.P,R33,1*%
%TO.N,/PB18A*%
X199505000Y-81140000D03*
%TO.P,R33,2*%
%TO.N,Net-(U4-MCLKIN+)*%
X201155000Y-81140000D03*
%TD*%
D27*
%TO.P,D6,1,K*%
%TO.N,GND*%
X130705000Y-31797500D03*
%TO.P,D6,2,A*%
%TO.N,Net-(D6-A)*%
X130705000Y-33372500D03*
%TD*%
D44*
%TO.P,D5,1,K*%
%TO.N,GND*%
X116217500Y-38985000D03*
%TO.P,D5,2,A*%
%TO.N,/ICE_CDONE*%
X117792500Y-38985000D03*
%TD*%
D10*
%TO.P,R31,1*%
%TO.N,Net-(U4-MDAT-)*%
X202905000Y-86290000D03*
%TO.P,R31,2*%
%TO.N,Net-(U4-MDAT+)*%
X202905000Y-84640000D03*
%TD*%
D32*
%TO.P,Q3,1,G*%
%TO.N,+3.3V*%
X186730000Y-53035000D03*
%TO.P,Q3,2,S*%
%TO.N,/MATRIX_SPI_MOSI*%
X186730000Y-54935000D03*
%TO.P,Q3,3,D*%
%TO.N,Net-(Q3-D)*%
X188605000Y-53985000D03*
%TD*%
D12*
%TO.P,R80,1*%
%TO.N,Net-(J1001-Pin_1)*%
X129130000Y-68985000D03*
%TO.P,R80,2*%
%TO.N,Net-(U13-MCLKIN+)*%
X127480000Y-68985000D03*
%TD*%
D21*
%TO.P,SW3,1,1*%
%TO.N,GND*%
X212390000Y-45785000D03*
%TO.P,SW3,2,2*%
%TO.N,/ICE_BTN*%
X208020000Y-45785000D03*
%TD*%
D12*
%TO.P,R82,1*%
%TO.N,Net-(J1001-Pin_3)*%
X129130000Y-70785000D03*
%TO.P,R82,2*%
%TO.N,Net-(U13-MDAT+)*%
X127480000Y-70785000D03*
%TD*%
D48*
%TO.P,J10,1,Pin_1*%
%TO.N,Net-(J10-Pin_1)*%
X173605000Y-35885000D03*
D49*
%TO.P,J10,2,Pin_2*%
%TO.N,Net-(J10-Pin_2)*%
X176145000Y-35885000D03*
%TO.P,J10,3,Pin_3*%
%TO.N,Net-(J10-Pin_3)*%
X178685000Y-35885000D03*
%TO.P,J10,4,Pin_4*%
%TO.N,Net-(J10-Pin_4)*%
X181225000Y-35885000D03*
%TO.P,J10,5,Pin_5*%
%TO.N,Net-(J10-Pin_5)*%
X183765000Y-35885000D03*
%TO.P,J10,6,Pin_6*%
%TO.N,Net-(J10-Pin_6)*%
X186305000Y-35885000D03*
%TO.P,J10,7,Pin_7*%
%TO.N,Net-(J10-Pin_7)*%
X188845000Y-35885000D03*
%TO.P,J10,8,Pin_8*%
%TO.N,Net-(J10-Pin_8)*%
X191385000Y-35885000D03*
%TD*%
D65*
%TO.P,U2,1,~{CS}*%
%TO.N,/jtag-prog/QSPI_SS*%
X123687500Y-109872500D03*
%TO.P,U2,2,DO/IO_{1}*%
%TO.N,/jtag-prog/QSPI_SD1*%
X124957500Y-109872500D03*
%TO.P,U2,3,~{WP}/IO_{2}*%
%TO.N,/jtag-prog/QSPI_SD2*%
X126227500Y-109872500D03*
%TO.P,U2,4,GND*%
%TO.N,GND*%
X127497500Y-109872500D03*
%TO.P,U2,5,DI/IO_{0}*%
%TO.N,/jtag-prog/QSPI_SD0*%
X127497500Y-102697500D03*
%TO.P,U2,6,CLK*%
%TO.N,/jtag-prog/QSPI_SCLK*%
X126227500Y-102697500D03*
%TO.P,U2,7,~{HOLD}/~{RESET}/IO_{3}*%
%TO.N,/jtag-prog/QSPI_SD3*%
X124957500Y-102697500D03*
%TO.P,U2,8,VCC*%
%TO.N,+3.3V_JTAG*%
X123687500Y-102697500D03*
%TD*%
D25*
%TO.P,R69,1*%
%TO.N,Net-(U12-D2)*%
X125605000Y-81547500D03*
%TO.P,R69,2*%
%TO.N,Net-(Q6-D)*%
X124585000Y-81547500D03*
%TD*%
D31*
%TO.P,D2,1,K*%
%TO.N,GND*%
X211892500Y-57685000D03*
%TO.P,D2,2,A*%
%TO.N,Net-(D2-A)*%
X210317500Y-57685000D03*
%TD*%
D48*
%TO.P,JP4,1,A*%
%TO.N,/IOT_36b*%
X160805000Y-68060000D03*
D49*
%TO.P,JP4,2,C*%
%TO.N,/ENCODER_B*%
X160805000Y-70600000D03*
%TO.P,JP4,3,B*%
%TO.N,/PB15B*%
X160805000Y-73140000D03*
%TD*%
D25*
%TO.P,R67,1*%
%TO.N,/displays/7SEG_D3*%
X144095000Y-81585000D03*
%TO.P,R67,2*%
%TO.N,GND*%
X143075000Y-81585000D03*
%TD*%
D37*
%TO.P,C47,1*%
%TO.N,+3.3V*%
X140280000Y-91985000D03*
%TO.P,C47,2*%
%TO.N,GND*%
X138730000Y-91985000D03*
%TD*%
D21*
%TO.P,SW8,1,1*%
%TO.N,GND*%
X211490000Y-98085000D03*
%TO.P,SW8,2,2*%
%TO.N,/lcmxo2-cpld-block/PL3A{slash}PCLKT3_2*%
X207120000Y-98085000D03*
%TD*%
D36*
%TO.P,C48,1*%
%TO.N,+3.3V*%
X129005000Y-74835000D03*
%TO.P,C48,2*%
%TO.N,GND*%
X128045000Y-74835000D03*
%TD*%
D22*
%TO.P,C35,1*%
%TO.N,/lcmxo2-cpld-block/VCCIO1*%
X198845000Y-103185000D03*
%TO.P,C35,2*%
%TO.N,GND*%
X199805000Y-103185000D03*
%TD*%
D27*
%TO.P,D15,1,K*%
%TO.N,GND*%
X189105000Y-87510000D03*
%TO.P,D15,2,A*%
%TO.N,Net-(D15-A)*%
X189105000Y-89085000D03*
%TD*%
D19*
%TO.P,R17,1*%
%TO.N,+3.3V*%
X204505000Y-94485000D03*
%TO.P,R17,2*%
%TO.N,/lcmxo2-cpld-block/PL2C{slash}L_GPLLT_IN*%
X205525000Y-94485000D03*
%TD*%
%TO.P,R68,1*%
%TO.N,/displays/7SEG_D2*%
X124575000Y-86347500D03*
%TO.P,R68,2*%
%TO.N,GND*%
X125595000Y-86347500D03*
%TD*%
D66*
%TO.P,Q7,1,G*%
%TO.N,/displays/7SEG_D4*%
X147845000Y-83185000D03*
%TO.P,Q7,2,S*%
%TO.N,GND*%
X145945000Y-83185000D03*
%TO.P,Q7,3,D*%
%TO.N,Net-(Q7-D)*%
X146895000Y-85060000D03*
%TD*%
D48*
%TO.P,J1001,1,Pin_1*%
%TO.N,Net-(J1001-Pin_1)*%
X132530000Y-67085000D03*
D49*
%TO.P,J1001,2,Pin_2*%
%TO.N,Net-(J1001-Pin_2)*%
X132530000Y-69625000D03*
%TO.P,J1001,3,Pin_3*%
%TO.N,Net-(J1001-Pin_3)*%
X132530000Y-72165000D03*
%TO.P,J1001,4,Pin_4*%
%TO.N,Net-(J1001-Pin_4)*%
X132530000Y-74705000D03*
%TD*%
D66*
%TO.P,Q5,1,G*%
%TO.N,/displays/7SEG_D3*%
X143785000Y-83210000D03*
%TO.P,Q5,2,S*%
%TO.N,GND*%
X141885000Y-83210000D03*
%TO.P,Q5,3,D*%
%TO.N,Net-(Q5-D)*%
X142835000Y-85085000D03*
%TD*%
D44*
%TO.P,D11,1,K*%
%TO.N,GND*%
X115717500Y-93585000D03*
%TO.P,D11,2,A*%
%TO.N,Net-(D11-A)*%
X117292500Y-93585000D03*
%TD*%
D36*
%TO.P,C24,1*%
%TO.N,GND*%
X125085000Y-46985000D03*
%TO.P,C24,2*%
%TO.N,+3.3V*%
X124125000Y-46985000D03*
%TD*%
D13*
%TO.P,R78,1*%
%TO.N,Net-(U13-MCLKIN\u2212)*%
X125805000Y-67285000D03*
%TO.P,R78,2*%
%TO.N,Net-(U13-MCLKIN+)*%
X125805000Y-68935000D03*
%TD*%
D48*
%TO.P,J5,1,Pin_1*%
%TO.N,/IOB_0a*%
X147030000Y-34810000D03*
D49*
%TO.P,J5,2,Pin_2*%
%TO.N,/IOB_5b*%
X147030000Y-32270000D03*
%TO.P,J5,3,Pin_3*%
%TO.N,/IOB_2a*%
X144490000Y-34810000D03*
%TO.P,J5,4,Pin_4*%
%TO.N,/IOB_6a*%
X144490000Y-32270000D03*
%TO.P,J5,5,Pin_5*%
%TO.N,/IOB_3b_G6*%
X141950000Y-34810000D03*
%TO.P,J5,6,Pin_6*%
%TO.N,/IOB_8a*%
X141950000Y-32270000D03*
%TO.P,J5,7,Pin_7*%
%TO.N,/IOB_4a*%
X139410000Y-34810000D03*
%TO.P,J5,8,Pin_8*%
%TO.N,/IOT_51a*%
X139410000Y-32270000D03*
%TO.P,J5,9,Pin_9*%
%TO.N,GND*%
X136870000Y-34810000D03*
%TO.P,J5,10,Pin_10*%
X136870000Y-32270000D03*
%TO.P,J5,11,Pin_11*%
%TO.N,+3.3V*%
X134330000Y-34810000D03*
%TO.P,J5,12,Pin_12*%
X134330000Y-32270000D03*
%TD*%
D57*
%TO.P,C51,1*%
%TO.N,+5V*%
X140755000Y-66735000D03*
%TO.P,C51,2*%
%TO.N,GND*%
X142305000Y-66735000D03*
%TD*%
D66*
%TO.P,Q4,1,G*%
%TO.N,/displays/7SEG_D1*%
X122485000Y-82847500D03*
%TO.P,Q4,2,S*%
%TO.N,GND*%
X120585000Y-82847500D03*
%TO.P,Q4,3,D*%
%TO.N,Net-(Q4-D)*%
X121535000Y-84722500D03*
%TD*%
D11*
%TO.P,R35,1*%
%TO.N,/PB18C*%
X199505000Y-84640000D03*
%TO.P,R35,2*%
%TO.N,Net-(U4-MDAT+)*%
X201155000Y-84640000D03*
%TD*%
D19*
%TO.P,R16,1*%
%TO.N,+3.3V*%
X204695000Y-90885000D03*
%TO.P,R16,2*%
%TO.N,/lcmxo2-cpld-block/PL2D{slash}L_GPLLC_IN*%
X205715000Y-90885000D03*
%TD*%
D14*
%TO.P,R47,1*%
%TO.N,+3.3V*%
X185305000Y-50255000D03*
%TO.P,R47,2*%
%TO.N,/MATRIX_SPI_SCK*%
X185305000Y-51275000D03*
%TD*%
D67*
%TO.P,FB3,1*%
%TO.N,+3.3V*%
X192005000Y-119672500D03*
%TO.P,FB3,2*%
%TO.N,/lcmxo2-cpld-block/VCCIO2*%
X192005000Y-118097500D03*
%TD*%
D68*
%TO.P,Q6,1,G*%
%TO.N,/displays/7SEG_D2*%
X124935000Y-84885000D03*
%TO.P,Q6,2,S*%
%TO.N,GND*%
X126835000Y-84885000D03*
%TO.P,Q6,3,D*%
%TO.N,Net-(Q6-D)*%
X125885000Y-83010000D03*
%TD*%
D69*
%TO.P,U8,1,DIN*%
%TO.N,Net-(Q3-D)*%
X203340000Y-63255000D03*
D40*
%TO.P,U8,2,DIG_0*%
%TO.N,Net-(J11-Pin_1)*%
X203340000Y-60715000D03*
%TO.P,U8,3,DIG_4*%
%TO.N,Net-(J11-Pin_5)*%
X203340000Y-58175000D03*
%TO.P,U8,4,GND*%
%TO.N,GND*%
X203340000Y-55635000D03*
%TO.P,U8,5,DIG_6*%
%TO.N,Net-(J11-Pin_7)*%
X203340000Y-53095000D03*
%TO.P,U8,6,DIG_2*%
%TO.N,Net-(J11-Pin_3)*%
X203340000Y-50555000D03*
%TO.P,U8,7,DIG_3*%
%TO.N,Net-(J11-Pin_4)*%
X203340000Y-48015000D03*
%TO.P,U8,8,DIG_7*%
%TO.N,Net-(J11-Pin_8)*%
X203340000Y-45475000D03*
%TO.P,U8,9,GND*%
%TO.N,GND*%
X203340000Y-42935000D03*
%TO.P,U8,10,DIG_5*%
%TO.N,Net-(J11-Pin_6)*%
X203340000Y-40395000D03*
%TO.P,U8,11,DIG_1*%
%TO.N,Net-(J11-Pin_2)*%
X203340000Y-37855000D03*
%TO.P,U8,12,~{CS}*%
%TO.N,Net-(Q1-D)*%
X203340000Y-35315000D03*
%TO.P,U8,13,CLK*%
%TO.N,Net-(Q2-D)*%
X195720000Y-35315000D03*
%TO.P,U8,14,SEG_A*%
%TO.N,Net-(J10-Pin_1)*%
X195720000Y-37855000D03*
%TO.P,U8,15,SEG_F*%
%TO.N,Net-(J10-Pin_6)*%
X195720000Y-40395000D03*
%TO.P,U8,16,SEG_B*%
%TO.N,Net-(J10-Pin_2)*%
X195720000Y-42935000D03*
%TO.P,U8,17,SEG_G*%
%TO.N,Net-(J10-Pin_7)*%
X195720000Y-45475000D03*
%TO.P,U8,18,ISET*%
%TO.N,Net-(U8-ISET)*%
X195720000Y-48015000D03*
%TO.P,U8,19,V+*%
%TO.N,+5V*%
X195720000Y-50555000D03*
%TO.P,U8,20,SEG_C*%
%TO.N,Net-(J10-Pin_3)*%
X195720000Y-53095000D03*
%TO.P,U8,21,SEG_E*%
%TO.N,Net-(J10-Pin_5)*%
X195720000Y-55635000D03*
%TO.P,U8,22,SEG_DP*%
%TO.N,Net-(J10-Pin_8)*%
X195720000Y-58175000D03*
%TO.P,U8,23,SEG_D*%
%TO.N,Net-(J10-Pin_4)*%
X195720000Y-60715000D03*
%TO.P,U8,24,DOUT*%
%TO.N,unconnected-(U8-DOUT-Pad24)*%
X195720000Y-63255000D03*
%TD*%
D43*
%TO.P,U7,1,IN*%
%TO.N,+5V*%
X152335000Y-52262500D03*
%TO.P,U7,2,GND*%
%TO.N,GND*%
X153285000Y-52262500D03*
%TO.P,U7,3,EN*%
%TO.N,+5V*%
X154235000Y-52262500D03*
%TO.P,U7,4,NC*%
%TO.N,unconnected-(U7-NC-Pad4)*%
X154235000Y-49987500D03*
%TO.P,U7,5,OUT*%
%TO.N,+1V2*%
X152335000Y-49987500D03*
%TD*%
D48*
%TO.P,JP5,1,A*%
%TO.N,/IOT_48b*%
X168205000Y-68085000D03*
D49*
%TO.P,JP5,2,C*%
%TO.N,/MATRIX_SPI_SCK*%
X168205000Y-70625000D03*
%TO.P,JP5,3,B*%
%TO.N,/PR10D*%
X168205000Y-73165000D03*
%TD*%
D17*
%TO.P,C14,1*%
%TO.N,/ENCODER_B*%
X193205000Y-78865000D03*
%TO.P,C14,2*%
%TO.N,GND*%
X193205000Y-77905000D03*
%TD*%
D48*
%TO.P,JP1,1,A*%
%TO.N,/IOT_44b*%
X149705000Y-68105000D03*
D49*
%TO.P,JP1,2,C*%
%TO.N,/MATRIX_SPI_nCS*%
X149705000Y-70645000D03*
%TO.P,JP1,3,B*%
%TO.N,/PR10C*%
X149705000Y-73185000D03*
%TD*%
D17*
%TO.P,C34,1*%
%TO.N,/lcmxo2-cpld-block/VCCIO0*%
X193305000Y-98465000D03*
%TO.P,C34,2*%
%TO.N,GND*%
X193305000Y-97505000D03*
%TD*%
D36*
%TO.P,C2,1*%
%TO.N,GND*%
X124105000Y-100985000D03*
%TO.P,C2,2*%
%TO.N,+3.3V_JTAG*%
X123145000Y-100985000D03*
%TD*%
D70*
%TO.P,U1,1,GND*%
%TO.N,GND*%
X145905000Y-68935000D03*
%TO.P,U1,2,VO*%
%TO.N,+3.3V*%
X143605000Y-68935000D03*
D71*
X143605000Y-75235000D03*
D70*
%TO.P,U1,3,VI*%
%TO.N,+5V*%
X141305000Y-68935000D03*
%TD*%
D38*
%TO.P,C27,1*%
%TO.N,+3.3V*%
X146905000Y-57305000D03*
%TO.P,C27,2*%
%TO.N,GND*%
X146905000Y-58265000D03*
%TD*%
D22*
%TO.P,C28,1*%
%TO.N,Net-(U5D-VCCPLL)*%
X144425000Y-51685000D03*
%TO.P,C28,2*%
%TO.N,GND*%
X145385000Y-51685000D03*
%TD*%
D65*
%TO.P,U6,1,~{CS}*%
%TO.N,/ICE_SPI_SS*%
X123550000Y-55922500D03*
%TO.P,U6,2,DO/IO_{1}*%
%TO.N,/ICE_SPI_MISO*%
X124820000Y-55922500D03*
%TO.P,U6,3,~{WP}/IO_{2}*%
%TO.N,/ice40-for-gpio/ICE_SPI_IO2*%
X126090000Y-55922500D03*
%TO.P,U6,4,GND*%
%TO.N,GND*%
X127360000Y-55922500D03*
%TO.P,U6,5,DI/IO_{0}*%
%TO.N,/ICE_SPI_MOSI*%
X127360000Y-48747500D03*
%TO.P,U6,6,CLK*%
%TO.N,/ICE_SPI_SCK*%
X126090000Y-48747500D03*
%TO.P,U6,7,~{HOLD}/~{RESET}/IO_{3}*%
%TO.N,/ice40-for-gpio/ICE_SPI_IO3*%
X124820000Y-48747500D03*
%TO.P,U6,8,VCC*%
%TO.N,+3.3V*%
X123550000Y-48747500D03*
%TD*%
D48*
%TO.P,J11,1,Pin_1*%
%TO.N,Net-(J11-Pin_1)*%
X173605000Y-63825000D03*
D49*
%TO.P,J11,2,Pin_2*%
%TO.N,Net-(J11-Pin_2)*%
X176145000Y-63825000D03*
%TO.P,J11,3,Pin_3*%
%TO.N,Net-(J11-Pin_3)*%
X178685000Y-63825000D03*
%TO.P,J11,4,Pin_4*%
%TO.N,Net-(J11-Pin_4)*%
X181225000Y-63825000D03*
%TO.P,J11,5,Pin_5*%
%TO.N,Net-(J11-Pin_5)*%
X183765000Y-63825000D03*
%TO.P,J11,6,Pin_6*%
%TO.N,Net-(J11-Pin_6)*%
X186305000Y-63825000D03*
%TO.P,J11,7,Pin_7*%
%TO.N,Net-(J11-Pin_7)*%
X188845000Y-63825000D03*
%TO.P,J11,8,Pin_8*%
%TO.N,Net-(J11-Pin_8)*%
X191385000Y-63825000D03*
%TD*%
D36*
%TO.P,C9,1*%
%TO.N,+1V*%
X131285000Y-106825000D03*
%TO.P,C9,2*%
%TO.N,GND*%
X130325000Y-106825000D03*
%TD*%
%TO.P,C42,1*%
%TO.N,/lcmxo2-cpld-block/VCCIO3*%
X179585000Y-107285000D03*
%TO.P,C42,2*%
%TO.N,GND*%
X178625000Y-107285000D03*
%TD*%
D26*
%TO.P,R37,1*%
%TO.N,+3.3V*%
X171805000Y-76295000D03*
%TO.P,R37,2*%
%TO.N,/ENCODER_BTN*%
X171805000Y-75275000D03*
%TD*%
D48*
%TO.P,J9,1,Pin_1*%
%TO.N,/displays/SHIFT_REG_DATA*%
X165405000Y-78865000D03*
D49*
%TO.P,J9,2,Pin_2*%
%TO.N,/displays/7SEG_D1*%
X162865000Y-78865000D03*
%TO.P,J9,3,Pin_3*%
%TO.N,/displays/SHIFT_REG_STCLK*%
X165405000Y-81405000D03*
%TO.P,J9,4,Pin_4*%
%TO.N,/displays/7SEG_D2*%
X162865000Y-81405000D03*
%TO.P,J9,5,Pin_5*%
%TO.N,/displays/SHIFT_REG_CLK*%
X165405000Y-83945000D03*
%TO.P,J9,6,Pin_6*%
%TO.N,/displays/7SEG_D3*%
X162865000Y-83945000D03*
%TO.P,J9,7,Pin_7*%
%TO.N,/displays/SHIFT_REG_nMCLR*%
X165405000Y-86485000D03*
%TO.P,J9,8,Pin_8*%
%TO.N,/displays/7SEG_D4*%
X162865000Y-86485000D03*
%TO.P,J9,9,Pin_9*%
%TO.N,/displays/SHIFT_REG_OE*%
X165405000Y-89025000D03*
%TO.P,J9,10,Pin_10*%
%TO.N,GND*%
X162865000Y-89025000D03*
%TO.P,J9,11,Pin_11*%
%TO.N,+3.3V*%
X165405000Y-91565000D03*
%TO.P,J9,12,Pin_12*%
X162865000Y-91565000D03*
%TD*%
D25*
%TO.P,R70,1*%
%TO.N,/displays/7SEG_D4*%
X148115000Y-81585000D03*
%TO.P,R70,2*%
%TO.N,GND*%
X147095000Y-81585000D03*
%TD*%
D37*
%TO.P,C19,1*%
%TO.N,+3.3V*%
X132580000Y-47685000D03*
%TO.P,C19,2*%
%TO.N,GND*%
X131030000Y-47685000D03*
%TD*%
D25*
%TO.P,R72,1*%
%TO.N,+3.3V*%
X141815000Y-81585000D03*
%TO.P,R72,2*%
%TO.N,/displays/SHIFT_REG_nMCLR*%
X140795000Y-81585000D03*
%TD*%
D48*
%TO.P,J15,1,Pin_1*%
%TO.N,Net-(J15-Pin_1)*%
X115930000Y-69785000D03*
D49*
%TO.P,J15,2,Pin_2*%
%TO.N,GND*%
X115930000Y-72325000D03*
%TD*%
D19*
%TO.P,R56,1*%
%TO.N,/CPLD_SDA*%
X190595000Y-97385000D03*
%TO.P,R56,2*%
%TO.N,+3.3V*%
X191615000Y-97385000D03*
%TD*%
D22*
%TO.P,C33,1*%
%TO.N,/lcmxo2-cpld-block/VCCIO1*%
X198925000Y-112185000D03*
%TO.P,C33,2*%
%TO.N,GND*%
X199885000Y-112185000D03*
%TD*%
D12*
%TO.P,R81,1*%
%TO.N,Net-(J1001-Pin_2)*%
X129130000Y-67385000D03*
%TO.P,R81,2*%
%TO.N,Net-(U13-MCLKIN\u2212)*%
X127480000Y-67385000D03*
%TD*%
D11*
%TO.P,R74,1*%
%TO.N,Net-(R73-Pad2)*%
X118780000Y-65935000D03*
%TO.P,R74,2*%
%TO.N,Net-(R74-Pad2)*%
X120430000Y-65935000D03*
%TD*%
D14*
%TO.P,R54,1*%
%TO.N,+3.3V*%
X192005000Y-93275000D03*
%TO.P,R54,2*%
%TO.N,/lcmxo2-cpld-block/PT15D{slash}PROGRAMN*%
X192005000Y-94295000D03*
%TD*%
D19*
%TO.P,R19,1*%
%TO.N,+3.3V*%
X205595000Y-45685000D03*
%TO.P,R19,2*%
%TO.N,/ICE_BTN*%
X206615000Y-45685000D03*
%TD*%
D11*
%TO.P,R73,1*%
%TO.N,Net-(J15-Pin_1)*%
X115605000Y-65985000D03*
%TO.P,R73,2*%
%TO.N,Net-(R73-Pad2)*%
X117255000Y-65985000D03*
%TD*%
D67*
%TO.P,D12,1,K*%
%TO.N,GND*%
X132505000Y-121272500D03*
%TO.P,D12,2,A*%
%TO.N,Net-(D12-A)*%
X132505000Y-119697500D03*
%TD*%
D48*
%TO.P,J3,1,Pin_1*%
%TO.N,/GPIO18_SPI0_SCK*%
X164725000Y-32145000D03*
D49*
%TO.P,J3,2,Pin_2*%
%TO.N,/GPIO19_SPI0_TX*%
X164725000Y-34685000D03*
%TO.P,J3,3,Pin_3*%
%TO.N,/GPIO16_SPI0_RX*%
X162185000Y-32145000D03*
%TO.P,J3,4,Pin_4*%
%TO.N,/GPIO17_SPI0_CSn*%
X162185000Y-34685000D03*
%TO.P,J3,5,Pin_5*%
%TO.N,/ICE_CLOCK*%
X159645000Y-32145000D03*
%TO.P,J3,6,Pin_6*%
%TO.N,GND*%
X159645000Y-34685000D03*
%TO.P,J3,7,Pin_7*%
%TO.N,/GPIO20_I2C0_SDA*%
X157105000Y-32145000D03*
%TO.P,J3,8,Pin_8*%
%TO.N,/GPIO21_I2C0_SCL*%
X157105000Y-34685000D03*
%TO.P,J3,9,Pin_9*%
%TO.N,/GPIO26_ADC0*%
X154565000Y-32145000D03*
%TO.P,J3,10,Pin_10*%
%TO.N,/GPIO27_ADC1*%
X154565000Y-34685000D03*
%TO.P,J3,11,Pin_11*%
%TO.N,unconnected-(J3-Pin_11-Pad11)*%
X152025000Y-32145000D03*
%TO.P,J3,12,Pin_12*%
%TO.N,+3.3V*%
X152025000Y-34685000D03*
%TD*%
D26*
%TO.P,R10,1*%
%TO.N,Net-(A1-GPIO10)*%
X149905000Y-59105000D03*
%TO.P,R10,2*%
%TO.N,/ICE_CLOCK*%
X149905000Y-58085000D03*
%TD*%
%TO.P,R50,1*%
%TO.N,+5V*%
X190205000Y-51285000D03*
%TO.P,R50,2*%
%TO.N,Net-(Q2-D)*%
X190205000Y-50265000D03*
%TD*%
D11*
%TO.P,R59,1*%
%TO.N,/jtag-prog/TDI*%
X170180000Y-88915000D03*
%TO.P,R59,2*%
%TO.N,/TDI*%
X171830000Y-88915000D03*
%TD*%
D72*
%TO.P,U11,1,Q1*%
%TO.N,/displays/7SEG_B*%
X130355000Y-86777500D03*
%TO.P,U11,2,Q2*%
%TO.N,/displays/7SEG_C*%
X131635000Y-86777500D03*
%TO.P,U11,3,Q3*%
%TO.N,/displays/7SEG_D*%
X132895000Y-86777500D03*
%TO.P,U11,4,Q4*%
%TO.N,/displays/7SEG_E*%
X134165000Y-86777500D03*
%TO.P,U11,5,Q5*%
%TO.N,/displays/7SEG_F*%
X135445000Y-86777500D03*
%TO.P,U11,6,Q6*%
%TO.N,/displays/7SEG_G*%
X136715000Y-86777500D03*
%TO.P,U11,7,Q7*%
%TO.N,unconnected-(U11-Q7-Pad7)*%
X137975000Y-86777500D03*
%TO.P,U11,8,GND*%
%TO.N,GND*%
X139255000Y-86777500D03*
%TO.P,U11,9,Q7S*%
%TO.N,Net-(U11-Q7S)*%
X139255000Y-81297500D03*
%TO.P,U11,10,MR#*%
%TO.N,/displays/SHIFT_REG_nMCLR*%
X137975000Y-81297500D03*
%TO.P,U11,11,SHCP*%
%TO.N,/displays/SHIFT_REG_CLK*%
X136715000Y-81297500D03*
%TO.P,U11,12,STCP*%
%TO.N,/displays/SHIFT_REG_STCLK*%
X135445000Y-81297500D03*
%TO.P,U11,13,OE#*%
%TO.N,/displays/SHIFT_REG_OE*%
X134165000Y-81297500D03*
%TO.P,U11,14,DS*%
%TO.N,/displays/SHIFT_REG_DATA*%
X132895000Y-81297500D03*
%TO.P,U11,15,Q0*%
%TO.N,/displays/7SEG_A*%
X131635000Y-81297500D03*
%TO.P,U11,16,VCC*%
%TO.N,+3.3V*%
X130355000Y-81297500D03*
%TD*%
D17*
%TO.P,C36,1*%
%TO.N,/lcmxo2-cpld-block/VCCIO0*%
X186805000Y-98565000D03*
%TO.P,C36,2*%
%TO.N,GND*%
X186805000Y-97605000D03*
%TD*%
D48*
%TO.P,J1002,1,Pin_1*%
%TO.N,/PT10C{slash}TDO*%
X176995000Y-88935000D03*
D49*
%TO.P,J1002,2,Pin_2*%
%TO.N,/TDI*%
X174455000Y-88935000D03*
%TO.P,J1002,3,Pin_3*%
%TO.N,/PT10D{slash}TDI*%
X176995000Y-91475000D03*
%TO.P,J1002,4,Pin_4*%
%TO.N,/TDO*%
X174455000Y-91475000D03*
%TO.P,J1002,5,Pin_5*%
%TO.N,/PT11C{slash}TCK*%
X176995000Y-94015000D03*
%TO.P,J1002,6,Pin_6*%
%TO.N,/TCK*%
X174455000Y-94015000D03*
%TO.P,J1002,7,Pin_7*%
%TO.N,/PT11D{slash}TMS*%
X176995000Y-96555000D03*
%TO.P,J1002,8,Pin_8*%
%TO.N,/TMS*%
X174455000Y-96555000D03*
%TO.P,J1002,9,Pin_9*%
%TO.N,GND*%
X176995000Y-99095000D03*
%TO.P,J1002,10,Pin_10*%
X174455000Y-99095000D03*
%TD*%
D18*
%TO.P,SW2,1,1*%
%TO.N,GND*%
X124005000Y-31500000D03*
%TO.P,SW2,2,2*%
%TO.N,Net-(A1-RUN)*%
X124005000Y-35870000D03*
%TD*%
D25*
%TO.P,R58,1*%
%TO.N,+3.3V*%
X197925000Y-98885000D03*
%TO.P,R58,2*%
%TO.N,/lcmxo2-cpld-block/PT17C{slash}INITN*%
X196905000Y-98885000D03*
%TD*%
D48*
%TO.P,J1004,1,Pin_1*%
%TO.N,/IOT_50b*%
X173575000Y-32185000D03*
D49*
%TO.P,J1004,2,Pin_2*%
%TO.N,/IOB_13b*%
X176115000Y-32185000D03*
%TO.P,J1004,3,Pin_3*%
%TO.N,/IOT_37a*%
X178655000Y-32185000D03*
%TO.P,J1004,4,Pin_4*%
%TO.N,/IOB_20a*%
X181195000Y-32185000D03*
%TO.P,J1004,5,Pin_5*%
%TO.N,/IOB_22a*%
X183735000Y-32185000D03*
%TO.P,J1004,6,Pin_6*%
%TO.N,/IOB_23b*%
X186275000Y-32185000D03*
%TO.P,J1004,7,Pin_7*%
%TO.N,/IOT_43a*%
X188815000Y-32185000D03*
%TO.P,J1004,8,Pin_8*%
%TO.N,GND*%
X191355000Y-32185000D03*
%TD*%
D27*
%TO.P,D9,1,K*%
%TO.N,GND*%
X197205000Y-95597500D03*
%TO.P,D9,2,A*%
%TO.N,/lcmxo2-cpld-block/PT17D{slash}DONE*%
X197205000Y-97172500D03*
%TD*%
D22*
%TO.P,C37,1*%
%TO.N,GND*%
X182425000Y-98185000D03*
%TO.P,C37,2*%
%TO.N,/lcmxo2-cpld-block/VCC*%
X183385000Y-98185000D03*
%TD*%
D26*
%TO.P,R44,1*%
%TO.N,+3.3V*%
X121960000Y-57642500D03*
%TO.P,R44,2*%
%TO.N,/ICE_SPI_SS*%
X121960000Y-56622500D03*
%TD*%
D25*
%TO.P,R66,1*%
%TO.N,Net-(U12-D3)*%
X144115000Y-86685000D03*
%TO.P,R66,2*%
%TO.N,Net-(Q5-D)*%
X143095000Y-86685000D03*
%TD*%
D30*
%TO.P,C16,1*%
%TO.N,+3.3V*%
X210105000Y-85890000D03*
%TO.P,C16,2*%
%TO.N,GND*%
X210105000Y-87440000D03*
%TD*%
D11*
%TO.P,R61,1*%
%TO.N,/jtag-prog/TCK*%
X170070000Y-93915000D03*
%TO.P,R61,2*%
%TO.N,/TCK*%
X171720000Y-93915000D03*
%TD*%
D45*
%TO.P,D1003,1*%
%TO.N,+5V*%
X138955000Y-67185000D03*
%TO.P,D1003,2*%
%TO.N,VBUS1*%
X135655000Y-67185000D03*
%TD*%
D18*
%TO.P,SW5,1,1*%
%TO.N,GND*%
X124305000Y-128570000D03*
%TO.P,SW5,2,2*%
%TO.N,Net-(U10-RUN)*%
X124305000Y-124200000D03*
%TD*%
D11*
%TO.P,R34,1*%
%TO.N,/PB18B*%
X199505000Y-82940000D03*
%TO.P,R34,2*%
%TO.N,Net-(U4-MCLKIN\u2212)*%
X201155000Y-82940000D03*
%TD*%
D17*
%TO.P,C45,1*%
%TO.N,+3.3V_JTAG*%
X134055000Y-101065000D03*
%TO.P,C45,2*%
%TO.N,GND*%
X134055000Y-100105000D03*
%TD*%
D57*
%TO.P,C50,1*%
%TO.N,+3.3V*%
X144955000Y-66835000D03*
%TO.P,C50,2*%
%TO.N,GND*%
X146505000Y-66835000D03*
%TD*%
D36*
%TO.P,C41,1*%
%TO.N,/lcmxo2-cpld-block/VCCIO3*%
X179685000Y-104185000D03*
%TO.P,C41,2*%
%TO.N,GND*%
X178725000Y-104185000D03*
%TD*%
D47*
%TO.P,C10,1*%
%TO.N,+1V*%
X142005000Y-102285000D03*
%TO.P,C10,2*%
%TO.N,GND*%
X142005000Y-100735000D03*
%TD*%
D26*
%TO.P,R12,1*%
%TO.N,Net-(U10-RUN)*%
X124305000Y-122695000D03*
%TO.P,R12,2*%
%TO.N,+3.3V_JTAG*%
X124305000Y-121675000D03*
%TD*%
D19*
%TO.P,R38,1*%
%TO.N,+3.3V*%
X131145000Y-49935000D03*
%TO.P,R38,2*%
%TO.N,/ICE_nRST*%
X132165000Y-49935000D03*
%TD*%
D57*
%TO.P,C29,1*%
%TO.N,Net-(U5D-VCCPLL)*%
X144705000Y-52985000D03*
%TO.P,C29,2*%
%TO.N,GND*%
X146255000Y-52985000D03*
%TD*%
D25*
%TO.P,R87,1*%
%TO.N,/jtag-prog/CLK*%
X146705000Y-111885000D03*
%TO.P,R87,2*%
%TO.N,Net-(U10-GPIO10)*%
X145685000Y-111885000D03*
%TD*%
D73*
%TO.N,/RPI_ICE0*%
X125055000Y-52085000D03*
%TO.N,/IOB_8a*%
X135655000Y-33635000D03*
%TO.N,/GPIO27_ADC1*%
X139805000Y-37535000D03*
%TO.N,/ICE_CDONE*%
X125055000Y-40285000D03*
X133405000Y-40285000D03*
%TO.N,/IOB_3b_G6*%
X141973732Y-39558732D03*
%TO.N,Net-(A1-RUN)*%
X126730000Y-39460000D03*
X131555000Y-39485000D03*
%TO.N,/IOB_4a*%
X135115000Y-47435000D03*
%TO.N,/IOB_2a*%
X135605000Y-46635000D03*
%TO.N,/IOB_0a*%
X136165000Y-47003366D03*
%TO.N,/IOB_5b*%
X136705000Y-46585000D03*
%TO.N,/IOB_3b_G6*%
X137237090Y-46958341D03*
%TO.N,/RPI_ICE6*%
X137573620Y-48275690D03*
%TO.N,/IOT_51a*%
X138155000Y-47985000D03*
%TO.N,/IOT_50b*%
X141355000Y-48335000D03*
%TO.N,/IOT_45a_G1*%
X141355000Y-49035000D03*
%TO.N,/IOT_48b*%
X142405000Y-49681500D03*
%TO.N,/ICE_CLOCK*%
X142905000Y-50285000D03*
%TO.N,/IOT_44b*%
X142355000Y-50732500D03*
%TO.N,+3.3V*%
X143405000Y-51385000D03*
%TO.N,/IOT_43a*%
X142905887Y-51984634D03*
%TO.N,/RPI_ICE1*%
X142305000Y-52232500D03*
%TO.N,+3.3V*%
X143355000Y-52682500D03*
%TO.N,/RPI_ICE7*%
X143505000Y-53835000D03*
%TO.N,/IOT_38b*%
X143073125Y-54325309D03*
%TO.N,/IOT_39a*%
X142754098Y-54891634D03*
%TO.N,/IOT_36b*%
X142655492Y-55560000D03*
%TO.N,/IOT_37a*%
X142655000Y-58085000D03*
%TO.N,/ICE_SPI_MISO*%
X151755000Y-58235000D03*
%TO.N,/ICE_SPI_SS*%
X151905000Y-57335000D03*
%TO.N,/ICE_SPI_MOSI*%
X127405000Y-50385000D03*
%TO.N,/ICE_SPI_SCK*%
X126155000Y-49885000D03*
%TO.N,/ICE_SPI_SS*%
X123071250Y-56401250D03*
%TO.N,/ICE_SPI_MISO*%
X124855000Y-56935000D03*
%TO.N,/IOB_13b*%
X132705000Y-52200056D03*
%TO.N,/IOB_8a*%
X133173451Y-50922882D03*
%TO.N,/RPI_ICE0*%
X133281092Y-50281854D03*
%TO.N,/IOB_6a*%
X133455000Y-49635000D03*
%TO.N,/D-*%
X117769589Y-51057615D03*
%TO.N,/D+*%
X117168547Y-51658657D03*
%TO.N,/D-*%
X116204479Y-54234479D03*
%TO.N,/D+*%
X116805521Y-54835521D03*
%TO.N,/IOB_22a*%
X133605000Y-55282500D03*
%TO.N,/RPI_ICE3*%
X134705000Y-55835000D03*
%TO.N,/ICE_SPI_MISO*%
X131955000Y-57735000D03*
%TO.N,/ICE_SPI_SS*%
X132642869Y-57258983D03*
%TO.N,/ICE_SPI_SCK*%
X133157354Y-56646358D03*
%TO.N,/ICE_SPI_MOSI*%
X134046730Y-56793270D03*
%TO.N,/RPI_ICE2*%
X133355000Y-61935000D03*
X133405000Y-63185000D03*
%TO.N,/ICE_nRST*%
X132001232Y-53088768D03*
X132055000Y-50385000D03*
%TD*%
D74*
%TO.N,/ICE_CDONE*%
X144865000Y-40845000D02*
X144865000Y-43385000D01*
X133505000Y-40285000D02*
X144305000Y-40285000D01*
X133405000Y-40385000D02*
X133505000Y-40285000D01*
X144305000Y-40285000D02*
X144865000Y-40845000D01*
X133405000Y-40285000D02*
X133405000Y-40385000D01*
X134420056Y-52725056D02*
X134452500Y-52757500D01*
X132395056Y-52725056D02*
X134420056Y-52725056D01*
X131780000Y-52110000D02*
X132395056Y-52725056D01*
X129630000Y-52110000D02*
X131780000Y-52110000D01*
X128905000Y-46785000D02*
X128905000Y-51385000D01*
X126405000Y-45285000D02*
X127405000Y-45285000D01*
X125855000Y-41285000D02*
X125855000Y-44735000D01*
X125105000Y-40535000D02*
X125855000Y-41285000D01*
X125855000Y-44735000D02*
X126405000Y-45285000D01*
X128905000Y-51385000D02*
X129630000Y-52110000D01*
X125055000Y-40285000D02*
X125055000Y-40485000D01*
X127405000Y-45285000D02*
X128905000Y-46785000D01*
X119680000Y-40060000D02*
X119680000Y-38985000D01*
X119955000Y-40335000D02*
X119680000Y-40060000D01*
X125005000Y-40335000D02*
X119955000Y-40335000D01*
X125055000Y-40285000D02*
X125005000Y-40335000D01*
%TO.N,Net-(A1-RUN)*%
X133266000Y-44037050D02*
X133266000Y-42446000D01*
X133812950Y-44584000D02*
X133266000Y-44037050D01*
X140004000Y-44584000D02*
X133812950Y-44584000D01*
X140055000Y-44635000D02*
X140004000Y-44584000D01*
X133266000Y-42446000D02*
X131555000Y-40735000D01*
X131555000Y-40735000D02*
X131555000Y-39485000D01*
X141075000Y-44635000D02*
X140055000Y-44635000D01*
X142325000Y-43385000D02*
X141075000Y-44635000D01*
%TO.N,+3.3V*%
X133305000Y-51757500D02*
X134452500Y-51757500D01*
X131994056Y-51674056D02*
X133221556Y-51674056D01*
X131145000Y-50825000D02*
X131994056Y-51674056D01*
X133221556Y-51674056D02*
X133305000Y-51757500D01*
X131145000Y-49935000D02*
X131145000Y-50825000D01*
%TO.N,/IOB_8a*%
X140585000Y-33635000D02*
X141950000Y-32270000D01*
X135655000Y-33635000D02*
X140585000Y-33635000D01*
%TO.N,/GPIO27_ADC1*%
X154565000Y-36475000D02*
X154565000Y-34685000D01*
X153505000Y-37535000D02*
X154565000Y-36475000D01*
X139805000Y-37535000D02*
X153505000Y-37535000D01*
%TO.N,/ice40-for-gpio/ICE_LED1*%
X130726000Y-39506000D02*
X130705000Y-39485000D01*
X130705000Y-39485000D02*
X130705000Y-37360000D01*
X130726000Y-43835000D02*
X130726000Y-39506000D01*
X137894000Y-44996000D02*
X131887000Y-44996000D01*
X137905000Y-44985000D02*
X137894000Y-44996000D01*
X139082000Y-46162000D02*
X137905000Y-44985000D01*
X139082000Y-48527000D02*
X139082000Y-46162000D01*
X139140000Y-48585000D02*
X139082000Y-48527000D01*
X139140000Y-49070000D02*
X139140000Y-48585000D01*
X131887000Y-44996000D02*
X130726000Y-43835000D01*
%TO.N,/ice40-for-gpio/ICE_LED2*%
X128231000Y-43885000D02*
X128231000Y-39261000D01*
X129743000Y-45397000D02*
X128231000Y-43885000D01*
X127605000Y-38635000D02*
X127605000Y-37410000D01*
X137443000Y-45397000D02*
X129743000Y-45397000D01*
X138681000Y-46635000D02*
X137443000Y-45397000D01*
X138681000Y-49029000D02*
X138681000Y-46635000D01*
X138640000Y-49070000D02*
X138681000Y-49029000D01*
X128231000Y-39261000D02*
X127605000Y-38635000D01*
%TO.N,/IOB_23b*%
X138605000Y-61685000D02*
X138605000Y-58470000D01*
X139305000Y-62385000D02*
X138605000Y-61685000D01*
X141105000Y-62385000D02*
X139305000Y-62385000D01*
X138605000Y-58470000D02*
X139140000Y-57935000D01*
X142325000Y-61165000D02*
X141105000Y-62385000D01*
X139140000Y-57935000D02*
X139140000Y-55945000D01*
%TO.N,/RPI_ICE2*%
X133905000Y-59385000D02*
X136072100Y-59385000D01*
X133355000Y-59935000D02*
X133905000Y-59385000D01*
X138140000Y-57317100D02*
X138140000Y-55945000D01*
X133355000Y-61935000D02*
X133355000Y-59935000D01*
X136072100Y-59385000D02*
X138140000Y-57317100D01*
%TO.N,/ICE_CLOCK*%
X149905000Y-52185000D02*
X150005000Y-52085000D01*
X149905000Y-58085000D02*
X149905000Y-52185000D01*
%TO.N,Net-(A1-GPIO10)*%
X149905000Y-59105000D02*
X149905000Y-61125000D01*
X149905000Y-61125000D02*
X149945000Y-61165000D01*
%TO.N,+3.3V*%
X144725000Y-47790000D02*
X145030000Y-47485000D01*
X144725000Y-48785000D02*
X144725000Y-47790000D01*
%TO.N,/GPIO19_SPI0_TX*%
X161206000Y-33534000D02*
X163574000Y-33534000D01*
X160855000Y-40935000D02*
X160855000Y-33885000D01*
X160855000Y-33885000D02*
X161206000Y-33534000D01*
X163574000Y-33534000D02*
X164725000Y-34685000D01*
X160355000Y-41435000D02*
X160855000Y-40935000D01*
X155705000Y-41435000D02*
X160355000Y-41435000D01*
X155025000Y-43385000D02*
X155025000Y-42115000D01*
X155025000Y-42115000D02*
X155705000Y-41435000D01*
%TO.N,/GPIO17_SPI0_CSn*%
X162645000Y-35145000D02*
X162185000Y-34685000D01*
X162645000Y-43385000D02*
X162645000Y-35145000D01*
%TO.N,/GPIO18_SPI0_SCK*%
X158915000Y-44735000D02*
X157565000Y-43385000D01*
X162855000Y-44735000D02*
X158915000Y-44735000D01*
X164084000Y-42185000D02*
X164084000Y-43506000D01*
X164105000Y-42185000D02*
X164084000Y-42185000D01*
X166855000Y-34235000D02*
X166855000Y-39435000D01*
X164084000Y-43506000D02*
X162855000Y-44735000D01*
X166855000Y-39435000D02*
X164105000Y-42185000D01*
X165900000Y-33280000D02*
X166855000Y-34235000D01*
X165860000Y-33280000D02*
X165900000Y-33280000D01*
X164725000Y-32145000D02*
X165860000Y-33280000D01*
%TO.N,/GPIO16_SPI0_RX*%
X163395000Y-30935000D02*
X162185000Y-32145000D01*
X167605000Y-32335000D02*
X166205000Y-30935000D01*
X167605000Y-39785000D02*
X167605000Y-32335000D01*
X166205000Y-30935000D02*
X163395000Y-30935000D01*
X165185000Y-42205000D02*
X167605000Y-39785000D01*
X165185000Y-43385000D02*
X165185000Y-42205000D01*
%TO.N,/IOB_20a*%
X132815400Y-54757500D02*
X131487900Y-56085000D01*
X134452500Y-54757500D02*
X132815400Y-54757500D01*
X131487900Y-56085000D02*
X130365000Y-56085000D01*
%TO.N,/ICE_nRST*%
X132169964Y-53257500D02*
X132001232Y-53088768D01*
X134452500Y-53257500D02*
X132169964Y-53257500D01*
%TO.N,Net-(A1-RUN)*%
X124835000Y-37565000D02*
X124005000Y-37565000D01*
X126730000Y-39460000D02*
X124835000Y-37565000D01*
%TO.N,/IOB_13b*%
X132762444Y-52257500D02*
X132705000Y-52200056D01*
X134452500Y-52257500D02*
X132762444Y-52257500D01*
%TO.N,/ICE_CDONE*%
X119680000Y-38985000D02*
X117792500Y-38985000D01*
%TO.N,/IOB_3b_G6*%
X137047620Y-48493567D02*
X137140000Y-48585947D01*
X137047620Y-47911688D02*
X137047620Y-48493567D01*
X137140000Y-48585947D02*
X137140000Y-49070000D01*
X137237090Y-47722218D02*
X137047620Y-47911688D01*
X137237090Y-46958341D02*
X137237090Y-47722218D01*
%TO.N,/IOB_5b*%
X136705000Y-46585000D02*
X136705000Y-47435000D01*
X136705000Y-47435000D02*
X136640000Y-47500000D01*
X136640000Y-47500000D02*
X136640000Y-49070000D01*
%TO.N,/IOB_0a*%
X136140000Y-47150000D02*
X136140000Y-49070000D01*
X136165000Y-47125000D02*
X136140000Y-47150000D01*
X136165000Y-47003366D02*
X136165000Y-47125000D01*
%TO.N,/IOB_2a*%
X135640000Y-46850000D02*
X135640000Y-49070000D01*
X135605000Y-46635000D02*
X135605000Y-46815000D01*
X135605000Y-46815000D02*
X135640000Y-46850000D01*
%TO.N,Net-(A1-RUN)*%
X124005000Y-37565000D02*
X124005000Y-35870000D01*
%TO.N,Net-(D6-A)*%
X130705000Y-35710000D02*
X130705000Y-33372500D01*
%TO.N,Net-(D7-A)*%
X127605000Y-35760000D02*
X127605000Y-33372500D01*
%TO.N,/IOB_4a*%
X135140000Y-47460000D02*
X135115000Y-47435000D01*
X135140000Y-49070000D02*
X135140000Y-47460000D01*
%TO.N,/RPI_ICE6*%
X137640000Y-48342070D02*
X137573620Y-48275690D01*
X137640000Y-49070000D02*
X137640000Y-48342070D01*
%TO.N,/IOT_51a*%
X138155000Y-48318174D02*
X138140000Y-48333174D01*
X138155000Y-47985000D02*
X138155000Y-48318174D01*
X138140000Y-48333174D02*
X138140000Y-49070000D01*
%TO.N,/IOT_50b*%
X141351500Y-48331500D02*
X141355000Y-48335000D01*
X140258500Y-48331500D02*
X141351500Y-48331500D01*
X140140000Y-48450000D02*
X140258500Y-48331500D01*
X140140000Y-49070000D02*
X140140000Y-48450000D01*
%TO.N,/IOT_45a_G1*%
X141320000Y-49070000D02*
X141355000Y-49035000D01*
X140640000Y-49070000D02*
X141320000Y-49070000D01*
%TO.N,/IOT_48b*%
X142329000Y-49757500D02*
X142405000Y-49681500D01*
X141327500Y-49757500D02*
X142329000Y-49757500D01*
%TO.N,/ICE_CLOCK*%
X142826500Y-50206500D02*
X142905000Y-50285000D01*
X141378500Y-50206500D02*
X142826500Y-50206500D01*
X141327500Y-50257500D02*
X141378500Y-50206500D01*
%TO.N,/IOT_44b*%
X142330000Y-50757500D02*
X142355000Y-50732500D01*
X141327500Y-50757500D02*
X142330000Y-50757500D01*
%TO.N,+3.3V*%
X143277500Y-51257500D02*
X143405000Y-51385000D01*
X141327500Y-51257500D02*
X143277500Y-51257500D01*
%TO.N,/IOT_43a*%
X142627753Y-51706500D02*
X142905887Y-51984634D01*
X141378500Y-51706500D02*
X142627753Y-51706500D01*
X141327500Y-51757500D02*
X141378500Y-51706500D01*
%TO.N,/RPI_ICE1*%
X142280000Y-52257500D02*
X142305000Y-52232500D01*
X141327500Y-52257500D02*
X142280000Y-52257500D01*
%TO.N,+3.3V*%
X143280000Y-52757500D02*
X143355000Y-52682500D01*
X141327500Y-52757500D02*
X143280000Y-52757500D01*
%TO.N,/RPI_ICE7*%
X143427500Y-53757500D02*
X143505000Y-53835000D01*
X141327500Y-53757500D02*
X143427500Y-53757500D01*
%TO.N,/IOT_38b*%
X143005316Y-54257500D02*
X143073125Y-54325309D01*
X141327500Y-54257500D02*
X143005316Y-54257500D01*
%TO.N,/IOT_39a*%
X142619964Y-54757500D02*
X142754098Y-54891634D01*
X141327500Y-54757500D02*
X142619964Y-54757500D01*
%TO.N,/IOT_36b*%
X142377500Y-55257500D02*
X141327500Y-55257500D01*
X142655492Y-55535492D02*
X142377500Y-55257500D01*
X142655492Y-55560000D02*
X142655492Y-55535492D01*
D75*
%TO.N,Net-(D8-K)*%
X142667810Y-56660000D02*
X141952810Y-55945000D01*
X141952810Y-55945000D02*
X140640000Y-55945000D01*
X143530000Y-56660000D02*
X142667810Y-56660000D01*
X144005000Y-57135000D02*
X143530000Y-56660000D01*
X144005000Y-57410000D02*
X144005000Y-57135000D01*
D74*
%TO.N,+3.3V*%
X141455000Y-57605000D02*
X140160000Y-57605000D01*
X140160000Y-57605000D02*
X140105000Y-57660000D01*
%TO.N,/IOT_37a*%
X142655000Y-57285000D02*
X142655000Y-58085000D01*
X142105000Y-56735000D02*
X142255000Y-56885000D01*
X140255000Y-56735000D02*
X142105000Y-56735000D01*
X142255000Y-56885000D02*
X142655000Y-57285000D01*
X140140000Y-56620000D02*
X140255000Y-56735000D01*
X140140000Y-55945000D02*
X140140000Y-56620000D01*
%TO.N,+3.3V*%
X139640000Y-56870000D02*
X140105000Y-57335000D01*
X140105000Y-57335000D02*
X140105000Y-57660000D01*
X139640000Y-55945000D02*
X139640000Y-56870000D01*
%TO.N,/ICE_SPI_MISO*%
X155025000Y-59105000D02*
X155025000Y-61165000D01*
X154255000Y-58335000D02*
X155025000Y-59105000D01*
X151855000Y-58335000D02*
X154255000Y-58335000D01*
X151755000Y-58235000D02*
X151855000Y-58335000D01*
%TO.N,/ICE_SPI_SS*%
X157855000Y-60875000D02*
X157565000Y-61165000D01*
X157855000Y-59785000D02*
X157855000Y-60875000D01*
X151905000Y-57335000D02*
X155405000Y-57335000D01*
X155405000Y-57335000D02*
X157855000Y-59785000D01*
%TO.N,/RPI_ICE3*%
X128605000Y-59645000D02*
X127085000Y-61165000D01*
X128605000Y-58735000D02*
X128605000Y-59645000D01*
X129505000Y-57835000D02*
X128605000Y-58735000D01*
X131005000Y-57835000D02*
X129505000Y-57835000D01*
X133031500Y-55808500D02*
X131005000Y-57835000D01*
X134555000Y-55835000D02*
X134528500Y-55808500D01*
X134528500Y-55808500D02*
X133031500Y-55808500D01*
X134705000Y-55905000D02*
X134745000Y-55945000D01*
X134705000Y-55835000D02*
X134705000Y-55905000D01*
X134745000Y-55945000D02*
X135140000Y-55945000D01*
X134705000Y-55835000D02*
X134555000Y-55835000D01*
%TO.N,/ICE_SPI_MOSI*%
X135190000Y-57135000D02*
X135640000Y-56685000D01*
X135640000Y-56685000D02*
X135640000Y-55945000D01*
X134046730Y-56793270D02*
X134163270Y-56793270D01*
X134505000Y-57135000D02*
X135190000Y-57135000D01*
X134163270Y-56793270D02*
X134505000Y-57135000D01*
X127360000Y-50340000D02*
X127405000Y-50385000D01*
X127360000Y-48747500D02*
X127360000Y-50340000D01*
%TO.N,/ice40-for-gpio/ICE_SPI_IO3*%
X124820000Y-50035000D02*
X124820000Y-48747500D01*
X124670000Y-50185000D02*
X124820000Y-50035000D01*
X122205000Y-50185000D02*
X124670000Y-50185000D01*
X121930000Y-48340000D02*
X121930000Y-49910000D01*
X121930000Y-49910000D02*
X122205000Y-50185000D01*
%TO.N,+3.3V*%
X122655000Y-47852500D02*
X123550000Y-48747500D01*
X122655000Y-47535000D02*
X122655000Y-47852500D01*
X122440000Y-47320000D02*
X122655000Y-47535000D01*
X121930000Y-47320000D02*
X122440000Y-47320000D01*
X123550000Y-47560000D02*
X124125000Y-46985000D01*
X123550000Y-48747500D02*
X123550000Y-47560000D01*
%TO.N,/ICE_SPI_SCK*%
X126155000Y-48812500D02*
X126090000Y-48747500D01*
X126155000Y-49885000D02*
X126155000Y-48812500D01*
%TO.N,/ICE_SPI_SS*%
X123550000Y-55922500D02*
X123071250Y-56401250D01*
%TO.N,/ICE_SPI_MISO*%
X124820000Y-56900000D02*
X124855000Y-56935000D01*
X124820000Y-55922500D02*
X124820000Y-56900000D01*
%TO.N,/ice40-for-gpio/ICE_SPI_IO2*%
X126090000Y-57150000D02*
X126090000Y-55922500D01*
X125607500Y-57632500D02*
X126090000Y-57150000D01*
X123970000Y-57632500D02*
X125607500Y-57632500D01*
%TO.N,+3.3V*%
X121970000Y-57632500D02*
X121960000Y-57642500D01*
X122950000Y-57632500D02*
X121970000Y-57632500D01*
%TO.N,/ICE_SPI_SS*%
X121960000Y-56622500D02*
X122850000Y-56622500D01*
X122850000Y-56622500D02*
X123071250Y-56401250D01*
%TO.N,/IOB_8a*%
X133508069Y-51257500D02*
X134452500Y-51257500D01*
X133173451Y-50922882D02*
X133508069Y-51257500D01*
%TO.N,/RPI_ICE0*%
X133756738Y-50757500D02*
X134452500Y-50757500D01*
X133281092Y-50281854D02*
X133756738Y-50757500D01*
%TO.N,/IOB_6a*%
X133999202Y-50257500D02*
X133455000Y-49713298D01*
X134452500Y-50257500D02*
X133999202Y-50257500D01*
X133455000Y-49713298D02*
X133455000Y-49635000D01*
D75*
%TO.N,+3.3V*%
X134255000Y-48885000D02*
X132885000Y-48885000D01*
X134452500Y-49757500D02*
X134452500Y-49082500D01*
X134452500Y-49082500D02*
X134255000Y-48885000D01*
D74*
%TO.N,/ICE_nRST*%
X132055000Y-50245000D02*
X132215000Y-50085000D01*
X132055000Y-50385000D02*
X132055000Y-50245000D01*
%TO.N,/IOB_22a*%
X133605000Y-55282500D02*
X133630000Y-55257500D01*
X133630000Y-55257500D02*
X134452500Y-55257500D01*
%TO.N,/D+*%
X129345000Y-55070000D02*
X129630000Y-54785000D01*
X129345000Y-56085000D02*
X129345000Y-55070000D01*
%TO.N,/D-*%
X118839999Y-51960000D02*
X118864999Y-51935000D01*
X117769589Y-51340458D02*
X118389130Y-51960000D01*
X117769589Y-51057615D02*
X117769589Y-51340458D01*
X118864999Y-51935000D02*
X119795000Y-51935000D01*
%TO.N,/D+*%
X118864999Y-52435000D02*
X119795000Y-52435000D01*
%TO.N,/D-*%
X118389130Y-51960000D02*
X118839999Y-51960000D01*
%TO.N,/D+*%
X118839999Y-52410000D02*
X118864999Y-52435000D01*
X117451390Y-51658657D02*
X118202734Y-52410000D01*
X117168547Y-51658657D02*
X117451390Y-51658657D01*
X118202734Y-52410000D02*
X118839999Y-52410000D01*
%TO.N,/D-*%
X116487322Y-54234479D02*
X116204479Y-54234479D01*
X117761801Y-52960000D02*
X116487322Y-54234479D01*
X118839999Y-52960000D02*
X117761801Y-52960000D01*
X118864999Y-52935000D02*
X118839999Y-52960000D01*
X119795000Y-52935000D02*
X118864999Y-52935000D01*
%TO.N,/D+*%
X116805521Y-54552678D02*
X116805521Y-54835521D01*
X118839999Y-53410000D02*
X117948199Y-53410000D01*
X119795000Y-53435000D02*
X118864999Y-53435000D01*
X118864999Y-53435000D02*
X118839999Y-53410000D01*
X117948199Y-53410000D02*
X116805521Y-54552678D01*
%TO.N,/D-*%
X120725001Y-52935000D02*
X119795000Y-52935000D01*
X120750001Y-52960000D02*
X120725001Y-52935000D01*
X126598198Y-52960000D02*
X120750001Y-52960000D01*
X127398198Y-53760000D02*
X126598198Y-52960000D01*
X128342499Y-53760000D02*
X127398198Y-53760000D01*
X128917499Y-53185000D02*
X128342499Y-53760000D01*
X129630000Y-53185000D02*
X128917499Y-53185000D01*
%TO.N,/D+*%
X120725001Y-53435000D02*
X119795000Y-53435000D01*
X120750001Y-53410000D02*
X120725001Y-53435000D01*
X126411802Y-53410000D02*
X120750001Y-53410000D01*
X128342499Y-54210000D02*
X127211802Y-54210000D01*
X128917499Y-54785000D02*
X128342499Y-54210000D01*
X127211802Y-54210000D02*
X126411802Y-53410000D01*
X129630000Y-54785000D02*
X128917499Y-54785000D01*
%TO.N,/ICE_USB_P*%
X131355000Y-54785000D02*
X131280000Y-54785000D01*
X131930000Y-54210000D02*
X131355000Y-54785000D01*
X131953057Y-54232500D02*
X131930557Y-54210000D01*
X133771249Y-54232500D02*
X131953057Y-54232500D01*
X133796249Y-54257500D02*
X133771249Y-54232500D01*
X131930557Y-54210000D02*
X131930000Y-54210000D01*
X134452500Y-54257500D02*
X133796249Y-54257500D01*
%TO.N,/ICE_USB_N*%
X131355000Y-53185000D02*
X131280000Y-53185000D01*
X132125263Y-53782500D02*
X132102763Y-53760000D01*
X131930000Y-53760000D02*
X131355000Y-53185000D01*
X132102763Y-53760000D02*
X131930000Y-53760000D01*
X133796249Y-53757500D02*
X133771249Y-53782500D01*
X134452500Y-53757500D02*
X133796249Y-53757500D01*
X133771249Y-53782500D02*
X132125263Y-53782500D01*
%TO.N,/RPI_ICE2*%
X126365000Y-62985000D02*
X124545000Y-61165000D01*
X133205000Y-62985000D02*
X126365000Y-62985000D01*
X133405000Y-63185000D02*
X133205000Y-62985000D01*
%TO.N,/RPI_ICE4*%
X131045000Y-62585000D02*
X129625000Y-61165000D01*
X135905000Y-62235000D02*
X135555000Y-62585000D01*
X135555000Y-62585000D02*
X131045000Y-62585000D01*
X135905000Y-60435000D02*
X135905000Y-62235000D01*
X138640000Y-57700000D02*
X135905000Y-60435000D01*
X138640000Y-55945000D02*
X138640000Y-57700000D01*
%TO.N,/RPI_ICE5*%
X132805000Y-58835000D02*
X132165000Y-59475000D01*
X132165000Y-59475000D02*
X132165000Y-61165000D01*
X136055000Y-58835000D02*
X132805000Y-58835000D01*
X137640000Y-57250000D02*
X136055000Y-58835000D01*
X137640000Y-55945000D02*
X137640000Y-57250000D01*
%TO.N,/ICE_SPI_MISO*%
X137140000Y-57085000D02*
X137140000Y-55945000D01*
X135839000Y-58386000D02*
X137140000Y-57085000D01*
X132606000Y-58386000D02*
X135839000Y-58386000D01*
X131955000Y-57735000D02*
X132606000Y-58386000D01*
%TO.N,/ICE_SPI_SS*%
X136640000Y-56902100D02*
X136640000Y-55945000D01*
X135557100Y-57985000D02*
X136640000Y-56902100D01*
X133368886Y-57985000D02*
X135557100Y-57985000D01*
X132642869Y-57258983D02*
X133368886Y-57985000D01*
%TO.N,/ICE_SPI_SCK*%
X135439000Y-57536000D02*
X136140000Y-56835000D01*
X134046996Y-57536000D02*
X135439000Y-57536000D01*
X133157354Y-56646358D02*
X134046996Y-57536000D01*
X136140000Y-56835000D02*
X136140000Y-55945000D01*
D75*
%TO.N,+3.3V*%
X132885000Y-47990000D02*
X132580000Y-47685000D01*
X132885000Y-48885000D02*
X132885000Y-47990000D01*
X148030000Y-55485000D02*
X148505000Y-55010000D01*
X146905000Y-55485000D02*
X148030000Y-55485000D01*
X146905000Y-57305000D02*
X146905000Y-55485000D01*
%TO.N,Net-(D8-K)*%
X144005000Y-55585000D02*
X144105000Y-55485000D01*
X144005000Y-57410000D02*
X144005000Y-55585000D01*
%TO.N,+1V2*%
X149905000Y-50385000D02*
X150302500Y-49987500D01*
X146330000Y-50385000D02*
X149905000Y-50385000D01*
X150302500Y-49987500D02*
X152335000Y-49987500D01*
%TO.N,Net-(U5D-VCCPLL)*%
X144425000Y-50640000D02*
X144680000Y-50385000D01*
X144425000Y-51685000D02*
X144425000Y-50640000D01*
X144425000Y-51685000D02*
X144425000Y-52705000D01*
X144425000Y-52705000D02*
X144705000Y-52985000D01*
X144432500Y-53257500D02*
X144705000Y-52985000D01*
X141327500Y-53257500D02*
X144432500Y-53257500D01*
%TO.N,+1V2*%
X152335000Y-49987500D02*
X152335000Y-48292500D01*
X152335000Y-48292500D02*
X152300000Y-48257500D01*
%TO.N,+5V*%
X152335000Y-51355000D02*
X152505000Y-51185000D01*
X152335000Y-52262500D02*
X152335000Y-51355000D01*
X154235000Y-51415000D02*
X154235000Y-52262500D01*
X154005000Y-51185000D02*
X154235000Y-51415000D01*
X152505000Y-51185000D02*
X154005000Y-51185000D01*
%TO.N,GND*%
X153285000Y-53415000D02*
X153855000Y-53985000D01*
X153285000Y-52262500D02*
X153285000Y-53415000D01*
%TO.N,+5V*%
X152305000Y-52292500D02*
X152335000Y-52262500D01*
X152305000Y-53985000D02*
X152305000Y-52292500D01*
%TD*%
M02*
