%TF.GenerationSoftware,KiCad,Pcbnew,9.0.0*%
%TF.CreationDate,2025-06-09T15:05:37+02:00*%
%TF.ProjectId,stm32-fpga-bootloader,73746d33-322d-4667-9067-612d626f6f74,rev?*%
%TF.SameCoordinates,Original*%
%TF.FileFunction,Profile,NP*%
%FSLAX46Y46*%
G04 Gerber Fmt 4.6, Leading zero omitted, Abs format (unit mm)*
G04 Created by KiCad (PCBNEW 9.0.0) date 2025-06-09 15:05:37*
%MOMM*%
%LPD*%
G01*
G04 APERTURE LIST*
%TA.AperFunction,Profile*%
%ADD10C,0.050000*%
%TD*%
%TA.AperFunction,Profile*%
%ADD11C,0.000000*%
%TD*%
G04 APERTURE END LIST*
D10*
X213555000Y-126155000D02*
G75*
G02*
X209555000Y-130155000I-4000000J0D01*
G01*
X113555000Y-34155000D02*
X113555000Y-126155000D01*
X117555000Y-130155000D02*
G75*
G02*
X113555000Y-126155000I0J4000000D01*
G01*
X117555000Y-130155000D02*
X209555000Y-130155000D01*
X209555000Y-30155000D02*
X117555000Y-30155000D01*
X213555000Y-126155000D02*
X213555000Y-34155000D01*
X113555000Y-34155000D02*
G75*
G02*
X117555000Y-30155000I4000000J0D01*
G01*
X209555000Y-30155000D02*
G75*
G02*
X213555000Y-34155000I0J-4000000D01*
G01*
D11*
%TA.AperFunction,Profile*%
%TO.C,R32*%
G36*
X182802542Y-76004136D02*
G01*
X182988182Y-76081031D01*
X183155253Y-76192664D01*
X183297336Y-76334747D01*
X183408969Y-76501818D01*
X183485864Y-76687458D01*
X183525064Y-76884532D01*
X183525064Y-77085468D01*
X183485864Y-77282542D01*
X183408969Y-77468182D01*
X183297336Y-77635253D01*
X183155253Y-77777336D01*
X182988182Y-77888969D01*
X182802542Y-77965864D01*
X182605468Y-78005064D01*
X182404532Y-78005064D01*
X182207458Y-77965864D01*
X182021818Y-77888969D01*
X181854747Y-77777336D01*
X181712664Y-77635253D01*
X181601031Y-77468182D01*
X181524136Y-77282542D01*
X181484936Y-77085468D01*
X181484936Y-76884532D01*
X181524136Y-76687458D01*
X181601031Y-76501818D01*
X181712664Y-76334747D01*
X181854747Y-76192664D01*
X182021818Y-76081031D01*
X182207458Y-76004136D01*
X182404532Y-75964936D01*
X182605468Y-75964936D01*
X182802542Y-76004136D01*
G37*
%TD.AperFunction*%
%TA.AperFunction,Profile*%
G36*
X187261790Y-75915393D02*
G01*
X187425952Y-75968733D01*
X187579748Y-76047096D01*
X187719393Y-76148553D01*
X187841447Y-76270607D01*
X187942904Y-76410252D01*
X188021267Y-76564048D01*
X188074607Y-76728210D01*
X188101609Y-76898695D01*
X188101609Y-77071305D01*
X188074607Y-77241790D01*
X188021267Y-77405952D01*
X187942904Y-77559748D01*
X187841447Y-77699393D01*
X187719393Y-77821447D01*
X187579748Y-77922904D01*
X187425952Y-78001267D01*
X187261790Y-78054607D01*
X187091305Y-78081609D01*
X186918695Y-78081609D01*
X186748210Y-78054607D01*
X186584048Y-78001267D01*
X186430252Y-77922904D01*
X186290607Y-77821447D01*
X186168553Y-77699393D01*
X186067096Y-77559748D01*
X185988733Y-77405952D01*
X185935393Y-77241790D01*
X185908391Y-77071305D01*
X185908391Y-76898695D01*
X185935393Y-76728210D01*
X185988733Y-76564048D01*
X186067096Y-76410252D01*
X186168553Y-76270607D01*
X186290607Y-76148553D01*
X186430252Y-76047096D01*
X186584048Y-75968733D01*
X186748210Y-75915393D01*
X186918695Y-75888391D01*
X187091305Y-75888391D01*
X187261790Y-75915393D01*
G37*
%TD.AperFunction*%
%TD*%
M02*
