M48
; DRILL file {KiCad 9.0.0} date 2025-06-09T15:05:34+0200
; FORMAT={-:-/ absolute / metric / decimal}
; #@! TF.CreationDate,2025-06-09T15:05:34+02:00
; #@! TF.GenerationSoftware,Kicad,Pcbnew,9.0.0
; #@! TF.FileFunction,Plated,1,4,PTH
FMAT,2
METRIC
; #@! TA.AperFunction,Plated,PTH,ViaDrill
T1C0.250
; #@! TA.AperFunction,Plated,PTH,ComponentDrill
T2C0.600
; #@! TA.AperFunction,Plated,PTH,ComponentDrill
T3C0.700
; #@! TA.AperFunction,Plated,PTH,ComponentDrill
T4C0.800
; #@! TA.AperFunction,Plated,PTH,ComponentDrill
T5C1.000
; #@! TA.AperFunction,Plated,PTH,ComponentDrill
T6C1.200
%
G90
G05
T1
X116.204Y-54.234
X116.806Y-54.836
X117.169Y-51.659
X117.77Y-51.058
X123.071Y-56.401
X124.855Y-56.935
X125.055Y-40.285
X125.055Y-52.085
X126.155Y-49.885
X126.73Y-39.46
X127.405Y-50.385
X131.555Y-39.485
X131.955Y-57.735
X132.001Y-53.089
X132.055Y-50.385
X132.643Y-57.259
X132.705Y-52.2
X133.157Y-56.646
X133.173Y-50.923
X133.281Y-50.282
X133.355Y-61.935
X133.405Y-40.285
X133.405Y-63.185
X133.455Y-49.635
X133.605Y-55.282
X134.047Y-56.793
X134.705Y-55.835
X135.115Y-47.435
X135.605Y-46.635
X135.655Y-33.635
X136.165Y-47.003
X136.705Y-46.585
X137.237Y-46.958
X137.574Y-48.276
X138.155Y-47.985
X139.805Y-37.535
X141.355Y-48.335
X141.355Y-49.035
X141.974Y-39.559
X142.305Y-52.232
X142.355Y-50.732
X142.405Y-49.681
X142.655Y-58.085
X142.655Y-55.56
X142.754Y-54.892
X142.905Y-50.285
X142.906Y-51.985
X143.073Y-54.325
X143.355Y-52.682
X143.405Y-51.385
X143.505Y-53.835
X151.755Y-58.235
X151.905Y-57.335
T3
X120.835Y-78.925
X120.835Y-89.085
X123.375Y-78.925
X123.375Y-89.085
X125.915Y-78.925
X125.915Y-89.085
X128.455Y-78.925
X128.455Y-89.085
X130.995Y-78.925
X130.995Y-89.085
X133.535Y-78.925
X133.535Y-89.085
X136.075Y-78.925
X136.075Y-89.085
X138.615Y-78.925
X138.615Y-89.085
X141.155Y-78.925
X141.155Y-89.085
X143.695Y-78.925
X143.695Y-89.085
X146.235Y-78.925
X146.235Y-89.085
X148.775Y-78.925
X148.775Y-89.085
T4
X195.72Y-35.315
X195.72Y-37.855
X195.72Y-40.395
X195.72Y-42.935
X195.72Y-45.475
X195.72Y-48.015
X195.72Y-50.555
X195.72Y-53.095
X195.72Y-55.635
X195.72Y-58.175
X195.72Y-60.715
X195.72Y-63.255
X203.34Y-35.315
X203.34Y-37.855
X203.34Y-40.395
X203.34Y-42.935
X203.34Y-45.475
X203.34Y-48.015
X203.34Y-50.555
X203.34Y-53.095
X203.34Y-55.635
X203.34Y-58.175
X203.34Y-60.715
X203.34Y-63.255
T5
X115.93Y-69.785
X115.93Y-72.325
X116.495Y-97.935
X116.495Y-115.715
X116.925Y-43.385
X116.925Y-61.165
X119.035Y-97.935
X119.035Y-115.715
X119.465Y-43.385
X119.465Y-61.165
X121.575Y-97.935
X121.575Y-115.715
X122.005Y-43.385
X122.005Y-61.165
X124.115Y-97.935
X124.115Y-115.715
X124.545Y-43.385
X124.545Y-61.165
X126.655Y-97.935
X126.655Y-115.715
X127.085Y-43.385
X127.085Y-61.165
X129.195Y-97.935
X129.195Y-115.715
X129.625Y-43.385
X129.625Y-61.165
X131.735Y-97.935
X131.735Y-115.715
X132.165Y-43.385
X132.165Y-61.165
X132.53Y-67.085
X132.53Y-69.625
X132.53Y-72.165
X132.53Y-74.705
X134.275Y-97.935
X134.275Y-115.715
X134.33Y-32.27
X134.33Y-34.81
X134.705Y-43.385
X134.705Y-61.165
X136.165Y-120.685
X136.345Y-125.145
X136.345Y-127.685
X136.815Y-97.935
X136.815Y-115.715
X136.87Y-32.27
X136.87Y-34.81
X137.245Y-43.385
X137.245Y-61.165
X138.705Y-120.685
X138.885Y-125.145
X138.885Y-127.685
X139.355Y-97.935
X139.355Y-115.715
X139.41Y-32.27
X139.41Y-34.81
X139.785Y-43.385
X139.785Y-61.165
X141.245Y-120.685
X141.425Y-125.145
X141.425Y-127.685
X141.895Y-97.935
X141.895Y-115.715
X141.95Y-32.27
X141.95Y-34.81
X142.325Y-43.385
X142.325Y-61.165
X143.965Y-125.145
X143.965Y-127.685
X144.435Y-97.935
X144.435Y-115.715
X144.49Y-32.27
X144.49Y-34.81
X144.865Y-43.385
X144.865Y-61.165
X146.505Y-125.145
X146.505Y-127.685
X146.975Y-97.935
X146.975Y-115.715
X147.03Y-32.27
X147.03Y-34.81
X147.405Y-43.385
X147.405Y-61.165
X149.045Y-125.145
X149.045Y-127.685
X149.515Y-97.935
X149.515Y-115.715
X149.705Y-68.105
X149.705Y-70.645
X149.705Y-73.185
X149.945Y-43.385
X149.945Y-61.165
X152.025Y-32.145
X152.025Y-34.685
X152.055Y-97.935
X152.055Y-115.715
X152.485Y-43.385
X152.485Y-61.165
X153.405Y-68.105
X153.405Y-70.645
X153.405Y-73.185
X153.805Y-125.062
X153.805Y-127.602
X154.565Y-32.145
X154.565Y-34.685
X154.595Y-97.935
X154.595Y-115.715
X155.025Y-43.385
X155.025Y-61.165
X156.345Y-125.062
X156.345Y-127.602
X157.105Y-32.145
X157.105Y-34.685
X157.105Y-68.105
X157.105Y-70.645
X157.105Y-73.185
X157.135Y-97.935
X157.135Y-115.715
X157.565Y-43.385
X157.565Y-61.165
X158.885Y-125.062
X158.885Y-127.602
X159.645Y-32.145
X159.645Y-34.685
X159.675Y-97.935
X159.675Y-115.715
X160.105Y-43.385
X160.105Y-61.165
X160.805Y-68.06
X160.805Y-70.6
X160.805Y-73.14
X161.425Y-125.062
X161.425Y-127.602
X162.185Y-32.145
X162.185Y-34.685
X162.215Y-97.935
X162.215Y-115.715
X162.645Y-43.385
X162.645Y-61.165
X162.865Y-78.865
X162.865Y-81.405
X162.865Y-83.945
X162.865Y-86.485
X162.865Y-89.025
X162.865Y-91.565
X163.965Y-125.062
X163.965Y-127.602
X164.505Y-68.085
X164.505Y-70.625
X164.505Y-73.165
X164.725Y-32.145
X164.725Y-34.685
X164.755Y-97.935
X164.755Y-115.715
X165.185Y-43.385
X165.185Y-61.165
X165.405Y-78.865
X165.405Y-81.405
X165.405Y-83.945
X165.405Y-86.485
X165.405Y-89.025
X165.405Y-91.565
X166.505Y-125.062
X166.505Y-127.602
X168.205Y-68.085
X168.205Y-70.625
X168.205Y-73.165
X169.045Y-125.062
X169.045Y-127.602
X171.585Y-125.062
X171.585Y-127.602
X173.575Y-32.185
X173.605Y-35.885
X173.605Y-63.825
X174.125Y-125.062
X174.125Y-127.602
X174.455Y-88.935
X174.455Y-91.475
X174.455Y-94.015
X174.455Y-96.555
X174.455Y-99.095
X176.115Y-32.185
X176.145Y-35.885
X176.145Y-63.825
X176.665Y-125.062
X176.665Y-127.602
X176.995Y-88.935
X176.995Y-91.475
X176.995Y-94.015
X176.995Y-96.555
X176.995Y-99.095
X178.655Y-32.185
X178.685Y-35.885
X178.685Y-63.825
X179.205Y-125.062
X179.205Y-127.602
X181.195Y-32.185
X181.225Y-35.885
X181.225Y-63.825
X181.745Y-125.062
X181.745Y-127.602
X183.735Y-32.185
X183.765Y-35.885
X183.765Y-63.825
X184.285Y-125.062
X184.285Y-127.602
X186.275Y-32.185
X186.305Y-35.885
X186.305Y-63.825
X186.825Y-125.062
X186.825Y-127.602
X188.815Y-32.185
X188.845Y-35.885
X188.845Y-63.825
X189.365Y-125.062
X189.365Y-127.602
X191.355Y-32.185
X191.385Y-35.885
X191.385Y-63.825
X191.905Y-125.062
X191.905Y-127.602
X194.445Y-125.062
X194.445Y-127.602
X196.985Y-125.062
X196.985Y-127.602
X199.525Y-125.062
X199.525Y-127.602
X202.065Y-125.062
X202.065Y-127.602
T6
X208.472Y-70.235
X208.472Y-73.735
T2
G00X115.395Y-48.365
M15
G01X114.595Y-48.365
M16
G05
G00X115.395Y-57.005
M15
G01X114.595Y-57.005
M16
G05
G00X115.582Y-101.565
M15
G01X114.782Y-101.565
M16
G05
G00X115.582Y-110.205
M15
G01X114.782Y-110.205
M16
G05
G00X119.745Y-48.365
M15
G01X118.645Y-48.365
M16
G05
G00X119.745Y-57.005
M15
G01X118.645Y-57.005
M16
G05
G00X119.932Y-101.565
M15
G01X118.832Y-101.565
M16
G05
G00X119.932Y-110.205
M15
G01X118.832Y-110.205
M16
G05
M30
