%TF.GenerationSoftware,KiCad,Pcbnew,9.0.0*%
%TF.CreationDate,2025-06-09T15:05:36+02:00*%
%TF.ProjectId,stm32-fpga-bootloader,73746d33-322d-4667-9067-612d626f6f74,rev?*%
%TF.SameCoordinates,Original*%
%TF.FileFunction,Copper,L2,Inr*%
%TF.FilePolarity,Positive*%
%FSLAX46Y46*%
G04 Gerber Fmt 4.6, Leading zero omitted, Abs format (unit mm)*
G04 Created by KiCad (PCBNEW 9.0.0) date 2025-06-09 15:05:36*
%MOMM*%
%LPD*%
G01*
G04 APERTURE LIST*
G04 Aperture macros list*
%AMRoundRect*
0 Rectangle with rounded corners*
0 $1 Rounding radius*
0 $2 $3 $4 $5 $6 $7 $8 $9 X,Y pos of 4 corners*
0 Add a 4 corners polygon primitive as box body*
4,1,4,$2,$3,$4,$5,$6,$7,$8,$9,$2,$3,0*
0 Add four circle primitives for the rounded corners*
1,1,$1+$1,$2,$3*
1,1,$1+$1,$4,$5*
1,1,$1+$1,$6,$7*
1,1,$1+$1,$8,$9*
0 Add four rect primitives between the rounded corners*
20,1,$1+$1,$2,$3,$4,$5,0*
20,1,$1+$1,$4,$5,$6,$7,0*
20,1,$1+$1,$6,$7,$8,$9,0*
20,1,$1+$1,$8,$9,$2,$3,0*%
%AMFreePoly0*
4,1,37,0.603843,0.796157,0.639018,0.796157,0.711114,0.766294,0.766294,0.711114,0.796157,0.639018,0.796157,0.603843,0.800000,0.600000,0.800000,-0.600000,0.796157,-0.603843,0.796157,-0.639018,0.766294,-0.711114,0.711114,-0.766294,0.639018,-0.796157,0.603843,-0.796157,0.600000,-0.800000,0.000000,-0.800000,0.000000,-0.796148,-0.078414,-0.796148,-0.232228,-0.765552,-0.377117,-0.705537,
-0.507515,-0.618408,-0.618408,-0.507515,-0.705537,-0.377117,-0.765552,-0.232228,-0.796148,-0.078414,-0.796148,0.078414,-0.765552,0.232228,-0.705537,0.377117,-0.618408,0.507515,-0.507515,0.618408,-0.377117,0.705537,-0.232228,0.765552,-0.078414,0.796148,0.000000,0.796148,0.000000,0.800000,0.600000,0.800000,0.603843,0.796157,0.603843,0.796157,$1*%
%AMFreePoly1*
4,1,37,0.000000,0.796148,0.078414,0.796148,0.232228,0.765552,0.377117,0.705537,0.507515,0.618408,0.618408,0.507515,0.705537,0.377117,0.765552,0.232228,0.796148,0.078414,0.796148,-0.078414,0.765552,-0.232228,0.705537,-0.377117,0.618408,-0.507515,0.507515,-0.618408,0.377117,-0.705537,0.232228,-0.765552,0.078414,-0.796148,0.000000,-0.796148,0.000000,-0.800000,-0.600000,-0.800000,
-0.603843,-0.796157,-0.639018,-0.796157,-0.711114,-0.766294,-0.766294,-0.711114,-0.796157,-0.639018,-0.796157,-0.603843,-0.800000,-0.600000,-0.800000,0.600000,-0.796157,0.603843,-0.796157,0.639018,-0.766294,0.711114,-0.711114,0.766294,-0.639018,0.796157,-0.603843,0.796157,-0.600000,0.800000,0.000000,0.800000,0.000000,0.796148,0.000000,0.796148,$1*%
G04 Aperture macros list end*
%TA.AperFunction,ComponentPad*%
%ADD10RoundRect,0.250001X0.949999X-0.949999X0.949999X0.949999X-0.949999X0.949999X-0.949999X-0.949999X0*%
%TD*%
%TA.AperFunction,ComponentPad*%
%ADD11C,2.400000*%
%TD*%
%TA.AperFunction,ComponentPad*%
%ADD12RoundRect,0.375000X0.375000X-0.375000X0.375000X0.375000X-0.375000X0.375000X-0.375000X-0.375000X0*%
%TD*%
%TA.AperFunction,ComponentPad*%
%ADD13C,1.500000*%
%TD*%
%TA.AperFunction,ComponentPad*%
%ADD14RoundRect,0.200000X0.600000X-0.600000X0.600000X0.600000X-0.600000X0.600000X-0.600000X-0.600000X0*%
%TD*%
%TA.AperFunction,ComponentPad*%
%ADD15C,1.600000*%
%TD*%
%TA.AperFunction,ComponentPad*%
%ADD16FreePoly0,90.000000*%
%TD*%
%TA.AperFunction,ComponentPad*%
%ADD17FreePoly1,90.000000*%
%TD*%
%TA.AperFunction,ComponentPad*%
%ADD18R,1.700000X1.700000*%
%TD*%
%TA.AperFunction,ComponentPad*%
%ADD19O,1.700000X1.700000*%
%TD*%
%TA.AperFunction,HeatsinkPad*%
%ADD20O,2.100000X1.000000*%
%TD*%
%TA.AperFunction,HeatsinkPad*%
%ADD21O,1.800000X1.000000*%
%TD*%
%TA.AperFunction,ComponentPad*%
%ADD22RoundRect,0.250000X0.550000X0.550000X-0.550000X0.550000X-0.550000X-0.550000X0.550000X-0.550000X0*%
%TD*%
%TA.AperFunction,ViaPad*%
%ADD23C,0.450000*%
%TD*%
%TA.AperFunction,Conductor*%
%ADD24C,0.200000*%
%TD*%
G04 APERTURE END LIST*
D10*
%TO.N,Net-(J6-Pin_1)*%
%TO.C,J6*%
X208472500Y-73735000D03*
D11*
%TO.N,GND*%
X208472500Y-70235000D03*
%TD*%
D12*
%TO.N,unconnected-(U12-L3-Pad1)*%
%TO.C,U12*%
X120835000Y-89085000D03*
D13*
%TO.N,Net-(U12-D1)*%
X123375000Y-89085000D03*
%TO.N,/displays/7SEG_D*%
X125915000Y-89085000D03*
%TO.N,unconnected-(U12-L2-Pad4)*%
X128455000Y-89085000D03*
%TO.N,Net-(U12-D2)*%
X130995000Y-89085000D03*
%TO.N,unconnected-(U12-LC_CA-Pad6)*%
X133535000Y-89085000D03*
%TO.N,unconnected-(U12-LC_AN-Pad7)*%
X136075000Y-89085000D03*
%TO.N,Net-(U12-D3)*%
X138615000Y-89085000D03*
%TO.N,unconnected-(U12-DP1_AN-Pad9)*%
X141155000Y-89085000D03*
%TO.N,Net-(U12-D4)*%
X143695000Y-89085000D03*
%TO.N,/displays/7SEG_E*%
X146235000Y-89085000D03*
%TO.N,unconnected-(U12-DP2_AN-Pad12)*%
X148775000Y-89085000D03*
%TO.N,unconnected-(U12-UP_CA-Pad13)*%
X148775000Y-78925000D03*
%TO.N,unconnected-(U12-DP2_CA-Pad14)*%
X146235000Y-78925000D03*
%TO.N,unconnected-(U12-UP_AN-Pad15)*%
X143695000Y-78925000D03*
%TO.N,unconnected-(U12-DP1_CA-Pad16)*%
X141155000Y-78925000D03*
%TO.N,/displays/7SEG_A*%
X138615000Y-78925000D03*
%TO.N,/displays/7SEG_F*%
X136075000Y-78925000D03*
%TO.N,/displays/7SEG_B*%
X133535000Y-78925000D03*
%TO.N,/displays/7SEG_C*%
X130995000Y-78925000D03*
%TO.N,/displays/7SEG_E*%
X128455000Y-78925000D03*
%TO.N,/displays/7SEG_G*%
X125915000Y-78925000D03*
%TO.N,unconnected-(U12-L1-Pad23)*%
X123375000Y-78925000D03*
%TO.N,unconnected-(U12-L1_L2_L3_CA-Pad24)*%
X120835000Y-78925000D03*
%TD*%
D14*
%TO.N,/CPLD_B0_PT10A*%
%TO.C,A2*%
X116495000Y-115715000D03*
D15*
%TO.N,/CPLD_B1_PT10B*%
X119035000Y-115715000D03*
D16*
%TO.N,GND*%
X121575000Y-115715000D03*
D15*
%TO.N,/CPLD_B2_PT9A*%
X124115000Y-115715000D03*
%TO.N,/CPLD_B3_PT9B*%
X126655000Y-115715000D03*
%TO.N,/CPLD_B4_PR9A*%
X129195000Y-115715000D03*
%TO.N,/CPLD_B5_PR9B*%
X131735000Y-115715000D03*
D16*
%TO.N,GND*%
X134275000Y-115715000D03*
D15*
%TO.N,/CPLD_B6_PR9C*%
X136815000Y-115715000D03*
%TO.N,/CPLD_B7_PR9D*%
X139355000Y-115715000D03*
%TO.N,unconnected-(A2-GPIO8-Pad11)*%
X141895000Y-115715000D03*
%TO.N,unconnected-(A2-GPIO9-Pad12)*%
X144435000Y-115715000D03*
D16*
%TO.N,GND*%
X146975000Y-115715000D03*
D15*
%TO.N,/CPLD_CLOCK*%
X149515000Y-115715000D03*
%TO.N,unconnected-(A2-GPIO11-Pad15)*%
X152055000Y-115715000D03*
%TO.N,unconnected-(A2-GPIO12-Pad16)*%
X154595000Y-115715000D03*
%TO.N,unconnected-(A2-GPIO13-Pad17)*%
X157135000Y-115715000D03*
D16*
%TO.N,GND*%
X159675000Y-115715000D03*
D15*
%TO.N,unconnected-(A2-GPIO14-Pad19)*%
X162215000Y-115715000D03*
%TO.N,unconnected-(A2-GPIO15-Pad20)*%
X164755000Y-115715000D03*
%TO.N,/CPLD_MISO*%
X164755000Y-97935000D03*
%TO.N,/CPLD_SPI_CS*%
X162215000Y-97935000D03*
D17*
%TO.N,GND*%
X159675000Y-97935000D03*
D15*
%TO.N,/CPLDK_SCK*%
X157135000Y-97935000D03*
%TO.N,/CPLD_MOSI*%
X154595000Y-97935000D03*
%TO.N,/CPLD_SDA*%
X152055000Y-97935000D03*
%TO.N,/CPLD_SCL*%
X149515000Y-97935000D03*
D17*
%TO.N,GND*%
X146975000Y-97935000D03*
D15*
%TO.N,/CPLD_SPI_MCS*%
X144435000Y-97935000D03*
%TO.N,unconnected-(A2-RUN-Pad30)*%
X141895000Y-97935000D03*
%TO.N,unconnected-(A2-GPIO26_ADC0-Pad31)*%
X139355000Y-97935000D03*
%TO.N,unconnected-(A2-GPIO27_ADC1-Pad32)*%
X136815000Y-97935000D03*
D17*
%TO.N,unconnected-(A2-AGND-Pad33)*%
X134275000Y-97935000D03*
D15*
%TO.N,unconnected-(A2-GPIO28_ADC2-Pad34)*%
X131735000Y-97935000D03*
%TO.N,unconnected-(A2-ADC_VREF-Pad35)*%
X129195000Y-97935000D03*
%TO.N,unconnected-(A2-3V3-Pad36)*%
X126655000Y-97935000D03*
%TO.N,unconnected-(A2-3V3_EN-Pad37)*%
X124115000Y-97935000D03*
D17*
%TO.N,GND*%
X121575000Y-97935000D03*
D15*
%TO.N,unconnected-(A2-VSYS-Pad39)*%
X119035000Y-97935000D03*
%TO.N,VBUS2*%
X116495000Y-97935000D03*
%TD*%
D14*
%TO.N,/RPI_ICE0*%
%TO.C,A1*%
X116925000Y-61165000D03*
D15*
%TO.N,/RPI_ICE1*%
X119465000Y-61165000D03*
D16*
%TO.N,GND*%
X122005000Y-61165000D03*
D15*
%TO.N,/RPI_ICE2*%
X124545000Y-61165000D03*
%TO.N,/RPI_ICE3*%
X127085000Y-61165000D03*
%TO.N,/RPI_ICE4*%
X129625000Y-61165000D03*
%TO.N,/RPI_ICE5*%
X132165000Y-61165000D03*
D16*
%TO.N,GND*%
X134705000Y-61165000D03*
D15*
%TO.N,/RPI_ICE6*%
X137245000Y-61165000D03*
%TO.N,/RPI_ICE7*%
X139785000Y-61165000D03*
%TO.N,/IOB_23b*%
X142325000Y-61165000D03*
%TO.N,/IOT_43a*%
X144865000Y-61165000D03*
D16*
%TO.N,GND*%
X147405000Y-61165000D03*
D15*
%TO.N,Net-(A1-GPIO10)*%
X149945000Y-61165000D03*
%TO.N,/ICE_SPI_MOSI*%
X152485000Y-61165000D03*
%TO.N,/ICE_SPI_MISO*%
X155025000Y-61165000D03*
%TO.N,/ICE_SPI_SS*%
X157565000Y-61165000D03*
D16*
%TO.N,GND*%
X160105000Y-61165000D03*
D15*
%TO.N,/ICE_SPI_SCK*%
X162645000Y-61165000D03*
%TO.N,/ICE_nRST*%
X165185000Y-61165000D03*
%TO.N,/GPIO16_SPI0_RX*%
X165185000Y-43385000D03*
%TO.N,/GPIO17_SPI0_CSn*%
X162645000Y-43385000D03*
D17*
%TO.N,GND*%
X160105000Y-43385000D03*
D15*
%TO.N,/GPIO18_SPI0_SCK*%
X157565000Y-43385000D03*
%TO.N,/GPIO19_SPI0_TX*%
X155025000Y-43385000D03*
%TO.N,/GPIO20_I2C0_SDA*%
X152485000Y-43385000D03*
%TO.N,/GPIO21_I2C0_SCL*%
X149945000Y-43385000D03*
D17*
%TO.N,GND*%
X147405000Y-43385000D03*
D15*
%TO.N,/ICE_CDONE*%
X144865000Y-43385000D03*
%TO.N,Net-(A1-RUN)*%
X142325000Y-43385000D03*
%TO.N,/GPIO26_ADC0*%
X139785000Y-43385000D03*
%TO.N,/GPIO27_ADC1*%
X137245000Y-43385000D03*
D17*
%TO.N,unconnected-(A1-AGND-Pad33)*%
X134705000Y-43385000D03*
D15*
%TO.N,/LED1*%
X132165000Y-43385000D03*
%TO.N,unconnected-(A1-ADC_VREF-Pad35)*%
X129625000Y-43385000D03*
%TO.N,unconnected-(A1-3V3-Pad36)*%
X127085000Y-43385000D03*
%TO.N,unconnected-(A1-3V3_EN-Pad37)*%
X124545000Y-43385000D03*
D17*
%TO.N,GND*%
X122005000Y-43385000D03*
D15*
%TO.N,unconnected-(A1-VSYS-Pad39)*%
X119465000Y-43385000D03*
%TO.N,VBUS1*%
X116925000Y-43385000D03*
%TD*%
D18*
%TO.N,/lcmxo2-cpld-block/PL8A*%
%TO.C,J12*%
X136345000Y-125145000D03*
D19*
%TO.N,/lcmxo2-cpld-block/PL8B*%
X136345000Y-127685000D03*
%TO.N,/lcmxo2-cpld-block/PL5D*%
X138885000Y-125145000D03*
%TO.N,/lcmxo2-cpld-block/PL8D*%
X138885000Y-127685000D03*
%TO.N,/lcmxo2-cpld-block/PL5C*%
X141425000Y-125145000D03*
%TO.N,/lcmxo2-cpld-block/PL8C*%
X141425000Y-127685000D03*
%TO.N,/lcmxo2-cpld-block/PL9B{slash}PCLKC3_0*%
X143965000Y-125145000D03*
%TO.N,/lcmxo2-cpld-block/PL9A{slash}PCLKT3_0*%
X143965000Y-127685000D03*
%TO.N,GND*%
X146505000Y-125145000D03*
X146505000Y-127685000D03*
%TO.N,+3.3V*%
X149045000Y-125145000D03*
X149045000Y-127685000D03*
%TD*%
D20*
%TO.N,GND*%
%TO.C,J1*%
X119382500Y-101565000D03*
D21*
X115182500Y-101565000D03*
D20*
X119382500Y-110205000D03*
D21*
X115182500Y-110205000D03*
%TD*%
D20*
%TO.N,GND*%
%TO.C,J8*%
X119195000Y-48365000D03*
D21*
X114995000Y-48365000D03*
D20*
X119195000Y-57005000D03*
D21*
X114995000Y-57005000D03*
%TD*%
D18*
%TO.N,/IOT_39a*%
%TO.C,JP3*%
X157105000Y-68105000D03*
D19*
%TO.N,/MATRIX_SPI_MOSI*%
X157105000Y-70645000D03*
%TO.N,/PR8D*%
X157105000Y-73185000D03*
%TD*%
D18*
%TO.N,GND*%
%TO.C,J1003*%
X136165000Y-120685000D03*
D19*
%TO.N,/jtag-prog/DBG_RX*%
X138705000Y-120685000D03*
%TO.N,/jtag-prog/DBG_TX*%
X141245000Y-120685000D03*
%TD*%
D18*
%TO.N,/IOT_38b*%
%TO.C,JP2*%
X153405000Y-68105000D03*
D19*
%TO.N,/ENCODER_A*%
X153405000Y-70645000D03*
%TO.N,/PB15A*%
X153405000Y-73185000D03*
%TD*%
D18*
%TO.N,Net-(J13-3V3-Pad1)*%
%TO.C,J13*%
X153805000Y-127602500D03*
D19*
%TO.N,Net-(J13-5V-Pad2)*%
X153805000Y-125062500D03*
%TO.N,/CPLD_SDA*%
X156345000Y-127602500D03*
%TO.N,Net-(J13-5V-Pad2)*%
X156345000Y-125062500D03*
%TO.N,/CPLD_SCL*%
X158885000Y-127602500D03*
%TO.N,GND*%
X158885000Y-125062500D03*
%TO.N,/lcmxo2-cpld-block/PT15B*%
X161425000Y-127602500D03*
%TO.N,/lcmxo2-cpld-block/PB6A*%
X161425000Y-125062500D03*
%TO.N,GND*%
X163965000Y-127602500D03*
%TO.N,/lcmxo2-cpld-block/PB6B*%
X163965000Y-125062500D03*
%TO.N,/lcmxo2-cpld-block/PR5D{slash}PCLKC1_0*%
X166505000Y-127602500D03*
%TO.N,/lcmxo2-cpld-block/PR5C{slash}PCLKT1_0*%
X166505000Y-125062500D03*
%TO.N,/lcmxo2-cpld-block/PR2A*%
X169045000Y-127602500D03*
%TO.N,GND*%
X169045000Y-125062500D03*
%TO.N,/lcmxo2-cpld-block/PR4B*%
X171585000Y-127602500D03*
%TO.N,/lcmxo2-cpld-block/PR4A*%
X171585000Y-125062500D03*
%TO.N,Net-(J13-3V3-Pad1)*%
X174125000Y-127602500D03*
%TO.N,/lcmxo2-cpld-block/PR3B*%
X174125000Y-125062500D03*
%TO.N,/CPLD_MOSI*%
X176665000Y-127602500D03*
%TO.N,GND*%
X176665000Y-125062500D03*
%TO.N,/CPLD_MISO*%
X179205000Y-127602500D03*
%TO.N,/lcmxo2-cpld-block/PR3A*%
X179205000Y-125062500D03*
%TO.N,/CPLDK_SCK*%
X181745000Y-127602500D03*
%TO.N,/CPLD_SPI_CS*%
X181745000Y-125062500D03*
%TO.N,GND*%
X184285000Y-127602500D03*
%TO.N,/CPLD_SPI_MCS*%
X184285000Y-125062500D03*
%TO.N,/lcmxo2-cpld-block/PB4D*%
X186825000Y-127602500D03*
%TO.N,/lcmxo2-cpld-block/PT16C*%
X186825000Y-125062500D03*
%TO.N,/lcmxo2-cpld-block/PT12A{slash}PCLKT0_1*%
X189365000Y-127602500D03*
%TO.N,GND*%
X189365000Y-125062500D03*
%TO.N,/lcmxo2-cpld-block/PT12B{slash}PCLKC0_1*%
X191905000Y-127602500D03*
%TO.N,/lcmxo2-cpld-block/PT15A*%
X191905000Y-125062500D03*
%TO.N,/lcmxo2-cpld-block/PL3B{slash}PCLKC3_2*%
X194445000Y-127602500D03*
%TO.N,GND*%
X194445000Y-125062500D03*
%TO.N,/lcmxo2-cpld-block/PR5A*%
X196985000Y-127602500D03*
%TO.N,/lcmxo2-cpld-block/PR5B*%
X196985000Y-125062500D03*
%TO.N,/lcmxo2-cpld-block/PR2B*%
X199525000Y-127602500D03*
%TO.N,/lcmxo2-cpld-block/PR4D*%
X199525000Y-125062500D03*
%TO.N,GND*%
X202065000Y-127602500D03*
%TO.N,/lcmxo2-cpld-block/PR4C*%
X202065000Y-125062500D03*
%TD*%
D18*
%TO.N,/IOT_45a_G1*%
%TO.C,JP6*%
X164505000Y-68085000D03*
D19*
%TO.N,/ENCODER_BTN*%
X164505000Y-70625000D03*
%TO.N,/PB11B{slash}PCLKC2_1*%
X164505000Y-73165000D03*
%TD*%
D18*
%TO.N,Net-(J10-Pin_1)*%
%TO.C,J10*%
X173605000Y-35885000D03*
D19*
%TO.N,Net-(J10-Pin_2)*%
X176145000Y-35885000D03*
%TO.N,Net-(J10-Pin_3)*%
X178685000Y-35885000D03*
%TO.N,Net-(J10-Pin_4)*%
X181225000Y-35885000D03*
%TO.N,Net-(J10-Pin_5)*%
X183765000Y-35885000D03*
%TO.N,Net-(J10-Pin_6)*%
X186305000Y-35885000D03*
%TO.N,Net-(J10-Pin_7)*%
X188845000Y-35885000D03*
%TO.N,Net-(J10-Pin_8)*%
X191385000Y-35885000D03*
%TD*%
D18*
%TO.N,/IOT_36b*%
%TO.C,JP4*%
X160805000Y-68060000D03*
D19*
%TO.N,/ENCODER_B*%
X160805000Y-70600000D03*
%TO.N,/PB15B*%
X160805000Y-73140000D03*
%TD*%
D18*
%TO.N,Net-(J1001-Pin_1)*%
%TO.C,J1001*%
X132530000Y-67085000D03*
D19*
%TO.N,Net-(J1001-Pin_2)*%
X132530000Y-69625000D03*
%TO.N,Net-(J1001-Pin_3)*%
X132530000Y-72165000D03*
%TO.N,Net-(J1001-Pin_4)*%
X132530000Y-74705000D03*
%TD*%
D18*
%TO.N,/IOB_0a*%
%TO.C,J5*%
X147030000Y-34810000D03*
D19*
%TO.N,/IOB_5b*%
X147030000Y-32270000D03*
%TO.N,/IOB_2a*%
X144490000Y-34810000D03*
%TO.N,/IOB_6a*%
X144490000Y-32270000D03*
%TO.N,/IOB_3b_G6*%
X141950000Y-34810000D03*
%TO.N,/IOB_8a*%
X141950000Y-32270000D03*
%TO.N,/IOB_4a*%
X139410000Y-34810000D03*
%TO.N,/IOT_51a*%
X139410000Y-32270000D03*
%TO.N,GND*%
X136870000Y-34810000D03*
X136870000Y-32270000D03*
%TO.N,+3.3V*%
X134330000Y-34810000D03*
X134330000Y-32270000D03*
%TD*%
D22*
%TO.N,Net-(Q3-D)*%
%TO.C,U8*%
X203340000Y-63255000D03*
D15*
%TO.N,Net-(J11-Pin_1)*%
X203340000Y-60715000D03*
%TO.N,Net-(J11-Pin_5)*%
X203340000Y-58175000D03*
%TO.N,GND*%
X203340000Y-55635000D03*
%TO.N,Net-(J11-Pin_7)*%
X203340000Y-53095000D03*
%TO.N,Net-(J11-Pin_3)*%
X203340000Y-50555000D03*
%TO.N,Net-(J11-Pin_4)*%
X203340000Y-48015000D03*
%TO.N,Net-(J11-Pin_8)*%
X203340000Y-45475000D03*
%TO.N,GND*%
X203340000Y-42935000D03*
%TO.N,Net-(J11-Pin_6)*%
X203340000Y-40395000D03*
%TO.N,Net-(J11-Pin_2)*%
X203340000Y-37855000D03*
%TO.N,Net-(Q1-D)*%
X203340000Y-35315000D03*
%TO.N,Net-(Q2-D)*%
X195720000Y-35315000D03*
%TO.N,Net-(J10-Pin_1)*%
X195720000Y-37855000D03*
%TO.N,Net-(J10-Pin_6)*%
X195720000Y-40395000D03*
%TO.N,Net-(J10-Pin_2)*%
X195720000Y-42935000D03*
%TO.N,Net-(J10-Pin_7)*%
X195720000Y-45475000D03*
%TO.N,Net-(U8-ISET)*%
X195720000Y-48015000D03*
%TO.N,+5V*%
X195720000Y-50555000D03*
%TO.N,Net-(J10-Pin_3)*%
X195720000Y-53095000D03*
%TO.N,Net-(J10-Pin_5)*%
X195720000Y-55635000D03*
%TO.N,Net-(J10-Pin_8)*%
X195720000Y-58175000D03*
%TO.N,Net-(J10-Pin_4)*%
X195720000Y-60715000D03*
%TO.N,unconnected-(U8-DOUT-Pad24)*%
X195720000Y-63255000D03*
%TD*%
D18*
%TO.N,/IOT_48b*%
%TO.C,JP5*%
X168205000Y-68085000D03*
D19*
%TO.N,/MATRIX_SPI_SCK*%
X168205000Y-70625000D03*
%TO.N,/PR10D*%
X168205000Y-73165000D03*
%TD*%
D18*
%TO.N,/IOT_44b*%
%TO.C,JP1*%
X149705000Y-68105000D03*
D19*
%TO.N,/MATRIX_SPI_nCS*%
X149705000Y-70645000D03*
%TO.N,/PR10C*%
X149705000Y-73185000D03*
%TD*%
D18*
%TO.N,Net-(J11-Pin_1)*%
%TO.C,J11*%
X173605000Y-63825000D03*
D19*
%TO.N,Net-(J11-Pin_2)*%
X176145000Y-63825000D03*
%TO.N,Net-(J11-Pin_3)*%
X178685000Y-63825000D03*
%TO.N,Net-(J11-Pin_4)*%
X181225000Y-63825000D03*
%TO.N,Net-(J11-Pin_5)*%
X183765000Y-63825000D03*
%TO.N,Net-(J11-Pin_6)*%
X186305000Y-63825000D03*
%TO.N,Net-(J11-Pin_7)*%
X188845000Y-63825000D03*
%TO.N,Net-(J11-Pin_8)*%
X191385000Y-63825000D03*
%TD*%
D18*
%TO.N,/displays/SHIFT_REG_DATA*%
%TO.C,J9*%
X165405000Y-78865000D03*
D19*
%TO.N,/displays/7SEG_D1*%
X162865000Y-78865000D03*
%TO.N,/displays/SHIFT_REG_STCLK*%
X165405000Y-81405000D03*
%TO.N,/displays/7SEG_D2*%
X162865000Y-81405000D03*
%TO.N,/displays/SHIFT_REG_CLK*%
X165405000Y-83945000D03*
%TO.N,/displays/7SEG_D3*%
X162865000Y-83945000D03*
%TO.N,/displays/SHIFT_REG_nMCLR*%
X165405000Y-86485000D03*
%TO.N,/displays/7SEG_D4*%
X162865000Y-86485000D03*
%TO.N,/displays/SHIFT_REG_OE*%
X165405000Y-89025000D03*
%TO.N,GND*%
X162865000Y-89025000D03*
%TO.N,+3.3V*%
X165405000Y-91565000D03*
X162865000Y-91565000D03*
%TD*%
D18*
%TO.N,Net-(J15-Pin_1)*%
%TO.C,J15*%
X115930000Y-69785000D03*
D19*
%TO.N,GND*%
X115930000Y-72325000D03*
%TD*%
D18*
%TO.N,/GPIO18_SPI0_SCK*%
%TO.C,J3*%
X164725000Y-32145000D03*
D19*
%TO.N,/GPIO19_SPI0_TX*%
X164725000Y-34685000D03*
%TO.N,/GPIO16_SPI0_RX*%
X162185000Y-32145000D03*
%TO.N,/GPIO17_SPI0_CSn*%
X162185000Y-34685000D03*
%TO.N,/ICE_CLOCK*%
X159645000Y-32145000D03*
%TO.N,GND*%
X159645000Y-34685000D03*
%TO.N,/GPIO20_I2C0_SDA*%
X157105000Y-32145000D03*
%TO.N,/GPIO21_I2C0_SCL*%
X157105000Y-34685000D03*
%TO.N,/GPIO26_ADC0*%
X154565000Y-32145000D03*
%TO.N,/GPIO27_ADC1*%
X154565000Y-34685000D03*
%TO.N,unconnected-(J3-Pin_11-Pad11)*%
X152025000Y-32145000D03*
%TO.N,+3.3V*%
X152025000Y-34685000D03*
%TD*%
D18*
%TO.N,/PT10C{slash}TDO*%
%TO.C,J1002*%
X176995000Y-88935000D03*
D19*
%TO.N,/TDI*%
X174455000Y-88935000D03*
%TO.N,/PT10D{slash}TDI*%
X176995000Y-91475000D03*
%TO.N,/TDO*%
X174455000Y-91475000D03*
%TO.N,/PT11C{slash}TCK*%
X176995000Y-94015000D03*
%TO.N,/TCK*%
X174455000Y-94015000D03*
%TO.N,/PT11D{slash}TMS*%
X176995000Y-96555000D03*
%TO.N,/TMS*%
X174455000Y-96555000D03*
%TO.N,GND*%
X176995000Y-99095000D03*
X174455000Y-99095000D03*
%TD*%
D18*
%TO.N,/IOT_50b*%
%TO.C,J1004*%
X173575000Y-32185000D03*
D19*
%TO.N,/IOB_13b*%
X176115000Y-32185000D03*
%TO.N,/IOT_37a*%
X178655000Y-32185000D03*
%TO.N,/IOB_20a*%
X181195000Y-32185000D03*
%TO.N,/IOB_22a*%
X183735000Y-32185000D03*
%TO.N,/IOB_23b*%
X186275000Y-32185000D03*
%TO.N,/IOT_43a*%
X188815000Y-32185000D03*
%TO.N,GND*%
X191355000Y-32185000D03*
%TD*%
D23*
%TO.N,/RPI_ICE0*%
X125055000Y-52085000D03*
%TO.N,/IOB_8a*%
X135655000Y-33635000D03*
%TO.N,/GPIO27_ADC1*%
X139805000Y-37535000D03*
%TO.N,/ICE_CDONE*%
X125055000Y-40285000D03*
X133405000Y-40285000D03*
%TO.N,/IOB_3b_G6*%
X141973732Y-39558732D03*
%TO.N,Net-(A1-RUN)*%
X126730000Y-39460000D03*
X131555000Y-39485000D03*
%TO.N,/IOB_4a*%
X135115000Y-47435000D03*
%TO.N,/IOB_2a*%
X135605000Y-46635000D03*
%TO.N,/IOB_0a*%
X136165000Y-47003366D03*
%TO.N,/IOB_5b*%
X136705000Y-46585000D03*
%TO.N,/IOB_3b_G6*%
X137237090Y-46958341D03*
%TO.N,/RPI_ICE6*%
X137573620Y-48275690D03*
%TO.N,/IOT_51a*%
X138155000Y-47985000D03*
%TO.N,/IOT_50b*%
X141355000Y-48335000D03*
%TO.N,/IOT_45a_G1*%
X141355000Y-49035000D03*
%TO.N,/IOT_48b*%
X142405000Y-49681500D03*
%TO.N,/ICE_CLOCK*%
X142905000Y-50285000D03*
%TO.N,/IOT_44b*%
X142355000Y-50732500D03*
%TO.N,+3.3V*%
X143405000Y-51385000D03*
%TO.N,/IOT_43a*%
X142905887Y-51984634D03*
%TO.N,/RPI_ICE1*%
X142305000Y-52232500D03*
%TO.N,+3.3V*%
X143355000Y-52682500D03*
%TO.N,/RPI_ICE7*%
X143505000Y-53835000D03*
%TO.N,/IOT_38b*%
X143073125Y-54325309D03*
%TO.N,/IOT_39a*%
X142754098Y-54891634D03*
%TO.N,/IOT_36b*%
X142655492Y-55560000D03*
%TO.N,/IOT_37a*%
X142655000Y-58085000D03*
%TO.N,/ICE_SPI_MISO*%
X151755000Y-58235000D03*
%TO.N,/ICE_SPI_SS*%
X151905000Y-57335000D03*
%TO.N,/ICE_SPI_MOSI*%
X127405000Y-50385000D03*
%TO.N,/ICE_SPI_SCK*%
X126155000Y-49885000D03*
%TO.N,/ICE_SPI_SS*%
X123071250Y-56401250D03*
%TO.N,/ICE_SPI_MISO*%
X124855000Y-56935000D03*
%TO.N,/IOB_13b*%
X132705000Y-52200056D03*
%TO.N,/IOB_8a*%
X133173451Y-50922882D03*
%TO.N,/RPI_ICE0*%
X133281092Y-50281854D03*
%TO.N,/IOB_6a*%
X133455000Y-49635000D03*
%TO.N,/D-*%
X117769589Y-51057615D03*
%TO.N,/D+*%
X117168547Y-51658657D03*
%TO.N,/D-*%
X116204479Y-54234479D03*
%TO.N,/D+*%
X116805521Y-54835521D03*
%TO.N,/IOB_22a*%
X133605000Y-55282500D03*
%TO.N,/RPI_ICE3*%
X134705000Y-55835000D03*
%TO.N,/ICE_SPI_MISO*%
X131955000Y-57735000D03*
%TO.N,/ICE_SPI_SS*%
X132642869Y-57258983D03*
%TO.N,/ICE_SPI_SCK*%
X133157354Y-56646358D03*
%TO.N,/ICE_SPI_MOSI*%
X134046730Y-56793270D03*
%TO.N,/RPI_ICE2*%
X133355000Y-61935000D03*
X133405000Y-63185000D03*
%TO.N,/ICE_nRST*%
X132001232Y-53088768D03*
X132055000Y-50385000D03*
%TD*%
D24*
%TO.N,/IOB_5b*%
X148181000Y-36059000D02*
X148181000Y-33421000D01*
X147231000Y-37009000D02*
X148181000Y-36059000D01*
X148181000Y-33421000D02*
X147030000Y-32270000D01*
X139581000Y-37009000D02*
X147231000Y-37009000D01*
X139355000Y-37235000D02*
X139581000Y-37009000D01*
%TO.N,/IOB_3b_G6*%
X141224000Y-40308464D02*
X141224000Y-44216000D01*
X141973732Y-39558732D02*
X141224000Y-40308464D01*
X141224000Y-44216000D02*
X140305000Y-45135000D01*
%TO.N,/IOB_0a*%
X136305000Y-39535000D02*
X139454000Y-36386000D01*
X136305000Y-39635000D02*
X136305000Y-39535000D01*
X145454000Y-36386000D02*
X147030000Y-34810000D01*
X136055000Y-46025000D02*
X136055000Y-39885000D01*
X136055000Y-39885000D02*
X136305000Y-39635000D01*
X136165000Y-46135000D02*
X136055000Y-46025000D01*
X136165000Y-47003366D02*
X136165000Y-46135000D01*
X139454000Y-36386000D02*
X145454000Y-36386000D01*
%TO.N,/IOB_5b*%
X139355000Y-37235000D02*
X139454000Y-37136000D01*
%TO.N,/IOB_2a*%
X133599000Y-41041000D02*
X133599000Y-44629000D01*
X137655000Y-36985000D02*
X133599000Y-41041000D01*
X137655000Y-36935000D02*
X137655000Y-36985000D01*
X133599000Y-44629000D02*
X135605000Y-46635000D01*
X144440000Y-35985000D02*
X138605000Y-35985000D01*
X144490000Y-35935000D02*
X144440000Y-35985000D01*
X144490000Y-34810000D02*
X144490000Y-35935000D01*
X138605000Y-35985000D02*
X137655000Y-36935000D01*
%TO.N,/IOB_5b*%
X138346000Y-38244000D02*
X139355000Y-37235000D01*
X137805000Y-45085000D02*
X138346000Y-44544000D01*
X139454000Y-37136000D02*
X139460123Y-37136000D01*
X138346000Y-44544000D02*
X138346000Y-38244000D01*
%TO.N,/RPI_ICE0*%
X132908146Y-50281854D02*
X133281092Y-50281854D01*
X131255000Y-51935000D02*
X132908146Y-50281854D01*
X125205000Y-51935000D02*
X131255000Y-51935000D01*
X125055000Y-52085000D02*
X125205000Y-51935000D01*
%TO.N,/IOB_5b*%
X136705000Y-46185000D02*
X137805000Y-45085000D01*
X136705000Y-46585000D02*
X136705000Y-46185000D01*
%TO.N,/IOB_3b_G6*%
X138455000Y-45135000D02*
X137237090Y-46352910D01*
X140305000Y-45135000D02*
X138455000Y-45135000D01*
X137237090Y-46352910D02*
X137237090Y-46958341D01*
%TO.N,/ICE_SPI_MOSI*%
X152485000Y-57165000D02*
X152485000Y-61165000D01*
X137055000Y-57235000D02*
X137705000Y-56585000D01*
X137705000Y-56585000D02*
X151905000Y-56585000D01*
X151905000Y-56585000D02*
X152485000Y-57165000D01*
X134605000Y-57235000D02*
X137055000Y-57235000D01*
X134163270Y-56793270D02*
X134605000Y-57235000D01*
X134046730Y-56793270D02*
X134163270Y-56793270D01*
%TO.N,/ICE_SPI_SS*%
X151555000Y-56985000D02*
X151905000Y-57335000D01*
X137955000Y-56985000D02*
X151555000Y-56985000D01*
X137304000Y-57636000D02*
X137955000Y-56985000D01*
X133019886Y-57636000D02*
X137304000Y-57636000D01*
X132642869Y-57258983D02*
X133019886Y-57636000D01*
%TO.N,/ICE_SPI_SCK*%
X160640000Y-59160000D02*
X162645000Y-61165000D01*
X160530000Y-59160000D02*
X160640000Y-59160000D01*
X157455000Y-56085000D02*
X160530000Y-59160000D01*
X137305000Y-56085000D02*
X157455000Y-56085000D01*
X136556000Y-56834000D02*
X137305000Y-56085000D01*
X134655000Y-56657663D02*
X134655000Y-56685000D01*
X134264607Y-56267270D02*
X134655000Y-56657663D01*
X133537270Y-56267270D02*
X134264607Y-56267270D01*
X133157354Y-56638769D02*
X133533061Y-56263061D01*
X134804000Y-56834000D02*
X136556000Y-56834000D01*
X133157354Y-56646358D02*
X133157354Y-56638769D01*
X133533061Y-56263061D02*
X133537270Y-56267270D01*
X134655000Y-56685000D02*
X134804000Y-56834000D01*
%TO.N,/ICE_SPI_MISO*%
X138505000Y-57485000D02*
X151005000Y-57485000D01*
X151455000Y-57935000D02*
X151755000Y-58235000D01*
X137953000Y-58037000D02*
X138505000Y-57485000D01*
X151005000Y-57485000D02*
X151455000Y-57935000D01*
X131955000Y-57735000D02*
X132257000Y-58037000D01*
X132257000Y-58037000D02*
X137953000Y-58037000D01*
%TD*%
M02*
