%TF.GenerationSoftware,KiCad,Pcbnew,9.0.0*%
%TF.CreationDate,2025-06-09T15:05:36+02:00*%
%TF.ProjectId,stm32-fpga-bootloader,73746d33-322d-4667-9067-612d626f6f74,rev?*%
%TF.SameCoordinates,Original*%
%TF.FileFunction,Legend,Bot*%
%TF.FilePolarity,Positive*%
%FSLAX46Y46*%
G04 Gerber Fmt 4.6, Leading zero omitted, Abs format (unit mm)*
G04 Created by KiCad (PCBNEW 9.0.0) date 2025-06-09 15:05:36*
%MOMM*%
%LPD*%
G01*
G04 APERTURE LIST*
%ADD10C,0.150000*%
%ADD11C,0.120000*%
%ADD12C,0.254000*%
%ADD13C,0.127000*%
G04 APERTURE END LIST*
D10*
X158029819Y-121252142D02*
X157553628Y-120918809D01*
X158029819Y-120680714D02*
X157029819Y-120680714D01*
X157029819Y-120680714D02*
X157029819Y-121061666D01*
X157029819Y-121061666D02*
X157077438Y-121156904D01*
X157077438Y-121156904D02*
X157125057Y-121204523D01*
X157125057Y-121204523D02*
X157220295Y-121252142D01*
X157220295Y-121252142D02*
X157363152Y-121252142D01*
X157363152Y-121252142D02*
X157458390Y-121204523D01*
X157458390Y-121204523D02*
X157506009Y-121156904D01*
X157506009Y-121156904D02*
X157553628Y-121061666D01*
X157553628Y-121061666D02*
X157553628Y-120680714D01*
X157458390Y-121823571D02*
X157410771Y-121728333D01*
X157410771Y-121728333D02*
X157363152Y-121680714D01*
X157363152Y-121680714D02*
X157267914Y-121633095D01*
X157267914Y-121633095D02*
X157220295Y-121633095D01*
X157220295Y-121633095D02*
X157125057Y-121680714D01*
X157125057Y-121680714D02*
X157077438Y-121728333D01*
X157077438Y-121728333D02*
X157029819Y-121823571D01*
X157029819Y-121823571D02*
X157029819Y-122014047D01*
X157029819Y-122014047D02*
X157077438Y-122109285D01*
X157077438Y-122109285D02*
X157125057Y-122156904D01*
X157125057Y-122156904D02*
X157220295Y-122204523D01*
X157220295Y-122204523D02*
X157267914Y-122204523D01*
X157267914Y-122204523D02*
X157363152Y-122156904D01*
X157363152Y-122156904D02*
X157410771Y-122109285D01*
X157410771Y-122109285D02*
X157458390Y-122014047D01*
X157458390Y-122014047D02*
X157458390Y-121823571D01*
X157458390Y-121823571D02*
X157506009Y-121728333D01*
X157506009Y-121728333D02*
X157553628Y-121680714D01*
X157553628Y-121680714D02*
X157648866Y-121633095D01*
X157648866Y-121633095D02*
X157839342Y-121633095D01*
X157839342Y-121633095D02*
X157934580Y-121680714D01*
X157934580Y-121680714D02*
X157982200Y-121728333D01*
X157982200Y-121728333D02*
X158029819Y-121823571D01*
X158029819Y-121823571D02*
X158029819Y-122014047D01*
X158029819Y-122014047D02*
X157982200Y-122109285D01*
X157982200Y-122109285D02*
X157934580Y-122156904D01*
X157934580Y-122156904D02*
X157839342Y-122204523D01*
X157839342Y-122204523D02*
X157648866Y-122204523D01*
X157648866Y-122204523D02*
X157553628Y-122156904D01*
X157553628Y-122156904D02*
X157506009Y-122109285D01*
X157506009Y-122109285D02*
X157458390Y-122014047D01*
X157029819Y-123109285D02*
X157029819Y-122633095D01*
X157029819Y-122633095D02*
X157506009Y-122585476D01*
X157506009Y-122585476D02*
X157458390Y-122633095D01*
X157458390Y-122633095D02*
X157410771Y-122728333D01*
X157410771Y-122728333D02*
X157410771Y-122966428D01*
X157410771Y-122966428D02*
X157458390Y-123061666D01*
X157458390Y-123061666D02*
X157506009Y-123109285D01*
X157506009Y-123109285D02*
X157601247Y-123156904D01*
X157601247Y-123156904D02*
X157839342Y-123156904D01*
X157839342Y-123156904D02*
X157934580Y-123109285D01*
X157934580Y-123109285D02*
X157982200Y-123061666D01*
X157982200Y-123061666D02*
X158029819Y-122966428D01*
X158029819Y-122966428D02*
X158029819Y-122728333D01*
X158029819Y-122728333D02*
X157982200Y-122633095D01*
X157982200Y-122633095D02*
X157934580Y-122585476D01*
X175929819Y-120842142D02*
X175453628Y-120508809D01*
X175929819Y-120270714D02*
X174929819Y-120270714D01*
X174929819Y-120270714D02*
X174929819Y-120651666D01*
X174929819Y-120651666D02*
X174977438Y-120746904D01*
X174977438Y-120746904D02*
X175025057Y-120794523D01*
X175025057Y-120794523D02*
X175120295Y-120842142D01*
X175120295Y-120842142D02*
X175263152Y-120842142D01*
X175263152Y-120842142D02*
X175358390Y-120794523D01*
X175358390Y-120794523D02*
X175406009Y-120746904D01*
X175406009Y-120746904D02*
X175453628Y-120651666D01*
X175453628Y-120651666D02*
X175453628Y-120270714D01*
X175358390Y-121413571D02*
X175310771Y-121318333D01*
X175310771Y-121318333D02*
X175263152Y-121270714D01*
X175263152Y-121270714D02*
X175167914Y-121223095D01*
X175167914Y-121223095D02*
X175120295Y-121223095D01*
X175120295Y-121223095D02*
X175025057Y-121270714D01*
X175025057Y-121270714D02*
X174977438Y-121318333D01*
X174977438Y-121318333D02*
X174929819Y-121413571D01*
X174929819Y-121413571D02*
X174929819Y-121604047D01*
X174929819Y-121604047D02*
X174977438Y-121699285D01*
X174977438Y-121699285D02*
X175025057Y-121746904D01*
X175025057Y-121746904D02*
X175120295Y-121794523D01*
X175120295Y-121794523D02*
X175167914Y-121794523D01*
X175167914Y-121794523D02*
X175263152Y-121746904D01*
X175263152Y-121746904D02*
X175310771Y-121699285D01*
X175310771Y-121699285D02*
X175358390Y-121604047D01*
X175358390Y-121604047D02*
X175358390Y-121413571D01*
X175358390Y-121413571D02*
X175406009Y-121318333D01*
X175406009Y-121318333D02*
X175453628Y-121270714D01*
X175453628Y-121270714D02*
X175548866Y-121223095D01*
X175548866Y-121223095D02*
X175739342Y-121223095D01*
X175739342Y-121223095D02*
X175834580Y-121270714D01*
X175834580Y-121270714D02*
X175882200Y-121318333D01*
X175882200Y-121318333D02*
X175929819Y-121413571D01*
X175929819Y-121413571D02*
X175929819Y-121604047D01*
X175929819Y-121604047D02*
X175882200Y-121699285D01*
X175882200Y-121699285D02*
X175834580Y-121746904D01*
X175834580Y-121746904D02*
X175739342Y-121794523D01*
X175739342Y-121794523D02*
X175548866Y-121794523D01*
X175548866Y-121794523D02*
X175453628Y-121746904D01*
X175453628Y-121746904D02*
X175406009Y-121699285D01*
X175406009Y-121699285D02*
X175358390Y-121604047D01*
X175263152Y-122651666D02*
X175929819Y-122651666D01*
X174882200Y-122413571D02*
X175596485Y-122175476D01*
X175596485Y-122175476D02*
X175596485Y-122794523D01*
X199579819Y-81840845D02*
X200389342Y-81840845D01*
X200389342Y-81840845D02*
X200484580Y-81888464D01*
X200484580Y-81888464D02*
X200532200Y-81936083D01*
X200532200Y-81936083D02*
X200579819Y-82031321D01*
X200579819Y-82031321D02*
X200579819Y-82221797D01*
X200579819Y-82221797D02*
X200532200Y-82317035D01*
X200532200Y-82317035D02*
X200484580Y-82364654D01*
X200484580Y-82364654D02*
X200389342Y-82412273D01*
X200389342Y-82412273D02*
X199579819Y-82412273D01*
X199913152Y-83317035D02*
X200579819Y-83317035D01*
X199532200Y-83078940D02*
X200246485Y-82840845D01*
X200246485Y-82840845D02*
X200246485Y-83459892D01*
X130139819Y-69659155D02*
X130949342Y-69659155D01*
X130949342Y-69659155D02*
X131044580Y-69706774D01*
X131044580Y-69706774D02*
X131092200Y-69754393D01*
X131092200Y-69754393D02*
X131139819Y-69849631D01*
X131139819Y-69849631D02*
X131139819Y-70040107D01*
X131139819Y-70040107D02*
X131092200Y-70135345D01*
X131092200Y-70135345D02*
X131044580Y-70182964D01*
X131044580Y-70182964D02*
X130949342Y-70230583D01*
X130949342Y-70230583D02*
X130139819Y-70230583D01*
X131139819Y-71230583D02*
X131139819Y-70659155D01*
X131139819Y-70944869D02*
X130139819Y-70944869D01*
X130139819Y-70944869D02*
X130282676Y-70849631D01*
X130282676Y-70849631D02*
X130377914Y-70754393D01*
X130377914Y-70754393D02*
X130425533Y-70659155D01*
X130139819Y-71563917D02*
X130139819Y-72182964D01*
X130139819Y-72182964D02*
X130520771Y-71849631D01*
X130520771Y-71849631D02*
X130520771Y-71992488D01*
X130520771Y-71992488D02*
X130568390Y-72087726D01*
X130568390Y-72087726D02*
X130616009Y-72135345D01*
X130616009Y-72135345D02*
X130711247Y-72182964D01*
X130711247Y-72182964D02*
X130949342Y-72182964D01*
X130949342Y-72182964D02*
X131044580Y-72135345D01*
X131044580Y-72135345D02*
X131092200Y-72087726D01*
X131092200Y-72087726D02*
X131139819Y-71992488D01*
X131139819Y-71992488D02*
X131139819Y-71706774D01*
X131139819Y-71706774D02*
X131092200Y-71611536D01*
X131092200Y-71611536D02*
X131044580Y-71563917D01*
D11*
%TO.C,R85*%
X156025000Y-122048641D02*
X156025000Y-121741359D01*
X156785000Y-122048641D02*
X156785000Y-121741359D01*
%TO.C,R84*%
X173925000Y-121638641D02*
X173925000Y-121331359D01*
X174685000Y-121638641D02*
X174685000Y-121331359D01*
D12*
%TO.C,U4*%
X201855000Y-77565000D02*
X201855000Y-77771500D01*
X201855000Y-77565000D02*
X204545000Y-77565000D01*
X201855000Y-78868500D02*
X201855000Y-79041500D01*
X201855000Y-80138500D02*
X201855000Y-80311500D01*
X201855000Y-81408500D02*
X201855000Y-81581500D01*
X201855000Y-82678500D02*
X201855000Y-82851500D01*
X201855000Y-83948500D02*
X201855000Y-84121500D01*
X201855000Y-85218500D02*
X201855000Y-85391500D01*
X201855000Y-86488500D02*
X201855000Y-86661500D01*
X201855000Y-87758500D02*
X201855000Y-87965000D01*
X209355000Y-77565000D02*
X206621000Y-77565000D01*
X209355000Y-77565000D02*
X209355000Y-77771500D01*
X209355000Y-78868500D02*
X209355000Y-79041500D01*
X209355000Y-80138500D02*
X209355000Y-80311500D01*
X209355000Y-81408500D02*
X209355000Y-81581500D01*
X209355000Y-82678500D02*
X209355000Y-82851500D01*
X209355000Y-83948500D02*
X209355000Y-84121500D01*
X209355000Y-85218500D02*
X209355000Y-85391500D01*
X209355000Y-86488500D02*
X209355000Y-86661500D01*
X209355000Y-87758500D02*
X209355000Y-87965000D01*
X209355000Y-87965000D02*
X201855000Y-87965000D01*
X206621000Y-77565500D02*
G75*
G02*
X204545000Y-77565000I-1038000J0D01*
G01*
D13*
X210685000Y-77431000D02*
G75*
G02*
X210177000Y-77431000I-254000J0D01*
G01*
X210177000Y-77431000D02*
G75*
G02*
X210685000Y-77431000I254000J0D01*
G01*
D12*
%TO.C,U13*%
X120355000Y-65535000D02*
X127855000Y-65535000D01*
X120355000Y-65741500D02*
X120355000Y-65535000D01*
X120355000Y-67011500D02*
X120355000Y-66838500D01*
X120355000Y-68281500D02*
X120355000Y-68108500D01*
X120355000Y-69551500D02*
X120355000Y-69378500D01*
X120355000Y-70821500D02*
X120355000Y-70648500D01*
X120355000Y-72091500D02*
X120355000Y-71918500D01*
X120355000Y-73361500D02*
X120355000Y-73188500D01*
X120355000Y-74631500D02*
X120355000Y-74458500D01*
X120355000Y-75935000D02*
X120355000Y-75728500D01*
X120355000Y-75935000D02*
X123089000Y-75935000D01*
X127855000Y-65741500D02*
X127855000Y-65535000D01*
X127855000Y-67011500D02*
X127855000Y-66838500D01*
X127855000Y-68281500D02*
X127855000Y-68108500D01*
X127855000Y-69551500D02*
X127855000Y-69378500D01*
X127855000Y-70821500D02*
X127855000Y-70648500D01*
X127855000Y-72091500D02*
X127855000Y-71918500D01*
X127855000Y-73361500D02*
X127855000Y-73188500D01*
X127855000Y-74631500D02*
X127855000Y-74458500D01*
X127855000Y-75935000D02*
X125165000Y-75935000D01*
X127855000Y-75935000D02*
X127855000Y-75728500D01*
X123089000Y-75934500D02*
G75*
G02*
X125165000Y-75935000I1038000J0D01*
G01*
D13*
X119533000Y-76069000D02*
G75*
G02*
X119025000Y-76069000I-254000J0D01*
G01*
X119025000Y-76069000D02*
G75*
G02*
X119533000Y-76069000I254000J0D01*
G01*
%TD*%
M02*
