%TF.GenerationSoftware,KiCad,Pcbnew,9.0.0*%
%TF.CreationDate,2025-06-09T15:05:36+02:00*%
%TF.ProjectId,stm32-fpga-bootloader,73746d33-322d-4667-9067-612d626f6f74,rev?*%
%TF.SameCoordinates,Original*%
%TF.FileFunction,Copper,L4,Bot*%
%TF.FilePolarity,Positive*%
%FSLAX46Y46*%
G04 Gerber Fmt 4.6, Leading zero omitted, Abs format (unit mm)*
G04 Created by KiCad (PCBNEW 9.0.0) date 2025-06-09 15:05:36*
%MOMM*%
%LPD*%
G01*
G04 APERTURE LIST*
G04 Aperture macros list*
%AMRoundRect*
0 Rectangle with rounded corners*
0 $1 Rounding radius*
0 $2 $3 $4 $5 $6 $7 $8 $9 X,Y pos of 4 corners*
0 Add a 4 corners polygon primitive as box body*
4,1,4,$2,$3,$4,$5,$6,$7,$8,$9,$2,$3,0*
0 Add four circle primitives for the rounded corners*
1,1,$1+$1,$2,$3*
1,1,$1+$1,$4,$5*
1,1,$1+$1,$6,$7*
1,1,$1+$1,$8,$9*
0 Add four rect primitives between the rounded corners*
20,1,$1+$1,$2,$3,$4,$5,0*
20,1,$1+$1,$4,$5,$6,$7,0*
20,1,$1+$1,$6,$7,$8,$9,0*
20,1,$1+$1,$8,$9,$2,$3,0*%
%AMFreePoly0*
4,1,37,0.603843,0.796157,0.639018,0.796157,0.711114,0.766294,0.766294,0.711114,0.796157,0.639018,0.796157,0.603843,0.800000,0.600000,0.800000,-0.600000,0.796157,-0.603843,0.796157,-0.639018,0.766294,-0.711114,0.711114,-0.766294,0.639018,-0.796157,0.603843,-0.796157,0.600000,-0.800000,0.000000,-0.800000,0.000000,-0.796148,-0.078414,-0.796148,-0.232228,-0.765552,-0.377117,-0.705537,
-0.507515,-0.618408,-0.618408,-0.507515,-0.705537,-0.377117,-0.765552,-0.232228,-0.796148,-0.078414,-0.796148,0.078414,-0.765552,0.232228,-0.705537,0.377117,-0.618408,0.507515,-0.507515,0.618408,-0.377117,0.705537,-0.232228,0.765552,-0.078414,0.796148,0.000000,0.796148,0.000000,0.800000,0.600000,0.800000,0.603843,0.796157,0.603843,0.796157,$1*%
%AMFreePoly1*
4,1,37,0.000000,0.796148,0.078414,0.796148,0.232228,0.765552,0.377117,0.705537,0.507515,0.618408,0.618408,0.507515,0.705537,0.377117,0.765552,0.232228,0.796148,0.078414,0.796148,-0.078414,0.765552,-0.232228,0.705537,-0.377117,0.618408,-0.507515,0.507515,-0.618408,0.377117,-0.705537,0.232228,-0.765552,0.078414,-0.796148,0.000000,-0.796148,0.000000,-0.800000,-0.600000,-0.800000,
-0.603843,-0.796157,-0.639018,-0.796157,-0.711114,-0.766294,-0.766294,-0.711114,-0.796157,-0.639018,-0.796157,-0.603843,-0.800000,-0.600000,-0.800000,0.600000,-0.796157,0.603843,-0.796157,0.639018,-0.766294,0.711114,-0.711114,0.766294,-0.639018,0.796157,-0.603843,0.796157,-0.600000,0.800000,0.000000,0.800000,0.000000,0.796148,0.000000,0.796148,$1*%
G04 Aperture macros list end*
%TA.AperFunction,ComponentPad*%
%ADD10RoundRect,0.250001X0.949999X-0.949999X0.949999X0.949999X-0.949999X0.949999X-0.949999X-0.949999X0*%
%TD*%
%TA.AperFunction,ComponentPad*%
%ADD11C,2.400000*%
%TD*%
%TA.AperFunction,ComponentPad*%
%ADD12RoundRect,0.375000X0.375000X-0.375000X0.375000X0.375000X-0.375000X0.375000X-0.375000X-0.375000X0*%
%TD*%
%TA.AperFunction,ComponentPad*%
%ADD13C,1.500000*%
%TD*%
%TA.AperFunction,ComponentPad*%
%ADD14RoundRect,0.200000X0.600000X-0.600000X0.600000X0.600000X-0.600000X0.600000X-0.600000X-0.600000X0*%
%TD*%
%TA.AperFunction,ComponentPad*%
%ADD15C,1.600000*%
%TD*%
%TA.AperFunction,ComponentPad*%
%ADD16FreePoly0,90.000000*%
%TD*%
%TA.AperFunction,ComponentPad*%
%ADD17FreePoly1,90.000000*%
%TD*%
%TA.AperFunction,ComponentPad*%
%ADD18R,1.700000X1.700000*%
%TD*%
%TA.AperFunction,ComponentPad*%
%ADD19O,1.700000X1.700000*%
%TD*%
%TA.AperFunction,HeatsinkPad*%
%ADD20O,2.100000X1.000000*%
%TD*%
%TA.AperFunction,HeatsinkPad*%
%ADD21O,1.800000X1.000000*%
%TD*%
%TA.AperFunction,ComponentPad*%
%ADD22RoundRect,0.250000X0.550000X0.550000X-0.550000X0.550000X-0.550000X-0.550000X0.550000X-0.550000X0*%
%TD*%
%TA.AperFunction,SMDPad,CuDef*%
%ADD23RoundRect,0.135000X0.185000X-0.135000X0.185000X0.135000X-0.185000X0.135000X-0.185000X-0.135000X0*%
%TD*%
%TA.AperFunction,SMDPad,CuDef*%
%ADD24R,2.160000X0.635000*%
%TD*%
%TA.AperFunction,ViaPad*%
%ADD25C,0.450000*%
%TD*%
%TA.AperFunction,Conductor*%
%ADD26C,0.200000*%
%TD*%
G04 APERTURE END LIST*
D10*
%TO.P,J6,1,Pin_1*%
%TO.N,Net-(J6-Pin_1)*%
X208472500Y-73735000D03*
D11*
%TO.P,J6,2,Pin_2*%
%TO.N,GND*%
X208472500Y-70235000D03*
%TD*%
D12*
%TO.P,U12,1,L3*%
%TO.N,unconnected-(U12-L3-Pad1)*%
X120835000Y-89085000D03*
D13*
%TO.P,U12,2,D1*%
%TO.N,Net-(U12-D1)*%
X123375000Y-89085000D03*
%TO.P,U12,3,D*%
%TO.N,/displays/7SEG_D*%
X125915000Y-89085000D03*
%TO.P,U12,4,L2*%
%TO.N,unconnected-(U12-L2-Pad4)*%
X128455000Y-89085000D03*
%TO.P,U12,5,D2*%
%TO.N,Net-(U12-D2)*%
X130995000Y-89085000D03*
%TO.P,U12,6,LC_CA*%
%TO.N,unconnected-(U12-LC_CA-Pad6)*%
X133535000Y-89085000D03*
%TO.P,U12,7,LC_AN*%
%TO.N,unconnected-(U12-LC_AN-Pad7)*%
X136075000Y-89085000D03*
%TO.P,U12,8,D3*%
%TO.N,Net-(U12-D3)*%
X138615000Y-89085000D03*
%TO.P,U12,9,DP1_AN*%
%TO.N,unconnected-(U12-DP1_AN-Pad9)*%
X141155000Y-89085000D03*
%TO.P,U12,10,D4*%
%TO.N,Net-(U12-D4)*%
X143695000Y-89085000D03*
%TO.P,U12,11,E*%
%TO.N,/displays/7SEG_E*%
X146235000Y-89085000D03*
%TO.P,U12,12,DP2_AN*%
%TO.N,unconnected-(U12-DP2_AN-Pad12)*%
X148775000Y-89085000D03*
%TO.P,U12,13,UP_CA*%
%TO.N,unconnected-(U12-UP_CA-Pad13)*%
X148775000Y-78925000D03*
%TO.P,U12,14,DP2_CA*%
%TO.N,unconnected-(U12-DP2_CA-Pad14)*%
X146235000Y-78925000D03*
%TO.P,U12,15,UP_AN*%
%TO.N,unconnected-(U12-UP_AN-Pad15)*%
X143695000Y-78925000D03*
%TO.P,U12,16,DP1_CA*%
%TO.N,unconnected-(U12-DP1_CA-Pad16)*%
X141155000Y-78925000D03*
%TO.P,U12,17,A*%
%TO.N,/displays/7SEG_A*%
X138615000Y-78925000D03*
%TO.P,U12,18,F*%
%TO.N,/displays/7SEG_F*%
X136075000Y-78925000D03*
%TO.P,U12,19,B*%
%TO.N,/displays/7SEG_B*%
X133535000Y-78925000D03*
%TO.P,U12,20,C*%
%TO.N,/displays/7SEG_C*%
X130995000Y-78925000D03*
%TO.P,U12,21,D1_E_AN*%
%TO.N,/displays/7SEG_E*%
X128455000Y-78925000D03*
%TO.P,U12,22,G*%
%TO.N,/displays/7SEG_G*%
X125915000Y-78925000D03*
%TO.P,U12,23,L1*%
%TO.N,unconnected-(U12-L1-Pad23)*%
X123375000Y-78925000D03*
%TO.P,U12,24,L1_L2_L3_CA*%
%TO.N,unconnected-(U12-L1_L2_L3_CA-Pad24)*%
X120835000Y-78925000D03*
%TD*%
D14*
%TO.P,A2,1,GPIO0*%
%TO.N,/CPLD_B0_PT10A*%
X116495000Y-115715000D03*
D15*
%TO.P,A2,2,GPIO1*%
%TO.N,/CPLD_B1_PT10B*%
X119035000Y-115715000D03*
D16*
%TO.P,A2,3,GND*%
%TO.N,GND*%
X121575000Y-115715000D03*
D15*
%TO.P,A2,4,GPIO2*%
%TO.N,/CPLD_B2_PT9A*%
X124115000Y-115715000D03*
%TO.P,A2,5,GPIO3*%
%TO.N,/CPLD_B3_PT9B*%
X126655000Y-115715000D03*
%TO.P,A2,6,GPIO4*%
%TO.N,/CPLD_B4_PR9A*%
X129195000Y-115715000D03*
%TO.P,A2,7,GPIO5*%
%TO.N,/CPLD_B5_PR9B*%
X131735000Y-115715000D03*
D16*
%TO.P,A2,8,GND*%
%TO.N,GND*%
X134275000Y-115715000D03*
D15*
%TO.P,A2,9,GPIO6*%
%TO.N,/CPLD_B6_PR9C*%
X136815000Y-115715000D03*
%TO.P,A2,10,GPIO7*%
%TO.N,/CPLD_B7_PR9D*%
X139355000Y-115715000D03*
%TO.P,A2,11,GPIO8*%
%TO.N,unconnected-(A2-GPIO8-Pad11)*%
X141895000Y-115715000D03*
%TO.P,A2,12,GPIO9*%
%TO.N,unconnected-(A2-GPIO9-Pad12)*%
X144435000Y-115715000D03*
D16*
%TO.P,A2,13,GND*%
%TO.N,GND*%
X146975000Y-115715000D03*
D15*
%TO.P,A2,14,GPIO10*%
%TO.N,/CPLD_CLOCK*%
X149515000Y-115715000D03*
%TO.P,A2,15,GPIO11*%
%TO.N,unconnected-(A2-GPIO11-Pad15)*%
X152055000Y-115715000D03*
%TO.P,A2,16,GPIO12*%
%TO.N,unconnected-(A2-GPIO12-Pad16)*%
X154595000Y-115715000D03*
%TO.P,A2,17,GPIO13*%
%TO.N,unconnected-(A2-GPIO13-Pad17)*%
X157135000Y-115715000D03*
D16*
%TO.P,A2,18,GND*%
%TO.N,GND*%
X159675000Y-115715000D03*
D15*
%TO.P,A2,19,GPIO14*%
%TO.N,unconnected-(A2-GPIO14-Pad19)*%
X162215000Y-115715000D03*
%TO.P,A2,20,GPIO15*%
%TO.N,unconnected-(A2-GPIO15-Pad20)*%
X164755000Y-115715000D03*
%TO.P,A2,21,GPIO16*%
%TO.N,/CPLD_MISO*%
X164755000Y-97935000D03*
%TO.P,A2,22,GPIO17*%
%TO.N,/CPLD_SPI_CS*%
X162215000Y-97935000D03*
D17*
%TO.P,A2,23,GND*%
%TO.N,GND*%
X159675000Y-97935000D03*
D15*
%TO.P,A2,24,GPIO18*%
%TO.N,/CPLDK_SCK*%
X157135000Y-97935000D03*
%TO.P,A2,25,GPIO19*%
%TO.N,/CPLD_MOSI*%
X154595000Y-97935000D03*
%TO.P,A2,26,GPIO20*%
%TO.N,/CPLD_SDA*%
X152055000Y-97935000D03*
%TO.P,A2,27,GPIO21*%
%TO.N,/CPLD_SCL*%
X149515000Y-97935000D03*
D17*
%TO.P,A2,28,GND*%
%TO.N,GND*%
X146975000Y-97935000D03*
D15*
%TO.P,A2,29,GPIO22*%
%TO.N,/CPLD_SPI_MCS*%
X144435000Y-97935000D03*
%TO.P,A2,30,RUN*%
%TO.N,unconnected-(A2-RUN-Pad30)*%
X141895000Y-97935000D03*
%TO.P,A2,31,GPIO26_ADC0*%
%TO.N,unconnected-(A2-GPIO26_ADC0-Pad31)*%
X139355000Y-97935000D03*
%TO.P,A2,32,GPIO27_ADC1*%
%TO.N,unconnected-(A2-GPIO27_ADC1-Pad32)*%
X136815000Y-97935000D03*
D17*
%TO.P,A2,33,AGND*%
%TO.N,unconnected-(A2-AGND-Pad33)*%
X134275000Y-97935000D03*
D15*
%TO.P,A2,34,GPIO28_ADC2*%
%TO.N,unconnected-(A2-GPIO28_ADC2-Pad34)*%
X131735000Y-97935000D03*
%TO.P,A2,35,ADC_VREF*%
%TO.N,unconnected-(A2-ADC_VREF-Pad35)*%
X129195000Y-97935000D03*
%TO.P,A2,36,3V3*%
%TO.N,unconnected-(A2-3V3-Pad36)*%
X126655000Y-97935000D03*
%TO.P,A2,37,3V3_EN*%
%TO.N,unconnected-(A2-3V3_EN-Pad37)*%
X124115000Y-97935000D03*
D17*
%TO.P,A2,38,GND*%
%TO.N,GND*%
X121575000Y-97935000D03*
D15*
%TO.P,A2,39,VSYS*%
%TO.N,unconnected-(A2-VSYS-Pad39)*%
X119035000Y-97935000D03*
%TO.P,A2,40,VBUS*%
%TO.N,VBUS2*%
X116495000Y-97935000D03*
%TD*%
D14*
%TO.P,A1,1,GPIO0*%
%TO.N,/RPI_ICE0*%
X116925000Y-61165000D03*
D15*
%TO.P,A1,2,GPIO1*%
%TO.N,/RPI_ICE1*%
X119465000Y-61165000D03*
D16*
%TO.P,A1,3,GND*%
%TO.N,GND*%
X122005000Y-61165000D03*
D15*
%TO.P,A1,4,GPIO2*%
%TO.N,/RPI_ICE2*%
X124545000Y-61165000D03*
%TO.P,A1,5,GPIO3*%
%TO.N,/RPI_ICE3*%
X127085000Y-61165000D03*
%TO.P,A1,6,GPIO4*%
%TO.N,/RPI_ICE4*%
X129625000Y-61165000D03*
%TO.P,A1,7,GPIO5*%
%TO.N,/RPI_ICE5*%
X132165000Y-61165000D03*
D16*
%TO.P,A1,8,GND*%
%TO.N,GND*%
X134705000Y-61165000D03*
D15*
%TO.P,A1,9,GPIO6*%
%TO.N,/RPI_ICE6*%
X137245000Y-61165000D03*
%TO.P,A1,10,GPIO7*%
%TO.N,/RPI_ICE7*%
X139785000Y-61165000D03*
%TO.P,A1,11,GPIO8*%
%TO.N,/IOB_23b*%
X142325000Y-61165000D03*
%TO.P,A1,12,GPIO9*%
%TO.N,/IOT_43a*%
X144865000Y-61165000D03*
D16*
%TO.P,A1,13,GND*%
%TO.N,GND*%
X147405000Y-61165000D03*
D15*
%TO.P,A1,14,GPIO10*%
%TO.N,Net-(A1-GPIO10)*%
X149945000Y-61165000D03*
%TO.P,A1,15,GPIO11*%
%TO.N,/ICE_SPI_MOSI*%
X152485000Y-61165000D03*
%TO.P,A1,16,GPIO12*%
%TO.N,/ICE_SPI_MISO*%
X155025000Y-61165000D03*
%TO.P,A1,17,GPIO13*%
%TO.N,/ICE_SPI_SS*%
X157565000Y-61165000D03*
D16*
%TO.P,A1,18,GND*%
%TO.N,GND*%
X160105000Y-61165000D03*
D15*
%TO.P,A1,19,GPIO14*%
%TO.N,/ICE_SPI_SCK*%
X162645000Y-61165000D03*
%TO.P,A1,20,GPIO15*%
%TO.N,/ICE_nRST*%
X165185000Y-61165000D03*
%TO.P,A1,21,GPIO16*%
%TO.N,/GPIO16_SPI0_RX*%
X165185000Y-43385000D03*
%TO.P,A1,22,GPIO17*%
%TO.N,/GPIO17_SPI0_CSn*%
X162645000Y-43385000D03*
D17*
%TO.P,A1,23,GND*%
%TO.N,GND*%
X160105000Y-43385000D03*
D15*
%TO.P,A1,24,GPIO18*%
%TO.N,/GPIO18_SPI0_SCK*%
X157565000Y-43385000D03*
%TO.P,A1,25,GPIO19*%
%TO.N,/GPIO19_SPI0_TX*%
X155025000Y-43385000D03*
%TO.P,A1,26,GPIO20*%
%TO.N,/GPIO20_I2C0_SDA*%
X152485000Y-43385000D03*
%TO.P,A1,27,GPIO21*%
%TO.N,/GPIO21_I2C0_SCL*%
X149945000Y-43385000D03*
D17*
%TO.P,A1,28,GND*%
%TO.N,GND*%
X147405000Y-43385000D03*
D15*
%TO.P,A1,29,GPIO22*%
%TO.N,/ICE_CDONE*%
X144865000Y-43385000D03*
%TO.P,A1,30,RUN*%
%TO.N,Net-(A1-RUN)*%
X142325000Y-43385000D03*
%TO.P,A1,31,GPIO26_ADC0*%
%TO.N,/GPIO26_ADC0*%
X139785000Y-43385000D03*
%TO.P,A1,32,GPIO27_ADC1*%
%TO.N,/GPIO27_ADC1*%
X137245000Y-43385000D03*
D17*
%TO.P,A1,33,AGND*%
%TO.N,unconnected-(A1-AGND-Pad33)*%
X134705000Y-43385000D03*
D15*
%TO.P,A1,34,GPIO28_ADC2*%
%TO.N,/LED1*%
X132165000Y-43385000D03*
%TO.P,A1,35,ADC_VREF*%
%TO.N,unconnected-(A1-ADC_VREF-Pad35)*%
X129625000Y-43385000D03*
%TO.P,A1,36,3V3*%
%TO.N,unconnected-(A1-3V3-Pad36)*%
X127085000Y-43385000D03*
%TO.P,A1,37,3V3_EN*%
%TO.N,unconnected-(A1-3V3_EN-Pad37)*%
X124545000Y-43385000D03*
D17*
%TO.P,A1,38,GND*%
%TO.N,GND*%
X122005000Y-43385000D03*
D15*
%TO.P,A1,39,VSYS*%
%TO.N,unconnected-(A1-VSYS-Pad39)*%
X119465000Y-43385000D03*
%TO.P,A1,40,VBUS*%
%TO.N,VBUS1*%
X116925000Y-43385000D03*
%TD*%
D18*
%TO.P,J12,1,Pin_1*%
%TO.N,/lcmxo2-cpld-block/PL8A*%
X136345000Y-125145000D03*
D19*
%TO.P,J12,2,Pin_2*%
%TO.N,/lcmxo2-cpld-block/PL8B*%
X136345000Y-127685000D03*
%TO.P,J12,3,Pin_3*%
%TO.N,/lcmxo2-cpld-block/PL5D*%
X138885000Y-125145000D03*
%TO.P,J12,4,Pin_4*%
%TO.N,/lcmxo2-cpld-block/PL8D*%
X138885000Y-127685000D03*
%TO.P,J12,5,Pin_5*%
%TO.N,/lcmxo2-cpld-block/PL5C*%
X141425000Y-125145000D03*
%TO.P,J12,6,Pin_6*%
%TO.N,/lcmxo2-cpld-block/PL8C*%
X141425000Y-127685000D03*
%TO.P,J12,7,Pin_7*%
%TO.N,/lcmxo2-cpld-block/PL9B{slash}PCLKC3_0*%
X143965000Y-125145000D03*
%TO.P,J12,8,Pin_8*%
%TO.N,/lcmxo2-cpld-block/PL9A{slash}PCLKT3_0*%
X143965000Y-127685000D03*
%TO.P,J12,9,Pin_9*%
%TO.N,GND*%
X146505000Y-125145000D03*
%TO.P,J12,10,Pin_10*%
X146505000Y-127685000D03*
%TO.P,J12,11,Pin_11*%
%TO.N,+3.3V*%
X149045000Y-125145000D03*
%TO.P,J12,12,Pin_12*%
X149045000Y-127685000D03*
%TD*%
D20*
%TO.P,J1,S1,SHIELD*%
%TO.N,GND*%
X119382500Y-101565000D03*
D21*
X115182500Y-101565000D03*
D20*
X119382500Y-110205000D03*
D21*
X115182500Y-110205000D03*
%TD*%
D20*
%TO.P,J8,S1,SHIELD*%
%TO.N,GND*%
X119195000Y-48365000D03*
D21*
X114995000Y-48365000D03*
D20*
X119195000Y-57005000D03*
D21*
X114995000Y-57005000D03*
%TD*%
D18*
%TO.P,JP3,1,A*%
%TO.N,/IOT_39a*%
X157105000Y-68105000D03*
D19*
%TO.P,JP3,2,C*%
%TO.N,/MATRIX_SPI_MOSI*%
X157105000Y-70645000D03*
%TO.P,JP3,3,B*%
%TO.N,/PR8D*%
X157105000Y-73185000D03*
%TD*%
D18*
%TO.P,J1003,1,Pin_1*%
%TO.N,GND*%
X136165000Y-120685000D03*
D19*
%TO.P,J1003,2,Pin_2*%
%TO.N,/jtag-prog/DBG_RX*%
X138705000Y-120685000D03*
%TO.P,J1003,3,Pin_3*%
%TO.N,/jtag-prog/DBG_TX*%
X141245000Y-120685000D03*
%TD*%
D18*
%TO.P,JP2,1,A*%
%TO.N,/IOT_38b*%
X153405000Y-68105000D03*
D19*
%TO.P,JP2,2,C*%
%TO.N,/ENCODER_A*%
X153405000Y-70645000D03*
%TO.P,JP2,3,B*%
%TO.N,/PB15A*%
X153405000Y-73185000D03*
%TD*%
D18*
%TO.P,J13,1,3V3*%
%TO.N,Net-(J13-3V3-Pad1)*%
X153805000Y-127602500D03*
D19*
%TO.P,J13,2,5V*%
%TO.N,Net-(J13-5V-Pad2)*%
X153805000Y-125062500D03*
%TO.P,J13,3,SDA/GPIO2*%
%TO.N,/CPLD_SDA*%
X156345000Y-127602500D03*
%TO.P,J13,4,5V*%
%TO.N,Net-(J13-5V-Pad2)*%
X156345000Y-125062500D03*
%TO.P,J13,5,SCL/GPIO3*%
%TO.N,/CPLD_SCL*%
X158885000Y-127602500D03*
%TO.P,J13,6,GND*%
%TO.N,GND*%
X158885000Y-125062500D03*
%TO.P,J13,7,GCLK0/GPIO4*%
%TO.N,/lcmxo2-cpld-block/PT15B*%
X161425000Y-127602500D03*
%TO.P,J13,8,GPIO14/TXD*%
%TO.N,/lcmxo2-cpld-block/PB6A*%
X161425000Y-125062500D03*
%TO.P,J13,9,GND*%
%TO.N,GND*%
X163965000Y-127602500D03*
%TO.P,J13,10,GPIO15/RXD*%
%TO.N,/lcmxo2-cpld-block/PB6B*%
X163965000Y-125062500D03*
%TO.P,J13,11,GPIO17*%
%TO.N,/lcmxo2-cpld-block/PR5D{slash}PCLKC1_0*%
X166505000Y-127602500D03*
%TO.P,J13,12,GPIO18/PWM0*%
%TO.N,/lcmxo2-cpld-block/PR5C{slash}PCLKT1_0*%
X166505000Y-125062500D03*
%TO.P,J13,13,GPIO27*%
%TO.N,/lcmxo2-cpld-block/PR2A*%
X169045000Y-127602500D03*
%TO.P,J13,14,GND*%
%TO.N,GND*%
X169045000Y-125062500D03*
%TO.P,J13,15,GPIO22*%
%TO.N,/lcmxo2-cpld-block/PR4B*%
X171585000Y-127602500D03*
%TO.P,J13,16,GPIO23*%
%TO.N,/lcmxo2-cpld-block/PR4A*%
X171585000Y-125062500D03*
%TO.P,J13,17,3V3*%
%TO.N,Net-(J13-3V3-Pad1)*%
X174125000Y-127602500D03*
%TO.P,J13,18,GPIO24*%
%TO.N,/lcmxo2-cpld-block/PR3B*%
X174125000Y-125062500D03*
%TO.P,J13,19,MOSI0/GPIO10*%
%TO.N,/CPLD_MOSI*%
X176665000Y-127602500D03*
%TO.P,J13,20,GND*%
%TO.N,GND*%
X176665000Y-125062500D03*
%TO.P,J13,21,MISO0/GPIO9*%
%TO.N,/CPLD_MISO*%
X179205000Y-127602500D03*
%TO.P,J13,22,GPIO25*%
%TO.N,/lcmxo2-cpld-block/PR3A*%
X179205000Y-125062500D03*
%TO.P,J13,23,SCLK0/GPIO11*%
%TO.N,/CPLDK_SCK*%
X181745000Y-127602500D03*
%TO.P,J13,24,~{CE0}/GPIO8*%
%TO.N,/CPLD_SPI_CS*%
X181745000Y-125062500D03*
%TO.P,J13,25,GND*%
%TO.N,GND*%
X184285000Y-127602500D03*
%TO.P,J13,26,~{CE1}/GPIO7*%
%TO.N,/CPLD_SPI_MCS*%
X184285000Y-125062500D03*
%TO.P,J13,27,ID_SD/GPIO0*%
%TO.N,/lcmxo2-cpld-block/PB4D*%
X186825000Y-127602500D03*
%TO.P,J13,28,ID_SC/GPIO1*%
%TO.N,/lcmxo2-cpld-block/PT16C*%
X186825000Y-125062500D03*
%TO.P,J13,29,GCLK1/GPIO5*%
%TO.N,/lcmxo2-cpld-block/PT12A{slash}PCLKT0_1*%
X189365000Y-127602500D03*
%TO.P,J13,30,GND*%
%TO.N,GND*%
X189365000Y-125062500D03*
%TO.P,J13,31,GCLK2/GPIO6*%
%TO.N,/lcmxo2-cpld-block/PT12B{slash}PCLKC0_1*%
X191905000Y-127602500D03*
%TO.P,J13,32,PWM0/GPIO12*%
%TO.N,/lcmxo2-cpld-block/PT15A*%
X191905000Y-125062500D03*
%TO.P,J13,33,PWM1/GPIO13*%
%TO.N,/lcmxo2-cpld-block/PL3B{slash}PCLKC3_2*%
X194445000Y-127602500D03*
%TO.P,J13,34,GND*%
%TO.N,GND*%
X194445000Y-125062500D03*
%TO.P,J13,35,GPIO19/MISO1*%
%TO.N,/lcmxo2-cpld-block/PR5A*%
X196985000Y-127602500D03*
%TO.P,J13,36,GPIO16*%
%TO.N,/lcmxo2-cpld-block/PR5B*%
X196985000Y-125062500D03*
%TO.P,J13,37,GPIO26*%
%TO.N,/lcmxo2-cpld-block/PR2B*%
X199525000Y-127602500D03*
%TO.P,J13,38,GPIO20/MOSI1*%
%TO.N,/lcmxo2-cpld-block/PR4D*%
X199525000Y-125062500D03*
%TO.P,J13,39,GND*%
%TO.N,GND*%
X202065000Y-127602500D03*
%TO.P,J13,40,GPIO21/SCLK1*%
%TO.N,/lcmxo2-cpld-block/PR4C*%
X202065000Y-125062500D03*
%TD*%
D18*
%TO.P,JP6,1,A*%
%TO.N,/IOT_45a_G1*%
X164505000Y-68085000D03*
D19*
%TO.P,JP6,2,C*%
%TO.N,/ENCODER_BTN*%
X164505000Y-70625000D03*
%TO.P,JP6,3,B*%
%TO.N,/PB11B{slash}PCLKC2_1*%
X164505000Y-73165000D03*
%TD*%
D18*
%TO.P,J10,1,Pin_1*%
%TO.N,Net-(J10-Pin_1)*%
X173605000Y-35885000D03*
D19*
%TO.P,J10,2,Pin_2*%
%TO.N,Net-(J10-Pin_2)*%
X176145000Y-35885000D03*
%TO.P,J10,3,Pin_3*%
%TO.N,Net-(J10-Pin_3)*%
X178685000Y-35885000D03*
%TO.P,J10,4,Pin_4*%
%TO.N,Net-(J10-Pin_4)*%
X181225000Y-35885000D03*
%TO.P,J10,5,Pin_5*%
%TO.N,Net-(J10-Pin_5)*%
X183765000Y-35885000D03*
%TO.P,J10,6,Pin_6*%
%TO.N,Net-(J10-Pin_6)*%
X186305000Y-35885000D03*
%TO.P,J10,7,Pin_7*%
%TO.N,Net-(J10-Pin_7)*%
X188845000Y-35885000D03*
%TO.P,J10,8,Pin_8*%
%TO.N,Net-(J10-Pin_8)*%
X191385000Y-35885000D03*
%TD*%
D18*
%TO.P,JP4,1,A*%
%TO.N,/IOT_36b*%
X160805000Y-68060000D03*
D19*
%TO.P,JP4,2,C*%
%TO.N,/ENCODER_B*%
X160805000Y-70600000D03*
%TO.P,JP4,3,B*%
%TO.N,/PB15B*%
X160805000Y-73140000D03*
%TD*%
D18*
%TO.P,J1001,1,Pin_1*%
%TO.N,Net-(J1001-Pin_1)*%
X132530000Y-67085000D03*
D19*
%TO.P,J1001,2,Pin_2*%
%TO.N,Net-(J1001-Pin_2)*%
X132530000Y-69625000D03*
%TO.P,J1001,3,Pin_3*%
%TO.N,Net-(J1001-Pin_3)*%
X132530000Y-72165000D03*
%TO.P,J1001,4,Pin_4*%
%TO.N,Net-(J1001-Pin_4)*%
X132530000Y-74705000D03*
%TD*%
D18*
%TO.P,J5,1,Pin_1*%
%TO.N,/IOB_0a*%
X147030000Y-34810000D03*
D19*
%TO.P,J5,2,Pin_2*%
%TO.N,/IOB_5b*%
X147030000Y-32270000D03*
%TO.P,J5,3,Pin_3*%
%TO.N,/IOB_2a*%
X144490000Y-34810000D03*
%TO.P,J5,4,Pin_4*%
%TO.N,/IOB_6a*%
X144490000Y-32270000D03*
%TO.P,J5,5,Pin_5*%
%TO.N,/IOB_3b_G6*%
X141950000Y-34810000D03*
%TO.P,J5,6,Pin_6*%
%TO.N,/IOB_8a*%
X141950000Y-32270000D03*
%TO.P,J5,7,Pin_7*%
%TO.N,/IOB_4a*%
X139410000Y-34810000D03*
%TO.P,J5,8,Pin_8*%
%TO.N,/IOT_51a*%
X139410000Y-32270000D03*
%TO.P,J5,9,Pin_9*%
%TO.N,GND*%
X136870000Y-34810000D03*
%TO.P,J5,10,Pin_10*%
X136870000Y-32270000D03*
%TO.P,J5,11,Pin_11*%
%TO.N,+3.3V*%
X134330000Y-34810000D03*
%TO.P,J5,12,Pin_12*%
X134330000Y-32270000D03*
%TD*%
D22*
%TO.P,U8,1,DIN*%
%TO.N,Net-(Q3-D)*%
X203340000Y-63255000D03*
D15*
%TO.P,U8,2,DIG_0*%
%TO.N,Net-(J11-Pin_1)*%
X203340000Y-60715000D03*
%TO.P,U8,3,DIG_4*%
%TO.N,Net-(J11-Pin_5)*%
X203340000Y-58175000D03*
%TO.P,U8,4,GND*%
%TO.N,GND*%
X203340000Y-55635000D03*
%TO.P,U8,5,DIG_6*%
%TO.N,Net-(J11-Pin_7)*%
X203340000Y-53095000D03*
%TO.P,U8,6,DIG_2*%
%TO.N,Net-(J11-Pin_3)*%
X203340000Y-50555000D03*
%TO.P,U8,7,DIG_3*%
%TO.N,Net-(J11-Pin_4)*%
X203340000Y-48015000D03*
%TO.P,U8,8,DIG_7*%
%TO.N,Net-(J11-Pin_8)*%
X203340000Y-45475000D03*
%TO.P,U8,9,GND*%
%TO.N,GND*%
X203340000Y-42935000D03*
%TO.P,U8,10,DIG_5*%
%TO.N,Net-(J11-Pin_6)*%
X203340000Y-40395000D03*
%TO.P,U8,11,DIG_1*%
%TO.N,Net-(J11-Pin_2)*%
X203340000Y-37855000D03*
%TO.P,U8,12,~{CS}*%
%TO.N,Net-(Q1-D)*%
X203340000Y-35315000D03*
%TO.P,U8,13,CLK*%
%TO.N,Net-(Q2-D)*%
X195720000Y-35315000D03*
%TO.P,U8,14,SEG_A*%
%TO.N,Net-(J10-Pin_1)*%
X195720000Y-37855000D03*
%TO.P,U8,15,SEG_F*%
%TO.N,Net-(J10-Pin_6)*%
X195720000Y-40395000D03*
%TO.P,U8,16,SEG_B*%
%TO.N,Net-(J10-Pin_2)*%
X195720000Y-42935000D03*
%TO.P,U8,17,SEG_G*%
%TO.N,Net-(J10-Pin_7)*%
X195720000Y-45475000D03*
%TO.P,U8,18,ISET*%
%TO.N,Net-(U8-ISET)*%
X195720000Y-48015000D03*
%TO.P,U8,19,V+*%
%TO.N,+5V*%
X195720000Y-50555000D03*
%TO.P,U8,20,SEG_C*%
%TO.N,Net-(J10-Pin_3)*%
X195720000Y-53095000D03*
%TO.P,U8,21,SEG_E*%
%TO.N,Net-(J10-Pin_5)*%
X195720000Y-55635000D03*
%TO.P,U8,22,SEG_DP*%
%TO.N,Net-(J10-Pin_8)*%
X195720000Y-58175000D03*
%TO.P,U8,23,SEG_D*%
%TO.N,Net-(J10-Pin_4)*%
X195720000Y-60715000D03*
%TO.P,U8,24,DOUT*%
%TO.N,unconnected-(U8-DOUT-Pad24)*%
X195720000Y-63255000D03*
%TD*%
D18*
%TO.P,JP5,1,A*%
%TO.N,/IOT_48b*%
X168205000Y-68085000D03*
D19*
%TO.P,JP5,2,C*%
%TO.N,/MATRIX_SPI_SCK*%
X168205000Y-70625000D03*
%TO.P,JP5,3,B*%
%TO.N,/PR10D*%
X168205000Y-73165000D03*
%TD*%
D18*
%TO.P,JP1,1,A*%
%TO.N,/IOT_44b*%
X149705000Y-68105000D03*
D19*
%TO.P,JP1,2,C*%
%TO.N,/MATRIX_SPI_nCS*%
X149705000Y-70645000D03*
%TO.P,JP1,3,B*%
%TO.N,/PR10C*%
X149705000Y-73185000D03*
%TD*%
D18*
%TO.P,J11,1,Pin_1*%
%TO.N,Net-(J11-Pin_1)*%
X173605000Y-63825000D03*
D19*
%TO.P,J11,2,Pin_2*%
%TO.N,Net-(J11-Pin_2)*%
X176145000Y-63825000D03*
%TO.P,J11,3,Pin_3*%
%TO.N,Net-(J11-Pin_3)*%
X178685000Y-63825000D03*
%TO.P,J11,4,Pin_4*%
%TO.N,Net-(J11-Pin_4)*%
X181225000Y-63825000D03*
%TO.P,J11,5,Pin_5*%
%TO.N,Net-(J11-Pin_5)*%
X183765000Y-63825000D03*
%TO.P,J11,6,Pin_6*%
%TO.N,Net-(J11-Pin_6)*%
X186305000Y-63825000D03*
%TO.P,J11,7,Pin_7*%
%TO.N,Net-(J11-Pin_7)*%
X188845000Y-63825000D03*
%TO.P,J11,8,Pin_8*%
%TO.N,Net-(J11-Pin_8)*%
X191385000Y-63825000D03*
%TD*%
D18*
%TO.P,J9,1,Pin_1*%
%TO.N,/displays/SHIFT_REG_DATA*%
X165405000Y-78865000D03*
D19*
%TO.P,J9,2,Pin_2*%
%TO.N,/displays/7SEG_D1*%
X162865000Y-78865000D03*
%TO.P,J9,3,Pin_3*%
%TO.N,/displays/SHIFT_REG_STCLK*%
X165405000Y-81405000D03*
%TO.P,J9,4,Pin_4*%
%TO.N,/displays/7SEG_D2*%
X162865000Y-81405000D03*
%TO.P,J9,5,Pin_5*%
%TO.N,/displays/SHIFT_REG_CLK*%
X165405000Y-83945000D03*
%TO.P,J9,6,Pin_6*%
%TO.N,/displays/7SEG_D3*%
X162865000Y-83945000D03*
%TO.P,J9,7,Pin_7*%
%TO.N,/displays/SHIFT_REG_nMCLR*%
X165405000Y-86485000D03*
%TO.P,J9,8,Pin_8*%
%TO.N,/displays/7SEG_D4*%
X162865000Y-86485000D03*
%TO.P,J9,9,Pin_9*%
%TO.N,/displays/SHIFT_REG_OE*%
X165405000Y-89025000D03*
%TO.P,J9,10,Pin_10*%
%TO.N,GND*%
X162865000Y-89025000D03*
%TO.P,J9,11,Pin_11*%
%TO.N,+3.3V*%
X165405000Y-91565000D03*
%TO.P,J9,12,Pin_12*%
X162865000Y-91565000D03*
%TD*%
D18*
%TO.P,J15,1,Pin_1*%
%TO.N,Net-(J15-Pin_1)*%
X115930000Y-69785000D03*
D19*
%TO.P,J15,2,Pin_2*%
%TO.N,GND*%
X115930000Y-72325000D03*
%TD*%
D18*
%TO.P,J3,1,Pin_1*%
%TO.N,/GPIO18_SPI0_SCK*%
X164725000Y-32145000D03*
D19*
%TO.P,J3,2,Pin_2*%
%TO.N,/GPIO19_SPI0_TX*%
X164725000Y-34685000D03*
%TO.P,J3,3,Pin_3*%
%TO.N,/GPIO16_SPI0_RX*%
X162185000Y-32145000D03*
%TO.P,J3,4,Pin_4*%
%TO.N,/GPIO17_SPI0_CSn*%
X162185000Y-34685000D03*
%TO.P,J3,5,Pin_5*%
%TO.N,/ICE_CLOCK*%
X159645000Y-32145000D03*
%TO.P,J3,6,Pin_6*%
%TO.N,GND*%
X159645000Y-34685000D03*
%TO.P,J3,7,Pin_7*%
%TO.N,/GPIO20_I2C0_SDA*%
X157105000Y-32145000D03*
%TO.P,J3,8,Pin_8*%
%TO.N,/GPIO21_I2C0_SCL*%
X157105000Y-34685000D03*
%TO.P,J3,9,Pin_9*%
%TO.N,/GPIO26_ADC0*%
X154565000Y-32145000D03*
%TO.P,J3,10,Pin_10*%
%TO.N,/GPIO27_ADC1*%
X154565000Y-34685000D03*
%TO.P,J3,11,Pin_11*%
%TO.N,unconnected-(J3-Pin_11-Pad11)*%
X152025000Y-32145000D03*
%TO.P,J3,12,Pin_12*%
%TO.N,+3.3V*%
X152025000Y-34685000D03*
%TD*%
D18*
%TO.P,J1002,1,Pin_1*%
%TO.N,/PT10C{slash}TDO*%
X176995000Y-88935000D03*
D19*
%TO.P,J1002,2,Pin_2*%
%TO.N,/TDI*%
X174455000Y-88935000D03*
%TO.P,J1002,3,Pin_3*%
%TO.N,/PT10D{slash}TDI*%
X176995000Y-91475000D03*
%TO.P,J1002,4,Pin_4*%
%TO.N,/TDO*%
X174455000Y-91475000D03*
%TO.P,J1002,5,Pin_5*%
%TO.N,/PT11C{slash}TCK*%
X176995000Y-94015000D03*
%TO.P,J1002,6,Pin_6*%
%TO.N,/TCK*%
X174455000Y-94015000D03*
%TO.P,J1002,7,Pin_7*%
%TO.N,/PT11D{slash}TMS*%
X176995000Y-96555000D03*
%TO.P,J1002,8,Pin_8*%
%TO.N,/TMS*%
X174455000Y-96555000D03*
%TO.P,J1002,9,Pin_9*%
%TO.N,GND*%
X176995000Y-99095000D03*
%TO.P,J1002,10,Pin_10*%
X174455000Y-99095000D03*
%TD*%
D18*
%TO.P,J1004,1,Pin_1*%
%TO.N,/IOT_50b*%
X173575000Y-32185000D03*
D19*
%TO.P,J1004,2,Pin_2*%
%TO.N,/IOB_13b*%
X176115000Y-32185000D03*
%TO.P,J1004,3,Pin_3*%
%TO.N,/IOT_37a*%
X178655000Y-32185000D03*
%TO.P,J1004,4,Pin_4*%
%TO.N,/IOB_20a*%
X181195000Y-32185000D03*
%TO.P,J1004,5,Pin_5*%
%TO.N,/IOB_22a*%
X183735000Y-32185000D03*
%TO.P,J1004,6,Pin_6*%
%TO.N,/IOB_23b*%
X186275000Y-32185000D03*
%TO.P,J1004,7,Pin_7*%
%TO.N,/IOT_43a*%
X188815000Y-32185000D03*
%TO.P,J1004,8,Pin_8*%
%TO.N,GND*%
X191355000Y-32185000D03*
%TD*%
D23*
%TO.P,R85,1*%
%TO.N,Net-(J13-5V-Pad2)*%
X156405000Y-122405000D03*
%TO.P,R85,2*%
%TO.N,+5V*%
X156405000Y-121385000D03*
%TD*%
%TO.P,R84,1*%
%TO.N,Net-(J13-3V3-Pad1)*%
X174305000Y-121995000D03*
%TO.P,R84,2*%
%TO.N,+3.3V*%
X174305000Y-120975000D03*
%TD*%
D24*
%TO.P,U4,1,VDD1*%
%TO.N,+3.3V*%
X210405000Y-78320000D03*
%TO.P,U4,2,VIN+*%
%TO.N,Net-(U4-VIN+)*%
X210405000Y-79590000D03*
%TO.P,U4,3,VIN-*%
%TO.N,Net-(U4-VIN-)*%
X210405000Y-80860000D03*
%TO.P,U4,4,GND1*%
%TO.N,GND*%
X210405000Y-82130000D03*
%TO.P,U4,5,NC*%
%TO.N,unconnected-(U4-NC-Pad5)*%
X210405000Y-83400000D03*
%TO.P,U4,6,NC*%
%TO.N,unconnected-(U4-NC-Pad6)*%
X210405000Y-84670000D03*
%TO.P,U4,7,VDD1*%
%TO.N,+3.3V*%
X210405000Y-85940000D03*
%TO.P,U4,8,GND1*%
%TO.N,GND*%
X210405000Y-87210000D03*
%TO.P,U4,9,GND2*%
X200805000Y-87210000D03*
%TO.P,U4,10,MDAT-*%
%TO.N,Net-(U4-MDAT-)*%
X200805000Y-85940000D03*
%TO.P,U4,11,MDAT+*%
%TO.N,Net-(U4-MDAT+)*%
X200805000Y-84670000D03*
%TO.P,U4,12,MCLKIN\u2212*%
%TO.N,Net-(U4-MCLKIN\u2212)*%
X200805000Y-83400000D03*
%TO.P,U4,13,MCLKIN+*%
%TO.N,Net-(U4-MCLKIN+)*%
X200805000Y-82130000D03*
%TO.P,U4,14,VDD2*%
%TO.N,+3.3V*%
X200805000Y-80860000D03*
%TO.P,U4,15,NC*%
%TO.N,unconnected-(U4-NC-Pad15)*%
X200805000Y-79590000D03*
%TO.P,U4,16,GND2*%
%TO.N,GND*%
X200805000Y-78320000D03*
%TD*%
%TO.P,U13,1,VDD1*%
%TO.N,+3.3V*%
X119305000Y-75180000D03*
%TO.P,U13,2,VIN+*%
%TO.N,Net-(U13-VIN+)*%
X119305000Y-73910000D03*
%TO.P,U13,3,VIN-*%
%TO.N,Net-(U13-VIN-)*%
X119305000Y-72640000D03*
%TO.P,U13,4,GND1*%
%TO.N,GND*%
X119305000Y-71370000D03*
%TO.P,U13,5,NC*%
%TO.N,unconnected-(U13-NC-Pad5)*%
X119305000Y-70100000D03*
%TO.P,U13,6,NC*%
%TO.N,unconnected-(U13-NC-Pad6)*%
X119305000Y-68830000D03*
%TO.P,U13,7,VDD1*%
%TO.N,+3.3V*%
X119305000Y-67560000D03*
%TO.P,U13,8,GND1*%
%TO.N,GND*%
X119305000Y-66290000D03*
%TO.P,U13,9,GND2*%
X128905000Y-66290000D03*
%TO.P,U13,10,MDAT-*%
%TO.N,Net-(U13-MDAT-)*%
X128905000Y-67560000D03*
%TO.P,U13,11,MDAT+*%
%TO.N,Net-(U13-MDAT+)*%
X128905000Y-68830000D03*
%TO.P,U13,12,MCLKIN\u2212*%
%TO.N,Net-(U13-MCLKIN\u2212)*%
X128905000Y-70100000D03*
%TO.P,U13,13,MCLKIN+*%
%TO.N,Net-(U13-MCLKIN+)*%
X128905000Y-71370000D03*
%TO.P,U13,14,VDD2*%
%TO.N,+3.3V*%
X128905000Y-72640000D03*
%TO.P,U13,15,NC*%
%TO.N,unconnected-(U13-NC-Pad15)*%
X128905000Y-73910000D03*
%TO.P,U13,16,GND2*%
%TO.N,GND*%
X128905000Y-75180000D03*
%TD*%
D25*
%TO.N,/RPI_ICE0*%
X125055000Y-52085000D03*
%TO.N,/IOB_8a*%
X135655000Y-33635000D03*
%TO.N,/GPIO27_ADC1*%
X139805000Y-37535000D03*
%TO.N,/ICE_CDONE*%
X125055000Y-40285000D03*
X133405000Y-40285000D03*
%TO.N,/IOB_3b_G6*%
X141973732Y-39558732D03*
%TO.N,Net-(A1-RUN)*%
X126730000Y-39460000D03*
X131555000Y-39485000D03*
%TO.N,/IOB_4a*%
X135115000Y-47435000D03*
%TO.N,/IOB_2a*%
X135605000Y-46635000D03*
%TO.N,/IOB_0a*%
X136165000Y-47003366D03*
%TO.N,/IOB_5b*%
X136705000Y-46585000D03*
%TO.N,/IOB_3b_G6*%
X137237090Y-46958341D03*
%TO.N,/RPI_ICE6*%
X137573620Y-48275690D03*
%TO.N,/IOT_51a*%
X138155000Y-47985000D03*
%TO.N,/IOT_50b*%
X141355000Y-48335000D03*
%TO.N,/IOT_45a_G1*%
X141355000Y-49035000D03*
%TO.N,/IOT_48b*%
X142405000Y-49681500D03*
%TO.N,/ICE_CLOCK*%
X142905000Y-50285000D03*
%TO.N,/IOT_44b*%
X142355000Y-50732500D03*
%TO.N,+3.3V*%
X143405000Y-51385000D03*
%TO.N,/IOT_43a*%
X142905887Y-51984634D03*
%TO.N,/RPI_ICE1*%
X142305000Y-52232500D03*
%TO.N,+3.3V*%
X143355000Y-52682500D03*
%TO.N,/RPI_ICE7*%
X143505000Y-53835000D03*
%TO.N,/IOT_38b*%
X143073125Y-54325309D03*
%TO.N,/IOT_39a*%
X142754098Y-54891634D03*
%TO.N,/IOT_36b*%
X142655492Y-55560000D03*
%TO.N,/IOT_37a*%
X142655000Y-58085000D03*
%TO.N,/ICE_SPI_MISO*%
X151755000Y-58235000D03*
%TO.N,/ICE_SPI_SS*%
X151905000Y-57335000D03*
%TO.N,/ICE_SPI_MOSI*%
X127405000Y-50385000D03*
%TO.N,/ICE_SPI_SCK*%
X126155000Y-49885000D03*
%TO.N,/ICE_SPI_SS*%
X123071250Y-56401250D03*
%TO.N,/ICE_SPI_MISO*%
X124855000Y-56935000D03*
%TO.N,/IOB_13b*%
X132705000Y-52200056D03*
%TO.N,/IOB_8a*%
X133173451Y-50922882D03*
%TO.N,/RPI_ICE0*%
X133281092Y-50281854D03*
%TO.N,/IOB_6a*%
X133455000Y-49635000D03*
%TO.N,/D-*%
X117769589Y-51057615D03*
%TO.N,/D+*%
X117168547Y-51658657D03*
%TO.N,/D-*%
X116204479Y-54234479D03*
%TO.N,/D+*%
X116805521Y-54835521D03*
%TO.N,/IOB_22a*%
X133605000Y-55282500D03*
%TO.N,/RPI_ICE3*%
X134705000Y-55835000D03*
%TO.N,/ICE_SPI_MISO*%
X131955000Y-57735000D03*
%TO.N,/ICE_SPI_SS*%
X132642869Y-57258983D03*
%TO.N,/ICE_SPI_SCK*%
X133157354Y-56646358D03*
%TO.N,/ICE_SPI_MOSI*%
X134046730Y-56793270D03*
%TO.N,/RPI_ICE2*%
X133355000Y-61935000D03*
X133405000Y-63185000D03*
%TO.N,/ICE_nRST*%
X132001232Y-53088768D03*
X132055000Y-50385000D03*
%TD*%
D26*
%TO.N,/IOT_37a*%
X145455000Y-46935000D02*
X145055000Y-47335000D01*
X145455000Y-46335000D02*
X145455000Y-46935000D01*
X156172050Y-46335000D02*
X145455000Y-46335000D01*
X158666000Y-43841050D02*
X156172050Y-46335000D01*
X158666000Y-41174000D02*
X158666000Y-43841050D01*
X161555000Y-38285000D02*
X158666000Y-41174000D01*
X162605000Y-39335000D02*
X161555000Y-38285000D01*
X164205000Y-39335000D02*
X162605000Y-39335000D01*
X169455000Y-34085000D02*
X164205000Y-39335000D01*
X176755000Y-34085000D02*
X169455000Y-34085000D01*
X178655000Y-32185000D02*
X176755000Y-34085000D01*
%TO.N,/IOB_13b*%
X174710000Y-33590000D02*
X176115000Y-32185000D01*
X174705000Y-33585000D02*
X174710000Y-33590000D01*
X168455000Y-33585000D02*
X174705000Y-33585000D01*
X164505000Y-37535000D02*
X168455000Y-33585000D01*
X160605000Y-37535000D02*
X164505000Y-37535000D01*
X156126000Y-42014000D02*
X160605000Y-37535000D01*
X154782050Y-45185000D02*
X156126000Y-43841050D01*
X156126000Y-43841050D02*
X156126000Y-42014000D01*
X142805000Y-48085000D02*
X145705000Y-45185000D01*
X145705000Y-45185000D02*
X154782050Y-45185000D01*
X142805000Y-48328877D02*
X142805000Y-48085000D01*
X138933821Y-52200056D02*
X142805000Y-48328877D01*
X132705000Y-52200056D02*
X138933821Y-52200056D01*
%TO.N,/IOT_50b*%
X156534000Y-30756000D02*
X172301000Y-30756000D01*
X155954000Y-31336000D02*
X156534000Y-30756000D01*
X155954000Y-32786000D02*
X155954000Y-31336000D01*
X155206000Y-33534000D02*
X155954000Y-32786000D01*
X150955000Y-33534000D02*
X155206000Y-33534000D01*
X150155000Y-34334000D02*
X150955000Y-33534000D01*
X172301000Y-30756000D02*
X173730000Y-32185000D01*
X150155000Y-36935000D02*
X150155000Y-34334000D01*
X148955000Y-38135000D02*
X150155000Y-36935000D01*
X143764000Y-39826000D02*
X145455000Y-38135000D01*
X143764000Y-45926000D02*
X143764000Y-39826000D01*
X145455000Y-38135000D02*
X148955000Y-38135000D01*
X141355000Y-48335000D02*
X143764000Y-45926000D01*
%TO.N,/GPIO26_ADC0*%
X154265000Y-32145000D02*
X154565000Y-32145000D01*
X152955000Y-30835000D02*
X154265000Y-32145000D01*
X150505000Y-30835000D02*
X152955000Y-30835000D01*
X149005000Y-36335000D02*
X149005000Y-32335000D01*
X145155000Y-37335000D02*
X148005000Y-37335000D01*
X140105000Y-40685000D02*
X141805000Y-40685000D01*
X139785000Y-41005000D02*
X140105000Y-40685000D01*
X141805000Y-40685000D02*
X145155000Y-37335000D01*
X148005000Y-37335000D02*
X149005000Y-36335000D01*
X149005000Y-32335000D02*
X150505000Y-30835000D01*
X139785000Y-43385000D02*
X139785000Y-41005000D01*
%TO.N,/ICE_CLOCK*%
X159055000Y-37285000D02*
X153805000Y-42535000D01*
X160796000Y-35544000D02*
X159055000Y-37285000D01*
X153805000Y-42535000D02*
X153505000Y-42535000D01*
X160796000Y-33296000D02*
X160796000Y-35544000D01*
X159645000Y-32145000D02*
X160796000Y-33296000D01*
%TO.N,/GPIO20_I2C0_SDA*%
X158256000Y-33296000D02*
X157105000Y-32145000D01*
X158256000Y-35884000D02*
X158256000Y-33296000D01*
X152485000Y-43385000D02*
X152485000Y-41655000D01*
X152485000Y-41655000D02*
X158256000Y-35884000D01*
%TO.N,/GPIO21_I2C0_SCL*%
X149945000Y-41845000D02*
X149945000Y-43385000D01*
X157105000Y-34685000D02*
X149945000Y-41845000D01*
%TO.N,/GPIO27_ADC1*%
X137245000Y-40095000D02*
X139805000Y-37535000D01*
X137245000Y-43385000D02*
X137245000Y-40095000D01*
%TO.N,/ICE_CDONE*%
X125055000Y-40285000D02*
X133405000Y-40285000D01*
%TO.N,/IOB_6a*%
X138259000Y-36831000D02*
X133599000Y-41491000D01*
X133599000Y-49491000D02*
X133455000Y-49635000D01*
X138259000Y-31681000D02*
X138259000Y-36831000D01*
X138905000Y-31035000D02*
X138259000Y-31681000D01*
X143255000Y-31035000D02*
X138905000Y-31035000D01*
X144490000Y-32270000D02*
X143255000Y-31035000D01*
X133599000Y-41491000D02*
X133599000Y-49491000D01*
%TO.N,/RPI_ICE0*%
X120905000Y-59585000D02*
X117455000Y-59585000D01*
X121205000Y-59285000D02*
X120905000Y-59585000D01*
X116925000Y-60115000D02*
X116925000Y-61165000D01*
X121205000Y-53435000D02*
X121205000Y-59285000D01*
X117455000Y-59585000D02*
X116925000Y-60115000D01*
X125005000Y-52035000D02*
X122605000Y-52035000D01*
X122605000Y-52035000D02*
X121205000Y-53435000D01*
X125055000Y-52085000D02*
X125005000Y-52035000D01*
%TO.N,/ICE_nRST*%
X132005000Y-50435000D02*
X132055000Y-50385000D01*
X132005000Y-52485000D02*
X132005000Y-50435000D01*
X132001232Y-52488768D02*
X132005000Y-52485000D01*
X132001232Y-53088768D02*
X132001232Y-52488768D01*
%TO.N,/IOB_8a*%
X132698877Y-41735000D02*
X135655000Y-38778877D01*
X131064000Y-42426000D02*
X131755000Y-41735000D01*
X131755000Y-41735000D02*
X132698877Y-41735000D01*
X131064000Y-44179050D02*
X131064000Y-42426000D01*
X132581000Y-45696050D02*
X131064000Y-44179050D01*
X135655000Y-38778877D02*
X135655000Y-33635000D01*
X133173451Y-50922882D02*
X132581000Y-50330431D01*
X132581000Y-50330431D02*
X132581000Y-45696050D01*
%TO.N,/IOT_51a*%
X140561000Y-33421000D02*
X139410000Y-32270000D01*
X140561000Y-37679000D02*
X140561000Y-33421000D01*
X138155000Y-44336120D02*
X138456120Y-44035000D01*
X138155000Y-47985000D02*
X138155000Y-44336120D01*
X138456120Y-44035000D02*
X138456120Y-39783880D01*
X138456120Y-39783880D02*
X140561000Y-37679000D01*
%TO.N,/IOB_3b_G6*%
X141950000Y-39535000D02*
X141950000Y-34810000D01*
X141973732Y-39558732D02*
X141950000Y-39535000D01*
%TO.N,Net-(A1-RUN)*%
X127805000Y-39485000D02*
X131555000Y-39485000D01*
X127780000Y-39460000D02*
X127805000Y-39485000D01*
X126730000Y-39460000D02*
X127780000Y-39460000D01*
%TO.N,/IOB_4a*%
X139410000Y-36880000D02*
X139410000Y-34810000D01*
X136005000Y-40285000D02*
X139410000Y-36880000D01*
X136005000Y-44685000D02*
X136005000Y-40285000D01*
X135055000Y-45635000D02*
X136005000Y-44685000D01*
X135055000Y-47375000D02*
X135055000Y-45635000D01*
X135115000Y-47435000D02*
X135055000Y-47375000D01*
%TO.N,/ICE_SPI_MOSI*%
X127405000Y-55935000D02*
X127405000Y-50385000D01*
X128105000Y-56635000D02*
X127405000Y-55935000D01*
X130055000Y-56635000D02*
X128105000Y-56635000D01*
X130569642Y-56120358D02*
X130055000Y-56635000D01*
X133839873Y-56586413D02*
X133839873Y-56585000D01*
X134046730Y-56793270D02*
X133839873Y-56586413D01*
X133839873Y-56585000D02*
X133375231Y-56120358D01*
X133375231Y-56120358D02*
X130569642Y-56120358D01*
%TO.N,/ICE_SPI_SCK*%
X130505000Y-57235000D02*
X127205000Y-57235000D01*
X130521450Y-57251450D02*
X130505000Y-57235000D01*
X127205000Y-57235000D02*
X126105000Y-56135000D01*
X126105000Y-56135000D02*
X126105000Y-49935000D01*
X131126542Y-56646358D02*
X130521450Y-57251450D01*
X133157354Y-56646358D02*
X131126542Y-56646358D01*
X126105000Y-49935000D02*
X126155000Y-49885000D01*
%TO.N,/ICE_SPI_SS*%
X132592886Y-57209000D02*
X132642869Y-57258983D01*
X131131000Y-57209000D02*
X132592886Y-57209000D01*
X125955000Y-57685000D02*
X130655000Y-57685000D01*
X125576938Y-57306938D02*
X125955000Y-57685000D01*
X125576938Y-56913062D02*
X125576938Y-57306938D01*
X123187500Y-56285000D02*
X124948877Y-56285000D01*
X130655000Y-57685000D02*
X131131000Y-57209000D01*
X124948877Y-56285000D02*
X125576938Y-56913062D01*
X123071250Y-56401250D02*
X123187500Y-56285000D01*
%TO.N,/ICE_SPI_MISO*%
X124755000Y-57035000D02*
X124855000Y-56935000D01*
X125155000Y-58235000D02*
X124755000Y-57835000D01*
X124755000Y-57835000D02*
X124755000Y-57035000D01*
X131455000Y-58235000D02*
X125155000Y-58235000D01*
X131955000Y-57735000D02*
X131455000Y-58235000D01*
%TO.N,/D-*%
X117486746Y-51057615D02*
X117769589Y-51057615D01*
X116989131Y-50560000D02*
X117486746Y-51057615D01*
X115777701Y-50560000D02*
X116989131Y-50560000D01*
X116558158Y-53524669D02*
X115208745Y-52175256D01*
X115208745Y-51128956D02*
X115777701Y-50560000D01*
X116558158Y-54163643D02*
X116558158Y-53524669D01*
X116487322Y-54234479D02*
X116558158Y-54163643D01*
X116204479Y-54234479D02*
X116487322Y-54234479D01*
%TO.N,/D+*%
X115964097Y-51010000D02*
X116802733Y-51010000D01*
X115658745Y-51315352D02*
X115964097Y-51010000D01*
X117168547Y-51375814D02*
X117168547Y-51658657D01*
X115658745Y-51988860D02*
X115658745Y-51315352D01*
X116805521Y-54552678D02*
X117008158Y-54350041D01*
X116805521Y-54835521D02*
X116805521Y-54552678D01*
X117008158Y-54350041D02*
X117008158Y-53338273D01*
X117008158Y-53338273D02*
X115658745Y-51988860D01*
%TO.N,/D-*%
X115208745Y-52175256D02*
X115208745Y-51128956D01*
%TO.N,/D+*%
X116802733Y-51010000D02*
X117168547Y-51375814D01*
%TO.N,/RPI_ICE2*%
X133355000Y-61935000D02*
X133355000Y-63135000D01*
X133355000Y-63135000D02*
X133405000Y-63185000D01*
%TD*%
M02*
