%TF.GenerationSoftware,KiCad,Pcbnew,9.0.0*%
%TF.CreationDate,2025-06-09T15:05:37+02:00*%
%TF.ProjectId,stm32-fpga-bootloader,73746d33-322d-4667-9067-612d626f6f74,rev?*%
%TF.SameCoordinates,Original*%
%TF.FileFunction,Soldermask,Bot*%
%TF.FilePolarity,Negative*%
%FSLAX46Y46*%
G04 Gerber Fmt 4.6, Leading zero omitted, Abs format (unit mm)*
G04 Created by KiCad (PCBNEW 9.0.0) date 2025-06-09 15:05:37*
%MOMM*%
%LPD*%
G01*
G04 APERTURE LIST*
G04 Aperture macros list*
%AMRoundRect*
0 Rectangle with rounded corners*
0 $1 Rounding radius*
0 $2 $3 $4 $5 $6 $7 $8 $9 X,Y pos of 4 corners*
0 Add a 4 corners polygon primitive as box body*
4,1,4,$2,$3,$4,$5,$6,$7,$8,$9,$2,$3,0*
0 Add four circle primitives for the rounded corners*
1,1,$1+$1,$2,$3*
1,1,$1+$1,$4,$5*
1,1,$1+$1,$6,$7*
1,1,$1+$1,$8,$9*
0 Add four rect primitives between the rounded corners*
20,1,$1+$1,$2,$3,$4,$5,0*
20,1,$1+$1,$4,$5,$6,$7,0*
20,1,$1+$1,$6,$7,$8,$9,0*
20,1,$1+$1,$8,$9,$2,$3,0*%
%AMFreePoly0*
4,1,37,0.603843,0.796157,0.639018,0.796157,0.711114,0.766294,0.766294,0.711114,0.796157,0.639018,0.796157,0.603843,0.800000,0.600000,0.800000,-0.600000,0.796157,-0.603843,0.796157,-0.639018,0.766294,-0.711114,0.711114,-0.766294,0.639018,-0.796157,0.603843,-0.796157,0.600000,-0.800000,0.000000,-0.800000,0.000000,-0.796148,-0.078414,-0.796148,-0.232228,-0.765552,-0.377117,-0.705537,
-0.507515,-0.618408,-0.618408,-0.507515,-0.705537,-0.377117,-0.765552,-0.232228,-0.796148,-0.078414,-0.796148,0.078414,-0.765552,0.232228,-0.705537,0.377117,-0.618408,0.507515,-0.507515,0.618408,-0.377117,0.705537,-0.232228,0.765552,-0.078414,0.796148,0.000000,0.796148,0.000000,0.800000,0.600000,0.800000,0.603843,0.796157,0.603843,0.796157,$1*%
%AMFreePoly1*
4,1,37,0.000000,0.796148,0.078414,0.796148,0.232228,0.765552,0.377117,0.705537,0.507515,0.618408,0.618408,0.507515,0.705537,0.377117,0.765552,0.232228,0.796148,0.078414,0.796148,-0.078414,0.765552,-0.232228,0.705537,-0.377117,0.618408,-0.507515,0.507515,-0.618408,0.377117,-0.705537,0.232228,-0.765552,0.078414,-0.796148,0.000000,-0.796148,0.000000,-0.800000,-0.600000,-0.800000,
-0.603843,-0.796157,-0.639018,-0.796157,-0.711114,-0.766294,-0.766294,-0.711114,-0.796157,-0.639018,-0.796157,-0.603843,-0.800000,-0.600000,-0.800000,0.600000,-0.796157,0.603843,-0.796157,0.639018,-0.766294,0.711114,-0.711114,0.766294,-0.639018,0.796157,-0.603843,0.796157,-0.600000,0.800000,0.000000,0.800000,0.000000,0.796148,0.000000,0.796148,$1*%
G04 Aperture macros list end*
%ADD10RoundRect,0.250001X0.949999X-0.949999X0.949999X0.949999X-0.949999X0.949999X-0.949999X-0.949999X0*%
%ADD11C,2.400000*%
%ADD12RoundRect,0.375000X0.375000X-0.375000X0.375000X0.375000X-0.375000X0.375000X-0.375000X-0.375000X0*%
%ADD13C,1.500000*%
%ADD14RoundRect,0.200000X0.600000X-0.600000X0.600000X0.600000X-0.600000X0.600000X-0.600000X-0.600000X0*%
%ADD15C,1.600000*%
%ADD16FreePoly0,90.000000*%
%ADD17FreePoly1,90.000000*%
%ADD18R,1.700000X1.700000*%
%ADD19O,1.700000X1.700000*%
%ADD20C,0.650000*%
%ADD21O,2.100000X1.000000*%
%ADD22O,1.800000X1.000000*%
%ADD23C,0.700000*%
%ADD24C,3.200000*%
%ADD25RoundRect,0.250000X0.550000X0.550000X-0.550000X0.550000X-0.550000X-0.550000X0.550000X-0.550000X0*%
%ADD26RoundRect,0.135000X0.185000X-0.135000X0.185000X0.135000X-0.185000X0.135000X-0.185000X-0.135000X0*%
%ADD27R,2.160000X0.635000*%
G04 APERTURE END LIST*
D10*
%TO.C,J6*%
X208472500Y-73735000D03*
D11*
X208472500Y-70235000D03*
%TD*%
D12*
%TO.C,U12*%
X120835000Y-89085000D03*
D13*
X123375000Y-89085000D03*
X125915000Y-89085000D03*
X128455000Y-89085000D03*
X130995000Y-89085000D03*
X133535000Y-89085000D03*
X136075000Y-89085000D03*
X138615000Y-89085000D03*
X141155000Y-89085000D03*
X143695000Y-89085000D03*
X146235000Y-89085000D03*
X148775000Y-89085000D03*
X148775000Y-78925000D03*
X146235000Y-78925000D03*
X143695000Y-78925000D03*
X141155000Y-78925000D03*
X138615000Y-78925000D03*
X136075000Y-78925000D03*
X133535000Y-78925000D03*
X130995000Y-78925000D03*
X128455000Y-78925000D03*
X125915000Y-78925000D03*
X123375000Y-78925000D03*
X120835000Y-78925000D03*
%TD*%
D14*
%TO.C,A2*%
X116495000Y-115715000D03*
D15*
X119035000Y-115715000D03*
D16*
X121575000Y-115715000D03*
D15*
X124115000Y-115715000D03*
X126655000Y-115715000D03*
X129195000Y-115715000D03*
X131735000Y-115715000D03*
D16*
X134275000Y-115715000D03*
D15*
X136815000Y-115715000D03*
X139355000Y-115715000D03*
X141895000Y-115715000D03*
X144435000Y-115715000D03*
D16*
X146975000Y-115715000D03*
D15*
X149515000Y-115715000D03*
X152055000Y-115715000D03*
X154595000Y-115715000D03*
X157135000Y-115715000D03*
D16*
X159675000Y-115715000D03*
D15*
X162215000Y-115715000D03*
X164755000Y-115715000D03*
X164755000Y-97935000D03*
X162215000Y-97935000D03*
D17*
X159675000Y-97935000D03*
D15*
X157135000Y-97935000D03*
X154595000Y-97935000D03*
X152055000Y-97935000D03*
X149515000Y-97935000D03*
D17*
X146975000Y-97935000D03*
D15*
X144435000Y-97935000D03*
X141895000Y-97935000D03*
X139355000Y-97935000D03*
X136815000Y-97935000D03*
D17*
X134275000Y-97935000D03*
D15*
X131735000Y-97935000D03*
X129195000Y-97935000D03*
X126655000Y-97935000D03*
X124115000Y-97935000D03*
D17*
X121575000Y-97935000D03*
D15*
X119035000Y-97935000D03*
X116495000Y-97935000D03*
%TD*%
D14*
%TO.C,A1*%
X116925000Y-61165000D03*
D15*
X119465000Y-61165000D03*
D16*
X122005000Y-61165000D03*
D15*
X124545000Y-61165000D03*
X127085000Y-61165000D03*
X129625000Y-61165000D03*
X132165000Y-61165000D03*
D16*
X134705000Y-61165000D03*
D15*
X137245000Y-61165000D03*
X139785000Y-61165000D03*
X142325000Y-61165000D03*
X144865000Y-61165000D03*
D16*
X147405000Y-61165000D03*
D15*
X149945000Y-61165000D03*
X152485000Y-61165000D03*
X155025000Y-61165000D03*
X157565000Y-61165000D03*
D16*
X160105000Y-61165000D03*
D15*
X162645000Y-61165000D03*
X165185000Y-61165000D03*
X165185000Y-43385000D03*
X162645000Y-43385000D03*
D17*
X160105000Y-43385000D03*
D15*
X157565000Y-43385000D03*
X155025000Y-43385000D03*
X152485000Y-43385000D03*
X149945000Y-43385000D03*
D17*
X147405000Y-43385000D03*
D15*
X144865000Y-43385000D03*
X142325000Y-43385000D03*
X139785000Y-43385000D03*
X137245000Y-43385000D03*
D17*
X134705000Y-43385000D03*
D15*
X132165000Y-43385000D03*
X129625000Y-43385000D03*
X127085000Y-43385000D03*
X124545000Y-43385000D03*
D17*
X122005000Y-43385000D03*
D15*
X119465000Y-43385000D03*
X116925000Y-43385000D03*
%TD*%
D18*
%TO.C,J12*%
X136345000Y-125145000D03*
D19*
X136345000Y-127685000D03*
X138885000Y-125145000D03*
X138885000Y-127685000D03*
X141425000Y-125145000D03*
X141425000Y-127685000D03*
X143965000Y-125145000D03*
X143965000Y-127685000D03*
X146505000Y-125145000D03*
X146505000Y-127685000D03*
X149045000Y-125145000D03*
X149045000Y-127685000D03*
%TD*%
D20*
%TO.C,J1*%
X118862500Y-102995000D03*
X118862500Y-108775000D03*
D21*
X119382500Y-101565000D03*
D22*
X115182500Y-101565000D03*
D21*
X119382500Y-110205000D03*
D22*
X115182500Y-110205000D03*
%TD*%
D20*
%TO.C,J8*%
X118675000Y-49795000D03*
X118675000Y-55575000D03*
D21*
X119195000Y-48365000D03*
D22*
X114995000Y-48365000D03*
D21*
X119195000Y-57005000D03*
D22*
X114995000Y-57005000D03*
%TD*%
D18*
%TO.C,JP3*%
X157105000Y-68105000D03*
D19*
X157105000Y-70645000D03*
X157105000Y-73185000D03*
%TD*%
D18*
%TO.C,J1003*%
X136165000Y-120685000D03*
D19*
X138705000Y-120685000D03*
X141245000Y-120685000D03*
%TD*%
D18*
%TO.C,JP2*%
X153405000Y-68105000D03*
D19*
X153405000Y-70645000D03*
X153405000Y-73185000D03*
%TD*%
D18*
%TO.C,J13*%
X153805000Y-127602500D03*
D19*
X153805000Y-125062500D03*
X156345000Y-127602500D03*
X156345000Y-125062500D03*
X158885000Y-127602500D03*
X158885000Y-125062500D03*
X161425000Y-127602500D03*
X161425000Y-125062500D03*
X163965000Y-127602500D03*
X163965000Y-125062500D03*
X166505000Y-127602500D03*
X166505000Y-125062500D03*
X169045000Y-127602500D03*
X169045000Y-125062500D03*
X171585000Y-127602500D03*
X171585000Y-125062500D03*
X174125000Y-127602500D03*
X174125000Y-125062500D03*
X176665000Y-127602500D03*
X176665000Y-125062500D03*
X179205000Y-127602500D03*
X179205000Y-125062500D03*
X181745000Y-127602500D03*
X181745000Y-125062500D03*
X184285000Y-127602500D03*
X184285000Y-125062500D03*
X186825000Y-127602500D03*
X186825000Y-125062500D03*
X189365000Y-127602500D03*
X189365000Y-125062500D03*
X191905000Y-127602500D03*
X191905000Y-125062500D03*
X194445000Y-127602500D03*
X194445000Y-125062500D03*
X196985000Y-127602500D03*
X196985000Y-125062500D03*
X199525000Y-127602500D03*
X199525000Y-125062500D03*
X202065000Y-127602500D03*
X202065000Y-125062500D03*
%TD*%
D23*
%TO.C,J7*%
X208605000Y-112594992D03*
%TD*%
D18*
%TO.C,JP6*%
X164505000Y-68085000D03*
D19*
X164505000Y-70625000D03*
X164505000Y-73165000D03*
%TD*%
D24*
%TO.C,H4*%
X117572500Y-126155000D03*
%TD*%
D18*
%TO.C,J10*%
X173605000Y-35885000D03*
D19*
X176145000Y-35885000D03*
X178685000Y-35885000D03*
X181225000Y-35885000D03*
X183765000Y-35885000D03*
X186305000Y-35885000D03*
X188845000Y-35885000D03*
X191385000Y-35885000D03*
%TD*%
D18*
%TO.C,JP4*%
X160805000Y-68060000D03*
D19*
X160805000Y-70600000D03*
X160805000Y-73140000D03*
%TD*%
D24*
%TO.C,H2*%
X117572500Y-34155000D03*
%TD*%
D18*
%TO.C,J1001*%
X132530000Y-67085000D03*
D19*
X132530000Y-69625000D03*
X132530000Y-72165000D03*
X132530000Y-74705000D03*
%TD*%
D18*
%TO.C,J5*%
X147030000Y-34810000D03*
D19*
X147030000Y-32270000D03*
X144490000Y-34810000D03*
X144490000Y-32270000D03*
X141950000Y-34810000D03*
X141950000Y-32270000D03*
X139410000Y-34810000D03*
X139410000Y-32270000D03*
X136870000Y-34810000D03*
X136870000Y-32270000D03*
X134330000Y-34810000D03*
X134330000Y-32270000D03*
%TD*%
D25*
%TO.C,U8*%
X203340000Y-63255000D03*
D15*
X203340000Y-60715000D03*
X203340000Y-58175000D03*
X203340000Y-55635000D03*
X203340000Y-53095000D03*
X203340000Y-50555000D03*
X203340000Y-48015000D03*
X203340000Y-45475000D03*
X203340000Y-42935000D03*
X203340000Y-40395000D03*
X203340000Y-37855000D03*
X203340000Y-35315000D03*
X195720000Y-35315000D03*
X195720000Y-37855000D03*
X195720000Y-40395000D03*
X195720000Y-42935000D03*
X195720000Y-45475000D03*
X195720000Y-48015000D03*
X195720000Y-50555000D03*
X195720000Y-53095000D03*
X195720000Y-55635000D03*
X195720000Y-58175000D03*
X195720000Y-60715000D03*
X195720000Y-63255000D03*
%TD*%
D18*
%TO.C,JP5*%
X168205000Y-68085000D03*
D19*
X168205000Y-70625000D03*
X168205000Y-73165000D03*
%TD*%
D18*
%TO.C,JP1*%
X149705000Y-68105000D03*
D19*
X149705000Y-70645000D03*
X149705000Y-73185000D03*
%TD*%
D18*
%TO.C,J11*%
X173605000Y-63825000D03*
D19*
X176145000Y-63825000D03*
X178685000Y-63825000D03*
X181225000Y-63825000D03*
X183765000Y-63825000D03*
X186305000Y-63825000D03*
X188845000Y-63825000D03*
X191385000Y-63825000D03*
%TD*%
D18*
%TO.C,J9*%
X165405000Y-78865000D03*
D19*
X162865000Y-78865000D03*
X165405000Y-81405000D03*
X162865000Y-81405000D03*
X165405000Y-83945000D03*
X162865000Y-83945000D03*
X165405000Y-86485000D03*
X162865000Y-86485000D03*
X165405000Y-89025000D03*
X162865000Y-89025000D03*
X165405000Y-91565000D03*
X162865000Y-91565000D03*
%TD*%
D24*
%TO.C,H3*%
X209572500Y-126155000D03*
%TD*%
D18*
%TO.C,J15*%
X115930000Y-69785000D03*
D19*
X115930000Y-72325000D03*
%TD*%
D24*
%TO.C,H1*%
X209572500Y-34155000D03*
%TD*%
D18*
%TO.C,J3*%
X164725000Y-32145000D03*
D19*
X164725000Y-34685000D03*
X162185000Y-32145000D03*
X162185000Y-34685000D03*
X159645000Y-32145000D03*
X159645000Y-34685000D03*
X157105000Y-32145000D03*
X157105000Y-34685000D03*
X154565000Y-32145000D03*
X154565000Y-34685000D03*
X152025000Y-32145000D03*
X152025000Y-34685000D03*
%TD*%
D18*
%TO.C,J1002*%
X176995000Y-88935000D03*
D19*
X174455000Y-88935000D03*
X176995000Y-91475000D03*
X174455000Y-91475000D03*
X176995000Y-94015000D03*
X174455000Y-94015000D03*
X176995000Y-96555000D03*
X174455000Y-96555000D03*
X176995000Y-99095000D03*
X174455000Y-99095000D03*
%TD*%
D18*
%TO.C,J1004*%
X173575000Y-32185000D03*
D19*
X176115000Y-32185000D03*
X178655000Y-32185000D03*
X181195000Y-32185000D03*
X183735000Y-32185000D03*
X186275000Y-32185000D03*
X188815000Y-32185000D03*
X191355000Y-32185000D03*
%TD*%
D26*
%TO.C,R85*%
X156405000Y-122405000D03*
X156405000Y-121385000D03*
%TD*%
%TO.C,R84*%
X174305000Y-121995000D03*
X174305000Y-120975000D03*
%TD*%
D27*
%TO.C,U4*%
X210405000Y-78320000D03*
X210405000Y-79590000D03*
X210405000Y-80860000D03*
X210405000Y-82130000D03*
X210405000Y-83400000D03*
X210405000Y-84670000D03*
X210405000Y-85940000D03*
X210405000Y-87210000D03*
X200805000Y-87210000D03*
X200805000Y-85940000D03*
X200805000Y-84670000D03*
X200805000Y-83400000D03*
X200805000Y-82130000D03*
X200805000Y-80860000D03*
X200805000Y-79590000D03*
X200805000Y-78320000D03*
%TD*%
%TO.C,U13*%
X119305000Y-75180000D03*
X119305000Y-73910000D03*
X119305000Y-72640000D03*
X119305000Y-71370000D03*
X119305000Y-70100000D03*
X119305000Y-68830000D03*
X119305000Y-67560000D03*
X119305000Y-66290000D03*
X128905000Y-66290000D03*
X128905000Y-67560000D03*
X128905000Y-68830000D03*
X128905000Y-70100000D03*
X128905000Y-71370000D03*
X128905000Y-72640000D03*
X128905000Y-73910000D03*
X128905000Y-75180000D03*
%TD*%
M02*
